%TF.GenerationSoftware,KiCad,Pcbnew,8.0.8-8.0.8-0~ubuntu24.04.1*%
%TF.CreationDate,2025-02-01T12:16:17-07:00*%
%TF.ProjectId,Control Board,436f6e74-726f-46c2-9042-6f6172642e6b,rev?*%
%TF.SameCoordinates,Original*%
%TF.FileFunction,Soldermask,Top*%
%TF.FilePolarity,Negative*%
%FSLAX46Y46*%
G04 Gerber Fmt 4.6, Leading zero omitted, Abs format (unit mm)*
G04 Created by KiCad (PCBNEW 8.0.8-8.0.8-0~ubuntu24.04.1) date 2025-02-01 12:16:17*
%MOMM*%
%LPD*%
G01*
G04 APERTURE LIST*
G04 Aperture macros list*
%AMRoundRect*
0 Rectangle with rounded corners*
0 $1 Rounding radius*
0 $2 $3 $4 $5 $6 $7 $8 $9 X,Y pos of 4 corners*
0 Add a 4 corners polygon primitive as box body*
4,1,4,$2,$3,$4,$5,$6,$7,$8,$9,$2,$3,0*
0 Add four circle primitives for the rounded corners*
1,1,$1+$1,$2,$3*
1,1,$1+$1,$4,$5*
1,1,$1+$1,$6,$7*
1,1,$1+$1,$8,$9*
0 Add four rect primitives between the rounded corners*
20,1,$1+$1,$2,$3,$4,$5,0*
20,1,$1+$1,$4,$5,$6,$7,0*
20,1,$1+$1,$6,$7,$8,$9,0*
20,1,$1+$1,$8,$9,$2,$3,0*%
%AMRotRect*
0 Rectangle, with rotation*
0 The origin of the aperture is its center*
0 $1 length*
0 $2 width*
0 $3 Rotation angle, in degrees counterclockwise*
0 Add horizontal line*
21,1,$1,$2,0,0,$3*%
G04 Aperture macros list end*
%ADD10C,0.000000*%
%ADD11RoundRect,0.135000X0.135000X0.185000X-0.135000X0.185000X-0.135000X-0.185000X0.135000X-0.185000X0*%
%ADD12R,2.600000X2.600000*%
%ADD13C,2.600000*%
%ADD14RoundRect,0.250000X-0.625000X0.350000X-0.625000X-0.350000X0.625000X-0.350000X0.625000X0.350000X0*%
%ADD15O,1.750000X1.200000*%
%ADD16C,4.400000*%
%ADD17RoundRect,0.140000X-0.170000X0.140000X-0.170000X-0.140000X0.170000X-0.140000X0.170000X0.140000X0*%
%ADD18RoundRect,0.150000X0.150000X-0.587500X0.150000X0.587500X-0.150000X0.587500X-0.150000X-0.587500X0*%
%ADD19RoundRect,0.135000X-0.135000X-0.185000X0.135000X-0.185000X0.135000X0.185000X-0.135000X0.185000X0*%
%ADD20RoundRect,0.140000X-0.140000X-0.170000X0.140000X-0.170000X0.140000X0.170000X-0.140000X0.170000X0*%
%ADD21C,0.650000*%
%ADD22R,1.450000X0.600000*%
%ADD23R,1.450000X0.300000*%
%ADD24O,2.100000X1.000000*%
%ADD25O,1.600000X1.000000*%
%ADD26RoundRect,0.250000X-0.850000X-0.350000X0.850000X-0.350000X0.850000X0.350000X-0.850000X0.350000X0*%
%ADD27RoundRect,0.249997X-2.950003X-2.650003X2.950003X-2.650003X2.950003X2.650003X-2.950003X2.650003X0*%
%ADD28RoundRect,0.250000X1.050000X0.550000X-1.050000X0.550000X-1.050000X-0.550000X1.050000X-0.550000X0*%
%ADD29RoundRect,0.135000X0.185000X-0.135000X0.185000X0.135000X-0.185000X0.135000X-0.185000X-0.135000X0*%
%ADD30R,2.000000X2.000000*%
%ADD31C,2.000000*%
%ADD32R,0.450000X1.750000*%
%ADD33RoundRect,0.135000X-0.185000X0.135000X-0.185000X-0.135000X0.185000X-0.135000X0.185000X0.135000X0*%
%ADD34RoundRect,0.218750X0.218750X0.256250X-0.218750X0.256250X-0.218750X-0.256250X0.218750X-0.256250X0*%
%ADD35RoundRect,0.237500X-0.287500X-0.237500X0.287500X-0.237500X0.287500X0.237500X-0.287500X0.237500X0*%
%ADD36C,2.100000*%
%ADD37C,1.750000*%
%ADD38RoundRect,0.140000X0.219203X0.021213X0.021213X0.219203X-0.219203X-0.021213X-0.021213X-0.219203X0*%
%ADD39R,1.700000X1.700000*%
%ADD40O,1.700000X1.700000*%
%ADD41RoundRect,0.250000X-0.600000X-0.725000X0.600000X-0.725000X0.600000X0.725000X-0.600000X0.725000X0*%
%ADD42O,1.700000X1.950000*%
%ADD43RoundRect,0.140000X-0.219203X-0.021213X-0.021213X-0.219203X0.219203X0.021213X0.021213X0.219203X0*%
%ADD44RotRect,1.600000X0.550000X45.000000*%
%ADD45RotRect,1.600000X0.550000X135.000000*%
%ADD46RoundRect,0.140000X0.170000X-0.140000X0.170000X0.140000X-0.170000X0.140000X-0.170000X-0.140000X0*%
%ADD47RoundRect,0.150000X-0.512500X-0.150000X0.512500X-0.150000X0.512500X0.150000X-0.512500X0.150000X0*%
%ADD48RoundRect,0.147500X0.172500X-0.147500X0.172500X0.147500X-0.172500X0.147500X-0.172500X-0.147500X0*%
%ADD49RoundRect,0.150000X-0.587500X-0.150000X0.587500X-0.150000X0.587500X0.150000X-0.587500X0.150000X0*%
%ADD50RotRect,1.400000X1.200000X135.000000*%
%ADD51RoundRect,0.225000X-0.375000X0.225000X-0.375000X-0.225000X0.375000X-0.225000X0.375000X0.225000X0*%
%ADD52RoundRect,0.140000X0.140000X0.170000X-0.140000X0.170000X-0.140000X-0.170000X0.140000X-0.170000X0*%
%ADD53RoundRect,0.225000X-0.225000X-0.250000X0.225000X-0.250000X0.225000X0.250000X-0.225000X0.250000X0*%
%ADD54RoundRect,0.225000X0.225000X0.375000X-0.225000X0.375000X-0.225000X-0.375000X0.225000X-0.375000X0*%
G04 APERTURE END LIST*
D10*
%TO.C,G\u002A\u002A\u002A*%
G36*
X79906208Y-105033647D02*
G01*
X79959765Y-105034800D01*
X80252256Y-105041532D01*
X80300348Y-105310738D01*
X80321562Y-105419978D01*
X80342576Y-105511798D01*
X80360798Y-105575776D01*
X80372469Y-105600767D01*
X80411881Y-105623626D01*
X80479890Y-105653302D01*
X80562962Y-105685000D01*
X80647565Y-105713930D01*
X80720164Y-105735297D01*
X80767227Y-105744310D01*
X80775553Y-105743518D01*
X80806579Y-105725790D01*
X80867569Y-105686868D01*
X80948991Y-105632943D01*
X81020377Y-105584567D01*
X81235741Y-105437222D01*
X81434900Y-105635346D01*
X81513115Y-105714744D01*
X81576894Y-105782511D01*
X81619455Y-105831232D01*
X81634058Y-105853129D01*
X81621239Y-105879689D01*
X81586415Y-105937020D01*
X81535040Y-106016448D01*
X81478091Y-106101221D01*
X81322123Y-106329653D01*
X81378689Y-106442547D01*
X81418571Y-106528514D01*
X81453430Y-106614169D01*
X81463963Y-106644139D01*
X81474386Y-106677065D01*
X81485691Y-106701649D01*
X81504829Y-106720603D01*
X81538752Y-106736636D01*
X81594410Y-106752461D01*
X81678755Y-106770787D01*
X81798737Y-106794326D01*
X81898391Y-106813564D01*
X82054588Y-106843803D01*
X82054588Y-107131118D01*
X82054588Y-107418433D01*
X81801218Y-107469069D01*
X81673681Y-107495452D01*
X81586200Y-107516540D01*
X81531461Y-107535172D01*
X81502153Y-107554185D01*
X81490963Y-107576420D01*
X81489877Y-107589948D01*
X81480520Y-107627374D01*
X81455781Y-107694884D01*
X81420657Y-107779037D01*
X81413942Y-107794188D01*
X81338008Y-107964012D01*
X81486033Y-108177618D01*
X81546370Y-108266417D01*
X81594847Y-108341058D01*
X81625775Y-108392568D01*
X81634058Y-108411043D01*
X81617965Y-108434852D01*
X81574216Y-108484729D01*
X81509608Y-108553232D01*
X81435727Y-108628163D01*
X81237396Y-108825464D01*
X81013978Y-108677505D01*
X80790560Y-108529545D01*
X80680737Y-108582901D01*
X80615868Y-108610936D01*
X80570099Y-108624268D01*
X80557834Y-108623176D01*
X80545189Y-108597906D01*
X80517464Y-108534945D01*
X80477577Y-108441168D01*
X80428443Y-108323448D01*
X80372979Y-108188659D01*
X80360122Y-108157164D01*
X80175490Y-107704233D01*
X80307071Y-107588224D01*
X80423593Y-107465206D01*
X80495563Y-107338478D01*
X80526401Y-107201402D01*
X80528138Y-107158984D01*
X80511104Y-106993558D01*
X80456287Y-106852348D01*
X80390059Y-106758686D01*
X80264997Y-106645864D01*
X80122668Y-106577028D01*
X79967258Y-106553445D01*
X79802948Y-106576386D01*
X79795635Y-106578467D01*
X79645176Y-106645513D01*
X79524076Y-106747119D01*
X79436877Y-106876687D01*
X79388122Y-107027618D01*
X79381188Y-107180442D01*
X79398976Y-107298864D01*
X79435687Y-107399696D01*
X79497824Y-107493536D01*
X79591893Y-107590983D01*
X79679405Y-107666346D01*
X79731280Y-107708893D01*
X79540490Y-108164207D01*
X79482711Y-108301555D01*
X79431146Y-108423107D01*
X79388679Y-108522146D01*
X79358197Y-108591955D01*
X79342583Y-108625818D01*
X79341332Y-108627889D01*
X79316975Y-108623120D01*
X79263778Y-108601779D01*
X79223019Y-108582842D01*
X79113074Y-108529427D01*
X78949773Y-108637670D01*
X78864106Y-108694354D01*
X78786492Y-108745538D01*
X78731619Y-108781537D01*
X78725368Y-108785607D01*
X78698315Y-108801556D01*
X78674196Y-108806016D01*
X78645496Y-108794375D01*
X78604702Y-108762020D01*
X78544297Y-108704340D01*
X78467042Y-108627049D01*
X78389438Y-108547515D01*
X78326204Y-108479807D01*
X78284097Y-108431362D01*
X78269820Y-108410010D01*
X78282743Y-108383709D01*
X78317721Y-108327082D01*
X78369073Y-108249053D01*
X78417886Y-108177560D01*
X78565951Y-107963895D01*
X78503668Y-107824379D01*
X78467581Y-107738854D01*
X78438279Y-107661072D01*
X78425031Y-107618552D01*
X78404389Y-107564358D01*
X78382354Y-107535973D01*
X78349040Y-107524793D01*
X78279540Y-107507282D01*
X78184883Y-107486079D01*
X78102661Y-107469069D01*
X77849290Y-107418433D01*
X77849290Y-107131118D01*
X77849290Y-106843803D01*
X78005487Y-106813564D01*
X78152171Y-106785219D01*
X78258730Y-106763837D01*
X78332114Y-106746707D01*
X78379275Y-106731118D01*
X78407164Y-106714360D01*
X78422731Y-106693722D01*
X78432928Y-106666492D01*
X78439915Y-106644139D01*
X78468470Y-106568447D01*
X78507723Y-106478881D01*
X78526407Y-106440143D01*
X78584191Y-106324847D01*
X78427006Y-106099396D01*
X78364576Y-106008180D01*
X78313890Y-105930934D01*
X78280498Y-105876336D01*
X78269820Y-105853708D01*
X78285921Y-105829763D01*
X78329715Y-105779726D01*
X78394438Y-105711009D01*
X78470167Y-105634164D01*
X78670514Y-105434858D01*
X78901606Y-105592642D01*
X78994148Y-105654758D01*
X79072494Y-105705347D01*
X79128053Y-105738994D01*
X79151827Y-105750337D01*
X79193435Y-105740861D01*
X79261683Y-105716509D01*
X79343345Y-105683070D01*
X79425197Y-105646331D01*
X79494013Y-105612078D01*
X79536569Y-105586098D01*
X79543479Y-105578956D01*
X79555337Y-105541746D01*
X79572640Y-105469917D01*
X79592434Y-105376172D01*
X79601427Y-105329896D01*
X79620986Y-105228901D01*
X79638560Y-105142516D01*
X79651387Y-105084139D01*
X79654797Y-105070845D01*
X79664407Y-105052866D01*
X79686188Y-105041121D01*
X79728304Y-105034646D01*
X79798922Y-105032477D01*
X79906208Y-105033647D01*
G37*
%TO.C,REF\u002A\u002A*%
G36*
X138828696Y-91887890D02*
G01*
X138944269Y-91915779D01*
X139056524Y-91942887D01*
X139164846Y-91969064D01*
X139268622Y-91994162D01*
X139367238Y-92018031D01*
X139460079Y-92040523D01*
X139546533Y-92061488D01*
X139625985Y-92080776D01*
X139697821Y-92098240D01*
X139761428Y-92113730D01*
X139816191Y-92127097D01*
X139861497Y-92138191D01*
X139896731Y-92146864D01*
X139921281Y-92152966D01*
X139934532Y-92156349D01*
X139936802Y-92157010D01*
X139937335Y-92163624D01*
X139937931Y-92181520D01*
X139938568Y-92209354D01*
X139939222Y-92245780D01*
X139939871Y-92289453D01*
X139940489Y-92339029D01*
X139941056Y-92393163D01*
X139941255Y-92414914D01*
X139943500Y-92670470D01*
X139836167Y-92685754D01*
X139728834Y-92701039D01*
X138968034Y-92555316D01*
X138871473Y-92536823D01*
X138778075Y-92518939D01*
X138688621Y-92501815D01*
X138603894Y-92485600D01*
X138524673Y-92470442D01*
X138451741Y-92456492D01*
X138385878Y-92443899D01*
X138327866Y-92432811D01*
X138278487Y-92423380D01*
X138238521Y-92415753D01*
X138208750Y-92410080D01*
X138189955Y-92406512D01*
X138183267Y-92405257D01*
X138159300Y-92400921D01*
X138163767Y-93767588D01*
X138168235Y-95134254D01*
X138128406Y-95138417D01*
X138114483Y-95139230D01*
X138089995Y-95139952D01*
X138056230Y-95140585D01*
X138014476Y-95141127D01*
X137966022Y-95141578D01*
X137912155Y-95141939D01*
X137854164Y-95142210D01*
X137793337Y-95142390D01*
X137730962Y-95142480D01*
X137668327Y-95142480D01*
X137606720Y-95142390D01*
X137547431Y-95142209D01*
X137491745Y-95141937D01*
X137440953Y-95141576D01*
X137396342Y-95141124D01*
X137359200Y-95140582D01*
X137330816Y-95139950D01*
X137312477Y-95139227D01*
X137305471Y-95138414D01*
X137305468Y-95138411D01*
X137305089Y-95131791D01*
X137304757Y-95113121D01*
X137304472Y-95082977D01*
X137304234Y-95041938D01*
X137304043Y-94990580D01*
X137303899Y-94929480D01*
X137303803Y-94859215D01*
X137303753Y-94780363D01*
X137303751Y-94693501D01*
X137303796Y-94599205D01*
X137303888Y-94498054D01*
X137304027Y-94390623D01*
X137304213Y-94277490D01*
X137304446Y-94159233D01*
X137304727Y-94036428D01*
X137305054Y-93909653D01*
X137305429Y-93779484D01*
X137305461Y-93768775D01*
X137309624Y-92403308D01*
X137284901Y-92408813D01*
X137259010Y-92414443D01*
X137223156Y-92422034D01*
X137178276Y-92431399D01*
X137125305Y-92442349D01*
X137065180Y-92454697D01*
X136998837Y-92468256D01*
X136927211Y-92482838D01*
X136851238Y-92498255D01*
X136771855Y-92514319D01*
X136689996Y-92530842D01*
X136606598Y-92547638D01*
X136522597Y-92564518D01*
X136438929Y-92581295D01*
X136356530Y-92597780D01*
X136276335Y-92613787D01*
X136199280Y-92629127D01*
X136126301Y-92643613D01*
X136058335Y-92657058D01*
X135996317Y-92669273D01*
X135941182Y-92680070D01*
X135893868Y-92689263D01*
X135855309Y-92696663D01*
X135826441Y-92702083D01*
X135808202Y-92705336D01*
X135801715Y-92706255D01*
X135785407Y-92705329D01*
X135761440Y-92702858D01*
X135732400Y-92699232D01*
X135700873Y-92694839D01*
X135669443Y-92690069D01*
X135640695Y-92685311D01*
X135617216Y-92680955D01*
X135601591Y-92677390D01*
X135596462Y-92675345D01*
X135595581Y-92667969D01*
X135595012Y-92649650D01*
X135594727Y-92622037D01*
X135594702Y-92586779D01*
X135594911Y-92545525D01*
X135595327Y-92499923D01*
X135595925Y-92451623D01*
X135596679Y-92402274D01*
X135597563Y-92353524D01*
X135598551Y-92307022D01*
X135599617Y-92264418D01*
X135600736Y-92227359D01*
X135601881Y-92197495D01*
X135603027Y-92176475D01*
X135604148Y-92165948D01*
X135604470Y-92165088D01*
X135611002Y-92163041D01*
X135629145Y-92158042D01*
X135658272Y-92150256D01*
X135697755Y-92139843D01*
X135746967Y-92126965D01*
X135805281Y-92111786D01*
X135872070Y-92094466D01*
X135946707Y-92075168D01*
X136028565Y-92054054D01*
X136117016Y-92031286D01*
X136211433Y-92007026D01*
X136311190Y-91981437D01*
X136415660Y-91954680D01*
X136524214Y-91926917D01*
X136636226Y-91898311D01*
X136666030Y-91890707D01*
X137722797Y-91621118D01*
X138828696Y-91887890D01*
G37*
G36*
X139088477Y-92758890D02*
G01*
X139195439Y-92777612D01*
X139290708Y-92794297D01*
X139375018Y-92809132D01*
X139449108Y-92822300D01*
X139513712Y-92833988D01*
X139569568Y-92844380D01*
X139617411Y-92853662D01*
X139657979Y-92862020D01*
X139692007Y-92869638D01*
X139720232Y-92876702D01*
X139743391Y-92883396D01*
X139762218Y-92889907D01*
X139777452Y-92896420D01*
X139789828Y-92903119D01*
X139800082Y-92910191D01*
X139808952Y-92917819D01*
X139817173Y-92926191D01*
X139825482Y-92935490D01*
X139834614Y-92945902D01*
X139835433Y-92946822D01*
X139874860Y-93000063D01*
X139907277Y-93062982D01*
X139932246Y-93134476D01*
X139949327Y-93213441D01*
X139953549Y-93244237D01*
X139956998Y-93285286D01*
X139958739Y-93332397D01*
X139958877Y-93382803D01*
X139957515Y-93433739D01*
X139954757Y-93482439D01*
X139950708Y-93526137D01*
X139945469Y-93562066D01*
X139940874Y-93582078D01*
X139919394Y-93641620D01*
X139892589Y-93692134D01*
X139861094Y-93732842D01*
X139825545Y-93762965D01*
X139786577Y-93781727D01*
X139775272Y-93784807D01*
X139760097Y-93787338D01*
X139734948Y-93790478D01*
X139702447Y-93793945D01*
X139665215Y-93797458D01*
X139630972Y-93800335D01*
X139514169Y-93809569D01*
X139233209Y-93782499D01*
X139175073Y-93776929D01*
X139120926Y-93771800D01*
X139072037Y-93767228D01*
X139029675Y-93763330D01*
X138995108Y-93760221D01*
X138969603Y-93758017D01*
X138954429Y-93756834D01*
X138950585Y-93756689D01*
X138950408Y-93763042D01*
X138950373Y-93781128D01*
X138950472Y-93810052D01*
X138950698Y-93848920D01*
X138951043Y-93896839D01*
X138951500Y-93952914D01*
X138952062Y-94016251D01*
X138952722Y-94085957D01*
X138953471Y-94161137D01*
X138954304Y-94240897D01*
X138955213Y-94324343D01*
X138955226Y-94325569D01*
X138956176Y-94412230D01*
X138957084Y-94497477D01*
X138957940Y-94580161D01*
X138958734Y-94659134D01*
X138959454Y-94733249D01*
X138960089Y-94801357D01*
X138960630Y-94862311D01*
X138961065Y-94914963D01*
X138961383Y-94958165D01*
X138961574Y-94990768D01*
X138961627Y-95007875D01*
X138961720Y-95122561D01*
X138915946Y-95126026D01*
X138898413Y-95126897D01*
X138869991Y-95127757D01*
X138832418Y-95128591D01*
X138787433Y-95129384D01*
X138736774Y-95130118D01*
X138682179Y-95130780D01*
X138625386Y-95131352D01*
X138568134Y-95131820D01*
X138512162Y-95132167D01*
X138459207Y-95132379D01*
X138411007Y-95132438D01*
X138369302Y-95132330D01*
X138335830Y-95132039D01*
X138312328Y-95131550D01*
X138310570Y-95131488D01*
X138256064Y-95129482D01*
X138252286Y-94862964D01*
X138251830Y-94825063D01*
X138251367Y-94775501D01*
X138250900Y-94715245D01*
X138250435Y-94645261D01*
X138249974Y-94566515D01*
X138249524Y-94479974D01*
X138249087Y-94386605D01*
X138248668Y-94287373D01*
X138248272Y-94183245D01*
X138247903Y-94075189D01*
X138247565Y-93964169D01*
X138247263Y-93851153D01*
X138247000Y-93737107D01*
X138246811Y-93639920D01*
X138246032Y-93200584D01*
X138943743Y-93200584D01*
X138943794Y-93239786D01*
X138944102Y-93279653D01*
X138944654Y-93318193D01*
X138945437Y-93353413D01*
X138946440Y-93383321D01*
X138947650Y-93405922D01*
X138949054Y-93419225D01*
X138949890Y-93421842D01*
X138956943Y-93423591D01*
X138974631Y-93426486D01*
X139001036Y-93430295D01*
X139034242Y-93434783D01*
X139072331Y-93439715D01*
X139113386Y-93444858D01*
X139155491Y-93449978D01*
X139196728Y-93454840D01*
X139235181Y-93459211D01*
X139268931Y-93462856D01*
X139296063Y-93465540D01*
X139314659Y-93467031D01*
X139321601Y-93467238D01*
X139335031Y-93465476D01*
X139344418Y-93459655D01*
X139353180Y-93446839D01*
X139359483Y-93434725D01*
X139366984Y-93418118D01*
X139371643Y-93402279D01*
X139374079Y-93383420D01*
X139374907Y-93357753D01*
X139374905Y-93340019D01*
X139373991Y-93305631D01*
X139371287Y-93279516D01*
X139366156Y-93257376D01*
X139360169Y-93240375D01*
X139341581Y-93202125D01*
X139319067Y-93170217D01*
X139294592Y-93147215D01*
X139283719Y-93140582D01*
X139273204Y-93137403D01*
X139252332Y-93132764D01*
X139223239Y-93127024D01*
X139188065Y-93120540D01*
X139148946Y-93113671D01*
X139108020Y-93106775D01*
X139067426Y-93100209D01*
X139029302Y-93094332D01*
X138995785Y-93089502D01*
X138969013Y-93086078D01*
X138951125Y-93084416D01*
X138947775Y-93084315D01*
X138946356Y-93090294D01*
X138945255Y-93106904D01*
X138944461Y-93132150D01*
X138943961Y-93164042D01*
X138943743Y-93200584D01*
X138246032Y-93200584D01*
X138245116Y-92683395D01*
X138349774Y-92665616D01*
X138454433Y-92647836D01*
X139088477Y-92758890D01*
G37*
G36*
X137131206Y-92667861D02*
G01*
X137166732Y-92673730D01*
X137197872Y-92679384D01*
X137222492Y-92684395D01*
X137238461Y-92688334D01*
X137243575Y-92690428D01*
X137244000Y-92697156D01*
X137244372Y-92715761D01*
X137244692Y-92745502D01*
X137244961Y-92785633D01*
X137245183Y-92835412D01*
X137245357Y-92894094D01*
X137245487Y-92960935D01*
X137245573Y-93035192D01*
X137245617Y-93116121D01*
X137245621Y-93202978D01*
X137245587Y-93295019D01*
X137245516Y-93391501D01*
X137245410Y-93491680D01*
X137245271Y-93594811D01*
X137245100Y-93700151D01*
X137244899Y-93806956D01*
X137244669Y-93914483D01*
X137244413Y-94021988D01*
X137244132Y-94128726D01*
X137243828Y-94233954D01*
X137243502Y-94336929D01*
X137243155Y-94436906D01*
X137242791Y-94533141D01*
X137242410Y-94624892D01*
X137242014Y-94711413D01*
X137241605Y-94791961D01*
X137241184Y-94865793D01*
X137240753Y-94932164D01*
X137240314Y-94990331D01*
X137239869Y-95039550D01*
X137239418Y-95079077D01*
X137238965Y-95108168D01*
X137238509Y-95126080D01*
X137238078Y-95132063D01*
X137230458Y-95133518D01*
X137211645Y-95134788D01*
X137183072Y-95135856D01*
X137146173Y-95136710D01*
X137102379Y-95137334D01*
X137053126Y-95137715D01*
X136999845Y-95137838D01*
X136943969Y-95137689D01*
X136886933Y-95137254D01*
X136830169Y-95136518D01*
X136815064Y-95136266D01*
X136635123Y-95133109D01*
X136636678Y-94678523D01*
X136637020Y-94590647D01*
X136637465Y-94496350D01*
X136637995Y-94398032D01*
X136638595Y-94298088D01*
X136639250Y-94198918D01*
X136639943Y-94102919D01*
X136640658Y-94012490D01*
X136641381Y-93930027D01*
X136642055Y-93861681D01*
X136645878Y-93499425D01*
X136581773Y-93552310D01*
X136555372Y-93573892D01*
X136530237Y-93594090D01*
X136509129Y-93610706D01*
X136494813Y-93621540D01*
X136494317Y-93621896D01*
X136470967Y-93638598D01*
X136360477Y-93627946D01*
X136249988Y-93617295D01*
X136184888Y-93577430D01*
X136159649Y-93562252D01*
X136138592Y-93550118D01*
X136123867Y-93542227D01*
X136117623Y-93539782D01*
X136117584Y-93539811D01*
X136117238Y-93546284D01*
X136116767Y-93564623D01*
X136116183Y-93594068D01*
X136115496Y-93633859D01*
X136114716Y-93683236D01*
X136113855Y-93741439D01*
X136112924Y-93807707D01*
X136111932Y-93881279D01*
X136110891Y-93961397D01*
X136109811Y-94047300D01*
X136108703Y-94138227D01*
X136107578Y-94233418D01*
X136106488Y-94328438D01*
X136105335Y-94427133D01*
X136104153Y-94522371D01*
X136102953Y-94613385D01*
X136101750Y-94699407D01*
X136100555Y-94779670D01*
X136099382Y-94853408D01*
X136098244Y-94919853D01*
X136097155Y-94978238D01*
X136096127Y-95027796D01*
X136095174Y-95067760D01*
X136094308Y-95097363D01*
X136093543Y-95115837D01*
X136092920Y-95122386D01*
X136088413Y-95124361D01*
X136077003Y-95125996D01*
X136057864Y-95127314D01*
X136030167Y-95128337D01*
X135993085Y-95129089D01*
X135945792Y-95129594D01*
X135887459Y-95129873D01*
X135823441Y-95129952D01*
X135558638Y-95129952D01*
X135558775Y-95005257D01*
X135558899Y-94977599D01*
X135559214Y-94939589D01*
X135559706Y-94892027D01*
X135560363Y-94835713D01*
X135561172Y-94771448D01*
X135562119Y-94700033D01*
X135563192Y-94622268D01*
X135564378Y-94538953D01*
X135565663Y-94450890D01*
X135567035Y-94358879D01*
X135568481Y-94263720D01*
X135569988Y-94166215D01*
X135571542Y-94067163D01*
X135573131Y-93967365D01*
X135574742Y-93867622D01*
X135576362Y-93768734D01*
X135577977Y-93671503D01*
X135579575Y-93576728D01*
X135581143Y-93485210D01*
X135582668Y-93397750D01*
X135584136Y-93315148D01*
X135585535Y-93238205D01*
X135586852Y-93167721D01*
X135588074Y-93104498D01*
X135589188Y-93049335D01*
X135590180Y-93003033D01*
X135591039Y-92966393D01*
X135591750Y-92940215D01*
X135592301Y-92925300D01*
X135592585Y-92921989D01*
X135599447Y-92919955D01*
X135616986Y-92915979D01*
X135643465Y-92910420D01*
X135677144Y-92903637D01*
X135716285Y-92895989D01*
X135746134Y-92890288D01*
X135896421Y-92861848D01*
X136006910Y-92875792D01*
X136117400Y-92889736D01*
X136220322Y-92946404D01*
X136253073Y-92964183D01*
X136282107Y-92979460D01*
X136305597Y-92991315D01*
X136321718Y-92998827D01*
X136328634Y-93001076D01*
X136334531Y-92996583D01*
X136348761Y-92984762D01*
X136370163Y-92966607D01*
X136397574Y-92943112D01*
X136429830Y-92915274D01*
X136465771Y-92884086D01*
X136489588Y-92863335D01*
X136527519Y-92830372D01*
X136562763Y-92799999D01*
X136594107Y-92773242D01*
X136620339Y-92751127D01*
X136640246Y-92734680D01*
X136652614Y-92724926D01*
X136655922Y-92722708D01*
X136664724Y-92720320D01*
X136684267Y-92715987D01*
X136712873Y-92710050D01*
X136748863Y-92702849D01*
X136790560Y-92694724D01*
X136836284Y-92686015D01*
X136845107Y-92684357D01*
X137023523Y-92650888D01*
X137131206Y-92667861D01*
G37*
%TD*%
D11*
%TO.C,R5*%
X141510000Y-116800000D03*
X140490000Y-116800000D03*
%TD*%
D12*
%TO.C,J1*%
X148480000Y-77695000D03*
D13*
X143400000Y-77695000D03*
%TD*%
D14*
%TO.C,J7*%
X183400000Y-103600000D03*
D15*
X183400000Y-105600000D03*
X183400000Y-107600000D03*
X183400000Y-109600000D03*
%TD*%
D16*
%TO.C,H3*%
X182600000Y-76000000D03*
%TD*%
D17*
%TO.C,C15*%
X141521573Y-89941573D03*
X141521573Y-90901573D03*
%TD*%
D18*
%TO.C,Q4*%
X168250000Y-115537500D03*
X170150000Y-115537500D03*
X169200000Y-113662500D03*
%TD*%
D19*
%TO.C,R16*%
X171952500Y-89600000D03*
X172972500Y-89600000D03*
%TD*%
D20*
%TO.C,C1*%
X155120000Y-103000000D03*
X156080000Y-103000000D03*
%TD*%
D21*
%TO.C,J2*%
X139321573Y-105201573D03*
X139321573Y-110981573D03*
D22*
X140766573Y-104841573D03*
X140766573Y-105641573D03*
D23*
X140766573Y-106841573D03*
X140766573Y-107841573D03*
X140766573Y-108341573D03*
X140766573Y-109341573D03*
D22*
X140766573Y-110541573D03*
X140766573Y-111341573D03*
X140766573Y-111341573D03*
X140766573Y-110541573D03*
D23*
X140766573Y-109841573D03*
X140766573Y-108841573D03*
X140766573Y-107341573D03*
X140766573Y-106341573D03*
D22*
X140766573Y-105641573D03*
X140766573Y-104841573D03*
D24*
X139851573Y-103771573D03*
D25*
X135671573Y-103771573D03*
D24*
X139851573Y-112411573D03*
D25*
X135671573Y-112411573D03*
%TD*%
D26*
%TO.C,U1*%
X143721573Y-86941573D03*
X143721573Y-89221573D03*
D27*
X150021573Y-89221573D03*
D26*
X143721573Y-91501573D03*
%TD*%
D14*
%TO.C,J5*%
X183400000Y-88200000D03*
D15*
X183400000Y-90200000D03*
X183400000Y-92200000D03*
X183400000Y-94200000D03*
%TD*%
D12*
%TO.C,J8*%
X176545000Y-77695000D03*
D13*
X171465000Y-77695000D03*
%TD*%
D11*
%TO.C,R13*%
X179000000Y-90200000D03*
X177980000Y-90200000D03*
%TD*%
D28*
%TO.C,C13*%
X139600000Y-99621573D03*
X136000000Y-99621573D03*
%TD*%
D29*
%TO.C,R1*%
X142721573Y-111841573D03*
X142721573Y-110821573D03*
%TD*%
D30*
%TO.C,BZ1*%
X161000000Y-92600000D03*
D31*
X161000000Y-85000000D03*
%TD*%
D32*
%TO.C,U3*%
X158250000Y-104800000D03*
X157600000Y-104800000D03*
X156950000Y-104800000D03*
X156300000Y-104800000D03*
X155650000Y-104800000D03*
X155000000Y-104800000D03*
X154350000Y-104800000D03*
X153700000Y-104800000D03*
X153050000Y-104800000D03*
X152400000Y-104800000D03*
X151750000Y-104800000D03*
X151100000Y-104800000D03*
X150450000Y-104800000D03*
X149800000Y-104800000D03*
X149800000Y-112000000D03*
X150450000Y-112000000D03*
X151100000Y-112000000D03*
X151750000Y-112000000D03*
X152400000Y-112000000D03*
X153050000Y-112000000D03*
X153700000Y-112000000D03*
X154350000Y-112000000D03*
X155000000Y-112000000D03*
X155650000Y-112000000D03*
X156300000Y-112000000D03*
X156950000Y-112000000D03*
X157600000Y-112000000D03*
X158250000Y-112000000D03*
%TD*%
D33*
%TO.C,R21*%
X161050000Y-115427500D03*
X161050000Y-116447500D03*
%TD*%
D17*
%TO.C,C4*%
X144121573Y-103341573D03*
X144121573Y-104301573D03*
%TD*%
D34*
%TO.C,D8*%
X152509073Y-94621573D03*
X150934073Y-94621573D03*
%TD*%
D33*
%TO.C,R19*%
X154800000Y-115427500D03*
X154800000Y-116447500D03*
%TD*%
D34*
%TO.C,D2*%
X144587500Y-120200000D03*
X143012500Y-120200000D03*
%TD*%
D35*
%TO.C,F2*%
X142125000Y-100221573D03*
X143875000Y-100221573D03*
%TD*%
D36*
%TO.C,SW1*%
X177950000Y-119400000D03*
X170940000Y-119400000D03*
D37*
X176700000Y-121890000D03*
X172200000Y-121890000D03*
%TD*%
D38*
%TO.C,C9*%
X167339411Y-106339411D03*
X166660589Y-105660589D03*
%TD*%
D39*
%TO.C,J6*%
X177400000Y-111280000D03*
D40*
X174860000Y-111280000D03*
X177400000Y-108740000D03*
X174860000Y-108740000D03*
X177400000Y-106200000D03*
X174860000Y-106200000D03*
%TD*%
D41*
%TO.C,J3*%
X155000000Y-75896573D03*
D42*
X157500000Y-75896573D03*
X160000000Y-75896573D03*
X162500000Y-75896573D03*
X165000000Y-75896573D03*
%TD*%
D43*
%TO.C,C7*%
X173060589Y-94860589D03*
X173739411Y-95539411D03*
%TD*%
D41*
%TO.C,J4*%
X148600000Y-120200000D03*
D42*
X151100000Y-120200000D03*
X153600000Y-120200000D03*
X156100000Y-120200000D03*
X158600000Y-120200000D03*
X161100000Y-120200000D03*
X163600000Y-120200000D03*
X166100000Y-120200000D03*
%TD*%
D44*
%TO.C,U5*%
X163614897Y-100025305D03*
X164180583Y-100590990D03*
X164746268Y-101156676D03*
X165311953Y-101722361D03*
X165877639Y-102288047D03*
X166443324Y-102853732D03*
X167009010Y-103419417D03*
X167574695Y-103985103D03*
D45*
X169625305Y-103985103D03*
X170190990Y-103419417D03*
X170756676Y-102853732D03*
X171322361Y-102288047D03*
X171888047Y-101722361D03*
X172453732Y-101156676D03*
X173019417Y-100590990D03*
X173585103Y-100025305D03*
D44*
X173585103Y-97974695D03*
X173019417Y-97409010D03*
X172453732Y-96843324D03*
X171888047Y-96277639D03*
X171322361Y-95711953D03*
X170756676Y-95146268D03*
X170190990Y-94580583D03*
X169625305Y-94014897D03*
D45*
X167574695Y-94014897D03*
X167009010Y-94580583D03*
X166443324Y-95146268D03*
X165877639Y-95711953D03*
X165311953Y-96277639D03*
X164746268Y-96843324D03*
X164180583Y-97409010D03*
X163614897Y-97974695D03*
%TD*%
D46*
%TO.C,C16*%
X141521573Y-88501573D03*
X141521573Y-87541573D03*
%TD*%
D29*
%TO.C,R7*%
X166650000Y-116447500D03*
X166650000Y-115427500D03*
%TD*%
%TO.C,R14*%
X174000000Y-114710000D03*
X174000000Y-113690000D03*
%TD*%
D33*
%TO.C,R20*%
X158650000Y-115427500D03*
X158650000Y-116447500D03*
%TD*%
D47*
%TO.C,U2*%
X144984073Y-108471573D03*
X144984073Y-109421573D03*
X144984073Y-110371573D03*
X147259073Y-110371573D03*
X147259073Y-109421573D03*
X147259073Y-108471573D03*
%TD*%
D33*
%TO.C,R18*%
X156250000Y-115427500D03*
X156250000Y-116447500D03*
%TD*%
D34*
%TO.C,D3*%
X144587500Y-116400000D03*
X143012500Y-116400000D03*
%TD*%
D16*
%TO.C,H4*%
X182600000Y-121200000D03*
%TD*%
D29*
%TO.C,R4*%
X141400000Y-119510000D03*
X141400000Y-118490000D03*
%TD*%
D33*
%TO.C,R9*%
X154521573Y-94711573D03*
X154521573Y-95731573D03*
%TD*%
D48*
%TO.C,FB2*%
X142921573Y-104306573D03*
X142921573Y-103336573D03*
%TD*%
D49*
%TO.C,Q3*%
X171462500Y-86300000D03*
X171462500Y-88200000D03*
X173337500Y-87250000D03*
%TD*%
D50*
%TO.C,Y2*%
X165778858Y-106976777D03*
X164223223Y-105421142D03*
X163021142Y-106623223D03*
X164576777Y-108178858D03*
%TD*%
D51*
%TO.C,D6*%
X146000000Y-96950000D03*
X146000000Y-100250000D03*
%TD*%
D52*
%TO.C,C2*%
X154280000Y-114000000D03*
X153320000Y-114000000D03*
%TD*%
D53*
%TO.C,C12*%
X150225000Y-114200000D03*
X151775000Y-114200000D03*
%TD*%
D52*
%TO.C,C5*%
X143680000Y-102021573D03*
X142720000Y-102021573D03*
%TD*%
D16*
%TO.C,H1*%
X137400000Y-76000000D03*
%TD*%
D11*
%TO.C,R17*%
X179000000Y-94200000D03*
X177980000Y-94200000D03*
%TD*%
D43*
%TO.C,C8*%
X164860589Y-103860589D03*
X165539411Y-104539411D03*
%TD*%
D33*
%TO.C,R2*%
X142921573Y-105711573D03*
X142921573Y-106731573D03*
%TD*%
D16*
%TO.C,H2*%
X137400000Y-121200000D03*
%TD*%
D33*
%TO.C,R6*%
X171600000Y-114990000D03*
X171600000Y-116010000D03*
%TD*%
D19*
%TO.C,R15*%
X154290000Y-84000000D03*
X155310000Y-84000000D03*
%TD*%
%TO.C,R8*%
X140290000Y-114200000D03*
X141310000Y-114200000D03*
%TD*%
D38*
%TO.C,C6*%
X164139411Y-103139411D03*
X163460589Y-102460589D03*
%TD*%
D33*
%TO.C,R22*%
X163650000Y-115427500D03*
X163650000Y-116447500D03*
%TD*%
D54*
%TO.C,D7*%
X146971573Y-94621573D03*
X143671573Y-94621573D03*
%TD*%
M02*
