M48
; DRILL file {KiCad 8.0.8-8.0.8-0~ubuntu24.04.1} date 2025-02-01T12:16:23-0700
; FORMAT={-:-/ absolute / metric / decimal}
; #@! TF.CreationDate,2025-02-01T12:16:23-07:00
; #@! TF.GenerationSoftware,Kicad,Pcbnew,8.0.8-8.0.8-0~ubuntu24.04.1
; #@! TF.FileFunction,Plated,1,4,PTH
FMAT,2
METRIC
; #@! TA.AperFunction,Plated,PTH,ViaDrill
T1C0.300
; #@! TA.AperFunction,Plated,PTH,ComponentDrill
T2C0.600
; #@! TA.AperFunction,Plated,PTH,ComponentDrill
T3C0.750
; #@! TA.AperFunction,Plated,PTH,ComponentDrill
T4C0.950
; #@! TA.AperFunction,Plated,PTH,ComponentDrill
T5C0.990
; #@! TA.AperFunction,Plated,PTH,ComponentDrill
T6C1.000
; #@! TA.AperFunction,Plated,PTH,ComponentDrill
T7C1.300
; #@! TA.AperFunction,Plated,PTH,ComponentDrill
T8C2.200
%
G90
G05
T1
X136.0Y-98.2
X136.0Y-101.0
X141.6Y-104.2
X142.2Y-114.2
X142.6Y-112.6
X143.6Y-105.8
X143.8Y-109.2
X144.8Y-103.4
X145.8Y-89.2
X145.8Y-116.4
X145.8Y-120.0
X146.0Y-98.2
X149.0Y-94.622
X150.44Y-115.24
X151.0Y-95.8
X151.8Y-106.2
X152.0Y-110.6
X154.0Y-86.0
X154.0Y-87.0
X154.0Y-88.0
X154.0Y-89.0
X154.0Y-90.0
X154.0Y-91.0
X154.0Y-92.0
X154.0Y-93.0
X154.0Y-103.0
X154.2Y-110.4
X154.248Y-106.057
X154.5Y-83.0
X155.0Y-86.0
X155.0Y-87.0
X155.0Y-88.0
X155.0Y-89.0
X155.0Y-90.0
X155.0Y-91.0
X155.0Y-92.0
X155.0Y-93.0
X155.2Y-110.4
X155.2Y-114.0
X155.5Y-96.5
X155.65Y-106.29
X156.0Y-86.0
X156.0Y-87.0
X156.0Y-88.0
X156.0Y-89.0
X156.0Y-90.0
X156.0Y-91.0
X156.0Y-92.0
X156.0Y-93.0
X156.4Y-110.6
X156.573Y-114.573
X157.0Y-86.0
X157.0Y-87.0
X157.0Y-88.0
X157.0Y-89.0
X157.0Y-90.0
X157.0Y-91.0
X157.0Y-92.0
X157.0Y-93.0
X157.0Y-106.5
X159.0Y-112.5
X162.0Y-97.5
X163.5Y-104.0
X166.0Y-100.5
X166.5Y-97.5
X167.0Y-101.5
X167.5Y-107.5
X168.0Y-96.5
X168.5Y-113.5
X169.5Y-101.0
X170.5Y-96.5
X170.5Y-100.5
X171.0Y-98.0
X171.0Y-99.0
X171.981Y-98.093
X172.0Y-90.5
X172.15Y-104.75
X172.5Y-116.0
X173.0Y-90.5
X174.0Y-86.0
X175.0Y-87.5
X175.0Y-115.0
X175.5Y-91.5
X177.0Y-90.0
X179.0Y-102.5
X179.35Y-105.0
T3
X183.4Y-88.2
X183.4Y-90.2
X183.4Y-92.2
X183.4Y-94.2
X183.4Y-103.6
X183.4Y-105.6
X183.4Y-107.6
X183.4Y-109.6
T4
X148.6Y-120.2
X151.1Y-120.2
X153.6Y-120.2
X155.0Y-75.897
X156.1Y-120.2
X157.5Y-75.897
X158.6Y-120.2
X160.0Y-75.897
X161.1Y-120.2
X162.5Y-75.897
X163.6Y-120.2
X165.0Y-75.897
X166.1Y-120.2
T5
X172.2Y-121.89
X176.7Y-121.89
T6
X161.0Y-85.0
X161.0Y-92.6
X174.86Y-106.2
X174.86Y-108.74
X174.86Y-111.28
X177.4Y-106.2
X177.4Y-108.74
X177.4Y-111.28
T7
X143.4Y-77.695
X148.48Y-77.695
X170.94Y-119.4
X171.465Y-77.695
X176.545Y-77.695
X177.95Y-119.4
T8
X137.4Y-76.0
X137.4Y-121.2
X182.6Y-76.0
X182.6Y-121.2
T2
G00X135.972Y-103.772
M15
G01X135.372Y-103.772
M16
G05
G00X135.972Y-112.412
M15
G01X135.372Y-112.412
M16
G05
G00X140.402Y-103.772
M15
G01X139.302Y-103.772
M16
G05
G00X140.402Y-112.412
M15
G01X139.302Y-112.412
M16
G05
M30
