%TF.GenerationSoftware,KiCad,Pcbnew,8.0.8-8.0.8-0~ubuntu24.04.1*%
%TF.CreationDate,2025-02-01T12:16:17-07:00*%
%TF.ProjectId,Control Board,436f6e74-726f-46c2-9042-6f6172642e6b,rev?*%
%TF.SameCoordinates,Original*%
%TF.FileFunction,Copper,L3,Inr*%
%TF.FilePolarity,Positive*%
%FSLAX46Y46*%
G04 Gerber Fmt 4.6, Leading zero omitted, Abs format (unit mm)*
G04 Created by KiCad (PCBNEW 8.0.8-8.0.8-0~ubuntu24.04.1) date 2025-02-01 12:16:17*
%MOMM*%
%LPD*%
G01*
G04 APERTURE LIST*
G04 Aperture macros list*
%AMRoundRect*
0 Rectangle with rounded corners*
0 $1 Rounding radius*
0 $2 $3 $4 $5 $6 $7 $8 $9 X,Y pos of 4 corners*
0 Add a 4 corners polygon primitive as box body*
4,1,4,$2,$3,$4,$5,$6,$7,$8,$9,$2,$3,0*
0 Add four circle primitives for the rounded corners*
1,1,$1+$1,$2,$3*
1,1,$1+$1,$4,$5*
1,1,$1+$1,$6,$7*
1,1,$1+$1,$8,$9*
0 Add four rect primitives between the rounded corners*
20,1,$1+$1,$2,$3,$4,$5,0*
20,1,$1+$1,$4,$5,$6,$7,0*
20,1,$1+$1,$6,$7,$8,$9,0*
20,1,$1+$1,$8,$9,$2,$3,0*%
G04 Aperture macros list end*
%TA.AperFunction,ComponentPad*%
%ADD10R,2.600000X2.600000*%
%TD*%
%TA.AperFunction,ComponentPad*%
%ADD11C,2.600000*%
%TD*%
%TA.AperFunction,ComponentPad*%
%ADD12RoundRect,0.250000X-0.625000X0.350000X-0.625000X-0.350000X0.625000X-0.350000X0.625000X0.350000X0*%
%TD*%
%TA.AperFunction,ComponentPad*%
%ADD13O,1.750000X1.200000*%
%TD*%
%TA.AperFunction,ComponentPad*%
%ADD14C,4.400000*%
%TD*%
%TA.AperFunction,HeatsinkPad*%
%ADD15O,2.100000X1.000000*%
%TD*%
%TA.AperFunction,HeatsinkPad*%
%ADD16O,1.600000X1.000000*%
%TD*%
%TA.AperFunction,ComponentPad*%
%ADD17R,2.000000X2.000000*%
%TD*%
%TA.AperFunction,ComponentPad*%
%ADD18C,2.000000*%
%TD*%
%TA.AperFunction,ComponentPad*%
%ADD19C,2.100000*%
%TD*%
%TA.AperFunction,ComponentPad*%
%ADD20C,1.750000*%
%TD*%
%TA.AperFunction,ComponentPad*%
%ADD21R,1.700000X1.700000*%
%TD*%
%TA.AperFunction,ComponentPad*%
%ADD22O,1.700000X1.700000*%
%TD*%
%TA.AperFunction,ComponentPad*%
%ADD23RoundRect,0.250000X-0.600000X-0.725000X0.600000X-0.725000X0.600000X0.725000X-0.600000X0.725000X0*%
%TD*%
%TA.AperFunction,ComponentPad*%
%ADD24O,1.700000X1.950000*%
%TD*%
%TA.AperFunction,ViaPad*%
%ADD25C,0.600000*%
%TD*%
G04 APERTURE END LIST*
D10*
%TO.N,GND*%
%TO.C,J1*%
X148480000Y-77695000D03*
D11*
%TO.N,+9V*%
X143400000Y-77695000D03*
%TD*%
D12*
%TO.N,BTN2*%
%TO.C,J7*%
X183400000Y-103600000D03*
D13*
%TO.N,GND*%
X183400000Y-105600000D03*
%TO.N,BTN1*%
X183400000Y-107600000D03*
%TO.N,GND*%
X183400000Y-109600000D03*
%TD*%
D14*
%TO.N,GND*%
%TO.C,H3*%
X182600000Y-76000000D03*
%TD*%
D15*
%TO.N,Net-(J2-SHIELD)*%
%TO.C,J2*%
X139851573Y-103771573D03*
D16*
X135671573Y-103771573D03*
D15*
X139851573Y-112411573D03*
D16*
X135671573Y-112411573D03*
%TD*%
D12*
%TO.N,HI_HEAT_LED*%
%TO.C,J5*%
X183400000Y-88200000D03*
D13*
%TO.N,HI_HEAT_K*%
X183400000Y-90200000D03*
%TO.N,+9V*%
X183400000Y-92200000D03*
%TO.N,/Connectors/SSR1_LED_K*%
X183400000Y-94200000D03*
%TD*%
D10*
%TO.N,+9V*%
%TO.C,J8*%
X176545000Y-77695000D03*
D11*
%TO.N,Net-(J8-Pin_2)*%
X171465000Y-77695000D03*
%TD*%
D17*
%TO.N,/Microcontroller/BUZZER*%
%TO.C,BZ1*%
X161000000Y-92600000D03*
D18*
%TO.N,Net-(BZ1--)*%
X161000000Y-85000000D03*
%TD*%
D19*
%TO.N,*%
%TO.C,SW1*%
X177950000Y-119400000D03*
X170940000Y-119400000D03*
D20*
%TO.N,GND*%
X176700000Y-121890000D03*
%TO.N,AVR_RST*%
X172200000Y-121890000D03*
%TD*%
D21*
%TO.N,TC_DAT*%
%TO.C,J6*%
X177400000Y-111280000D03*
D22*
%TO.N,VCC*%
X174860000Y-111280000D03*
%TO.N,ICSP_13*%
X177400000Y-108740000D03*
%TO.N,TC_CS*%
X174860000Y-108740000D03*
%TO.N,AVR_RST*%
X177400000Y-106200000D03*
%TO.N,GND*%
X174860000Y-106200000D03*
%TD*%
D23*
%TO.N,GND*%
%TO.C,J3*%
X155000000Y-75896573D03*
D24*
%TO.N,VCC*%
X157500000Y-75896573D03*
%TO.N,TC_CLK*%
X160000000Y-75896573D03*
%TO.N,TC_CS*%
X162500000Y-75896573D03*
%TO.N,TC_DAT*%
X165000000Y-75896573D03*
%TD*%
D23*
%TO.N,VCC*%
%TO.C,J4*%
X148600000Y-120200000D03*
D24*
%TO.N,GND*%
X151100000Y-120200000D03*
%TO.N,LCD_CS*%
X153600000Y-120200000D03*
%TO.N,LCD_RST*%
X156100000Y-120200000D03*
%TO.N,LCD_DC*%
X158600000Y-120200000D03*
%TO.N,LCD_DIN*%
X161100000Y-120200000D03*
%TO.N,LCD_CLK*%
X163600000Y-120200000D03*
%TO.N,/Connectors/LCD_BL*%
X166100000Y-120200000D03*
%TD*%
D14*
%TO.N,GND*%
%TO.C,H4*%
X182600000Y-121200000D03*
%TD*%
%TO.N,GND*%
%TO.C,H1*%
X137400000Y-76000000D03*
%TD*%
%TO.N,GND*%
%TO.C,H2*%
X137400000Y-121200000D03*
%TD*%
D25*
%TO.N,GND*%
X154000000Y-103000000D03*
X155000000Y-93000000D03*
X156000000Y-93000000D03*
X154000000Y-93000000D03*
X157000000Y-92000000D03*
X157000000Y-93000000D03*
X155000000Y-92000000D03*
X156000000Y-92000000D03*
X154000000Y-92000000D03*
X155000000Y-91000000D03*
X155000000Y-90000000D03*
X156000000Y-90000000D03*
X157000000Y-91000000D03*
X154000000Y-90000000D03*
X157000000Y-89000000D03*
X157000000Y-90000000D03*
X155000000Y-89000000D03*
X154000000Y-91000000D03*
X156000000Y-89000000D03*
X156000000Y-91000000D03*
X154000000Y-89000000D03*
X157000000Y-88000000D03*
X156000000Y-88000000D03*
X155000000Y-88000000D03*
X154000000Y-88000000D03*
X157000000Y-87000000D03*
X156000000Y-87000000D03*
X155000000Y-87000000D03*
X154000000Y-87000000D03*
X157000000Y-86000000D03*
X156000000Y-86000000D03*
X155000000Y-86000000D03*
X154000000Y-86000000D03*
X154500000Y-83000000D03*
%TO.N,TC_CLK*%
X169500000Y-101000000D03*
%TO.N,TC_CS*%
X171000000Y-99000000D03*
%TO.N,TC_DAT*%
X171000000Y-98000000D03*
%TO.N,Net-(J8-Pin_2)*%
X174000000Y-86000000D03*
X175500000Y-91500000D03*
%TO.N,GND*%
X175000000Y-87500000D03*
%TO.N,AVR_RST*%
X166500000Y-97500000D03*
%TO.N,IDE_A3*%
X168000000Y-96500000D03*
X172150000Y-104750000D03*
%TO.N,GND*%
X172500000Y-116000000D03*
X168500000Y-113500000D03*
%TO.N,AVR_SSR1*%
X170500000Y-100500000D03*
X172000000Y-90500000D03*
%TO.N,GND*%
X173000000Y-90500000D03*
X177000000Y-90000000D03*
X155500000Y-96500000D03*
%TO.N,VCC*%
X171980655Y-98092982D03*
X166000000Y-100500000D03*
%TO.N,GND*%
X170500000Y-96500000D03*
X167000000Y-101500000D03*
X163500000Y-104000000D03*
X167500000Y-107500000D03*
%TO.N,Net-(U5-PD3)*%
X156573370Y-114573370D03*
X159000000Y-112500000D03*
%TO.N,/Microcontroller/BUZZER*%
X162000000Y-97500000D03*
%TO.N,/Microcontroller/AVR_TX*%
X155650000Y-106290380D03*
X157000000Y-106500000D03*
%TO.N,AVR_RST*%
X175000000Y-115000000D03*
%TO.N,ICSP_13*%
X179000000Y-102500000D03*
X179350000Y-105000000D03*
%TO.N,GND*%
X142600000Y-112600000D03*
X141600000Y-104200000D03*
X150440380Y-115240380D03*
X136000000Y-98200000D03*
X145800000Y-89200000D03*
X143600000Y-105800000D03*
X152000000Y-110600000D03*
X154247972Y-106056694D03*
X156400000Y-110600000D03*
X142200000Y-114200000D03*
X155200000Y-114000000D03*
X151800000Y-106200000D03*
X136000000Y-101000000D03*
X143800000Y-109200000D03*
X144800000Y-103400000D03*
%TO.N,VCC*%
X151000000Y-95800000D03*
X149000000Y-94621573D03*
X146000000Y-98200000D03*
%TO.N,/Microcontroller/TXL_K*%
X155200000Y-110400000D03*
X145800000Y-120000000D03*
%TO.N,/Microcontroller/RXL_K*%
X154200000Y-110400000D03*
X145800000Y-116400000D03*
%TD*%
%TA.AperFunction,Conductor*%
%TO.N,VCC*%
G36*
X183003471Y-72850695D02*
G01*
X183044188Y-72852981D01*
X183300900Y-72867397D01*
X183314703Y-72868953D01*
X183604953Y-72918269D01*
X183618510Y-72921363D01*
X183901413Y-73002866D01*
X183914537Y-73007459D01*
X184186527Y-73120120D01*
X184199049Y-73126149D01*
X184397673Y-73235925D01*
X184456726Y-73268563D01*
X184468500Y-73275961D01*
X184708604Y-73446323D01*
X184719476Y-73454993D01*
X184938997Y-73651169D01*
X184948830Y-73661002D01*
X185145006Y-73880523D01*
X185153676Y-73891395D01*
X185324038Y-74131499D01*
X185331436Y-74143273D01*
X185473846Y-74400943D01*
X185479879Y-74413472D01*
X185592540Y-74685462D01*
X185597133Y-74698586D01*
X185678636Y-74981489D01*
X185681730Y-74995046D01*
X185731045Y-75285288D01*
X185732602Y-75299106D01*
X185749305Y-75596527D01*
X185749500Y-75603480D01*
X185749500Y-121596519D01*
X185749305Y-121603472D01*
X185732602Y-121900893D01*
X185731045Y-121914711D01*
X185681730Y-122204953D01*
X185678636Y-122218510D01*
X185597133Y-122501413D01*
X185592540Y-122514537D01*
X185479879Y-122786527D01*
X185473846Y-122799056D01*
X185331436Y-123056726D01*
X185324038Y-123068500D01*
X185153676Y-123308604D01*
X185145006Y-123319476D01*
X184948830Y-123538997D01*
X184938997Y-123548830D01*
X184719476Y-123745006D01*
X184708604Y-123753676D01*
X184468500Y-123924038D01*
X184456726Y-123931436D01*
X184199056Y-124073846D01*
X184186527Y-124079879D01*
X183914537Y-124192540D01*
X183901413Y-124197133D01*
X183618510Y-124278636D01*
X183604953Y-124281730D01*
X183314711Y-124331045D01*
X183300893Y-124332602D01*
X183003472Y-124349305D01*
X182996519Y-124349500D01*
X137003481Y-124349500D01*
X136996528Y-124349305D01*
X136699106Y-124332602D01*
X136685288Y-124331045D01*
X136395046Y-124281730D01*
X136381489Y-124278636D01*
X136098586Y-124197133D01*
X136085462Y-124192540D01*
X135813472Y-124079879D01*
X135800943Y-124073846D01*
X135543273Y-123931436D01*
X135531499Y-123924038D01*
X135291395Y-123753676D01*
X135280523Y-123745006D01*
X135061002Y-123548830D01*
X135051169Y-123538997D01*
X134902627Y-123372779D01*
X134854993Y-123319476D01*
X134846323Y-123308604D01*
X134675961Y-123068500D01*
X134668563Y-123056726D01*
X134607792Y-122946770D01*
X134526149Y-122799049D01*
X134520120Y-122786527D01*
X134407459Y-122514537D01*
X134402866Y-122501413D01*
X134321363Y-122218510D01*
X134318269Y-122204953D01*
X134268954Y-121914711D01*
X134267397Y-121900900D01*
X134250695Y-121603471D01*
X134250500Y-121596519D01*
X134250500Y-121199994D01*
X134894556Y-121199994D01*
X134894556Y-121200005D01*
X134914310Y-121514004D01*
X134914311Y-121514011D01*
X134973270Y-121823083D01*
X135070497Y-122122316D01*
X135070499Y-122122321D01*
X135204461Y-122407003D01*
X135204464Y-122407009D01*
X135373051Y-122672661D01*
X135373054Y-122672665D01*
X135573606Y-122915090D01*
X135573608Y-122915092D01*
X135573610Y-122915094D01*
X135607342Y-122946770D01*
X135802968Y-123130476D01*
X135802978Y-123130484D01*
X136057504Y-123315408D01*
X136057509Y-123315410D01*
X136057516Y-123315416D01*
X136333234Y-123466994D01*
X136333239Y-123466996D01*
X136333241Y-123466997D01*
X136333242Y-123466998D01*
X136625771Y-123582818D01*
X136625774Y-123582819D01*
X136881247Y-123648413D01*
X136930527Y-123661066D01*
X136996010Y-123669338D01*
X137242670Y-123700499D01*
X137242679Y-123700499D01*
X137242682Y-123700500D01*
X137242684Y-123700500D01*
X137557316Y-123700500D01*
X137557318Y-123700500D01*
X137557321Y-123700499D01*
X137557329Y-123700499D01*
X137743593Y-123676968D01*
X137869473Y-123661066D01*
X138174225Y-123582819D01*
X138260072Y-123548830D01*
X138466757Y-123466998D01*
X138466758Y-123466997D01*
X138466756Y-123466997D01*
X138466766Y-123466994D01*
X138742484Y-123315416D01*
X138997030Y-123130478D01*
X139226390Y-122915094D01*
X139426947Y-122672663D01*
X139595537Y-122407007D01*
X139729503Y-122122315D01*
X139804987Y-121889999D01*
X171019464Y-121889999D01*
X171019464Y-121890000D01*
X171039564Y-122106918D01*
X171039564Y-122106920D01*
X171039565Y-122106923D01*
X171067457Y-122204953D01*
X171099184Y-122316462D01*
X171161917Y-122442446D01*
X171196288Y-122511472D01*
X171327573Y-122685322D01*
X171488568Y-122832088D01*
X171488575Y-122832092D01*
X171488576Y-122832093D01*
X171673786Y-122946770D01*
X171673792Y-122946773D01*
X171696664Y-122955633D01*
X171876931Y-123025470D01*
X172091074Y-123065500D01*
X172091076Y-123065500D01*
X172308924Y-123065500D01*
X172308926Y-123065500D01*
X172523069Y-123025470D01*
X172726210Y-122946772D01*
X172911432Y-122832088D01*
X173072427Y-122685322D01*
X173203712Y-122511472D01*
X173300817Y-122316459D01*
X173360435Y-122106923D01*
X173380536Y-121890000D01*
X173380536Y-121889999D01*
X175519464Y-121889999D01*
X175519464Y-121890000D01*
X175539564Y-122106918D01*
X175539564Y-122106920D01*
X175539565Y-122106923D01*
X175567457Y-122204953D01*
X175599184Y-122316462D01*
X175661917Y-122442446D01*
X175696288Y-122511472D01*
X175827573Y-122685322D01*
X175988568Y-122832088D01*
X175988575Y-122832092D01*
X175988576Y-122832093D01*
X176173786Y-122946770D01*
X176173792Y-122946773D01*
X176196664Y-122955633D01*
X176376931Y-123025470D01*
X176591074Y-123065500D01*
X176591076Y-123065500D01*
X176808924Y-123065500D01*
X176808926Y-123065500D01*
X177023069Y-123025470D01*
X177226210Y-122946772D01*
X177411432Y-122832088D01*
X177572427Y-122685322D01*
X177703712Y-122511472D01*
X177800817Y-122316459D01*
X177860435Y-122106923D01*
X177880536Y-121890000D01*
X177860435Y-121673077D01*
X177800817Y-121463541D01*
X177703712Y-121268528D01*
X177651958Y-121199994D01*
X180094556Y-121199994D01*
X180094556Y-121200005D01*
X180114310Y-121514004D01*
X180114311Y-121514011D01*
X180173270Y-121823083D01*
X180270497Y-122122316D01*
X180270499Y-122122321D01*
X180404461Y-122407003D01*
X180404464Y-122407009D01*
X180573051Y-122672661D01*
X180573054Y-122672665D01*
X180773606Y-122915090D01*
X180773608Y-122915092D01*
X180773610Y-122915094D01*
X180807342Y-122946770D01*
X181002968Y-123130476D01*
X181002978Y-123130484D01*
X181257504Y-123315408D01*
X181257509Y-123315410D01*
X181257516Y-123315416D01*
X181533234Y-123466994D01*
X181533239Y-123466996D01*
X181533241Y-123466997D01*
X181533242Y-123466998D01*
X181825771Y-123582818D01*
X181825774Y-123582819D01*
X182081247Y-123648413D01*
X182130527Y-123661066D01*
X182196010Y-123669338D01*
X182442670Y-123700499D01*
X182442679Y-123700499D01*
X182442682Y-123700500D01*
X182442684Y-123700500D01*
X182757316Y-123700500D01*
X182757318Y-123700500D01*
X182757321Y-123700499D01*
X182757329Y-123700499D01*
X182943593Y-123676968D01*
X183069473Y-123661066D01*
X183374225Y-123582819D01*
X183460072Y-123548830D01*
X183666757Y-123466998D01*
X183666758Y-123466997D01*
X183666756Y-123466997D01*
X183666766Y-123466994D01*
X183942484Y-123315416D01*
X184197030Y-123130478D01*
X184426390Y-122915094D01*
X184626947Y-122672663D01*
X184795537Y-122407007D01*
X184929503Y-122122315D01*
X185026731Y-121823079D01*
X185085688Y-121514015D01*
X185088864Y-121463537D01*
X185105444Y-121200005D01*
X185105444Y-121199994D01*
X185085689Y-120885995D01*
X185085688Y-120885988D01*
X185085688Y-120885985D01*
X185026731Y-120576921D01*
X184929503Y-120277685D01*
X184926546Y-120271402D01*
X184806672Y-120016657D01*
X184795537Y-119992993D01*
X184713457Y-119863655D01*
X184626948Y-119727338D01*
X184626945Y-119727334D01*
X184426393Y-119484909D01*
X184426391Y-119484907D01*
X184335975Y-119400000D01*
X184197030Y-119269522D01*
X184197027Y-119269520D01*
X184197021Y-119269515D01*
X183942495Y-119084591D01*
X183942488Y-119084586D01*
X183942484Y-119084584D01*
X183666766Y-118933006D01*
X183666763Y-118933004D01*
X183666758Y-118933002D01*
X183666757Y-118933001D01*
X183374228Y-118817181D01*
X183374225Y-118817180D01*
X183069476Y-118738934D01*
X183069463Y-118738932D01*
X182757329Y-118699500D01*
X182757318Y-118699500D01*
X182442682Y-118699500D01*
X182442670Y-118699500D01*
X182130536Y-118738932D01*
X182130523Y-118738934D01*
X181825774Y-118817180D01*
X181825771Y-118817181D01*
X181533242Y-118933001D01*
X181533241Y-118933002D01*
X181257516Y-119084584D01*
X181257504Y-119084591D01*
X181002978Y-119269515D01*
X181002968Y-119269523D01*
X180773608Y-119484907D01*
X180773606Y-119484909D01*
X180573054Y-119727334D01*
X180573051Y-119727338D01*
X180404464Y-119992990D01*
X180404461Y-119992996D01*
X180270499Y-120277678D01*
X180270497Y-120277683D01*
X180173270Y-120576916D01*
X180114311Y-120885988D01*
X180114310Y-120885995D01*
X180094556Y-121199994D01*
X177651958Y-121199994D01*
X177572427Y-121094678D01*
X177550289Y-121074497D01*
X177411433Y-120947913D01*
X177411423Y-120947906D01*
X177226213Y-120833229D01*
X177226207Y-120833226D01*
X177141113Y-120800260D01*
X177023069Y-120754530D01*
X176808926Y-120714500D01*
X176591074Y-120714500D01*
X176376931Y-120754530D01*
X176328130Y-120773435D01*
X176173792Y-120833226D01*
X176173786Y-120833229D01*
X175988576Y-120947906D01*
X175988566Y-120947913D01*
X175827574Y-121094676D01*
X175696288Y-121268527D01*
X175599184Y-121463537D01*
X175539564Y-121673081D01*
X175519464Y-121889999D01*
X173380536Y-121889999D01*
X173360435Y-121673077D01*
X173300817Y-121463541D01*
X173203712Y-121268528D01*
X173072427Y-121094678D01*
X173050289Y-121074497D01*
X172911433Y-120947913D01*
X172911423Y-120947906D01*
X172726213Y-120833229D01*
X172726207Y-120833226D01*
X172641113Y-120800260D01*
X172523069Y-120754530D01*
X172308926Y-120714500D01*
X172091074Y-120714500D01*
X171876931Y-120754530D01*
X171828130Y-120773435D01*
X171673792Y-120833226D01*
X171673786Y-120833229D01*
X171488576Y-120947906D01*
X171488566Y-120947913D01*
X171327574Y-121094676D01*
X171196288Y-121268527D01*
X171099184Y-121463537D01*
X171039564Y-121673081D01*
X171019464Y-121889999D01*
X139804987Y-121889999D01*
X139826731Y-121823079D01*
X139885688Y-121514015D01*
X139888864Y-121463537D01*
X139905444Y-121200005D01*
X139905444Y-121199994D01*
X139885689Y-120885995D01*
X139885688Y-120885988D01*
X139885688Y-120885985D01*
X139826731Y-120576921D01*
X139729503Y-120277685D01*
X139726546Y-120271402D01*
X139606672Y-120016657D01*
X139598833Y-119999998D01*
X145194318Y-119999998D01*
X145194318Y-120000001D01*
X145214955Y-120156760D01*
X145214956Y-120156762D01*
X145262441Y-120271402D01*
X145275464Y-120302841D01*
X145371718Y-120428282D01*
X145497159Y-120524536D01*
X145643238Y-120585044D01*
X145714373Y-120594409D01*
X145799999Y-120605682D01*
X145800000Y-120605682D01*
X145800001Y-120605682D01*
X145852254Y-120598802D01*
X145956762Y-120585044D01*
X146102841Y-120524536D01*
X146228282Y-120428282D01*
X146324536Y-120302841D01*
X146385044Y-120156762D01*
X146405682Y-120000000D01*
X146403635Y-119984454D01*
X146385044Y-119843239D01*
X146385044Y-119843238D01*
X146324536Y-119697159D01*
X146228282Y-119571718D01*
X146102841Y-119475464D01*
X146047874Y-119452696D01*
X145981042Y-119425013D01*
X147250000Y-119425013D01*
X147250000Y-119950000D01*
X148195854Y-119950000D01*
X148157370Y-120016657D01*
X148125000Y-120137465D01*
X148125000Y-120262535D01*
X148157370Y-120383343D01*
X148195854Y-120450000D01*
X147250001Y-120450000D01*
X147250001Y-120974986D01*
X147260494Y-121077697D01*
X147315641Y-121244119D01*
X147315643Y-121244124D01*
X147407684Y-121393345D01*
X147531654Y-121517315D01*
X147680875Y-121609356D01*
X147680880Y-121609358D01*
X147847302Y-121664505D01*
X147847309Y-121664506D01*
X147950019Y-121674999D01*
X148349999Y-121674999D01*
X148350000Y-121674998D01*
X148350000Y-120604145D01*
X148416657Y-120642630D01*
X148537465Y-120675000D01*
X148662535Y-120675000D01*
X148783343Y-120642630D01*
X148850000Y-120604145D01*
X148850000Y-121674999D01*
X149249972Y-121674999D01*
X149249986Y-121674998D01*
X149352697Y-121664505D01*
X149519119Y-121609358D01*
X149519124Y-121609356D01*
X149668345Y-121517315D01*
X149792315Y-121393345D01*
X149884356Y-121244124D01*
X149884358Y-121244119D01*
X149939505Y-121077697D01*
X149939506Y-121077689D01*
X149941699Y-121056231D01*
X149968095Y-120991539D01*
X150025276Y-120951388D01*
X150095087Y-120948524D01*
X150155363Y-120983858D01*
X150165376Y-120995949D01*
X150222443Y-121074497D01*
X150350500Y-121202554D01*
X150350505Y-121202558D01*
X150441305Y-121268527D01*
X150497006Y-121308996D01*
X150602484Y-121362740D01*
X150658360Y-121391211D01*
X150658363Y-121391212D01*
X150744476Y-121419191D01*
X150830591Y-121447171D01*
X150913429Y-121460291D01*
X151009449Y-121475500D01*
X151009454Y-121475500D01*
X151190551Y-121475500D01*
X151277259Y-121461765D01*
X151369409Y-121447171D01*
X151541639Y-121391211D01*
X151702994Y-121308996D01*
X151849501Y-121202553D01*
X151977553Y-121074501D01*
X152083996Y-120927994D01*
X152166211Y-120766639D01*
X152222171Y-120594409D01*
X152227527Y-120560594D01*
X152257456Y-120497459D01*
X152316768Y-120460528D01*
X152386630Y-120461526D01*
X152444863Y-120500136D01*
X152472473Y-120560594D01*
X152477829Y-120594410D01*
X152533787Y-120766636D01*
X152533788Y-120766639D01*
X152616006Y-120927997D01*
X152722441Y-121074494D01*
X152722445Y-121074499D01*
X152850500Y-121202554D01*
X152850505Y-121202558D01*
X152941305Y-121268527D01*
X152997006Y-121308996D01*
X153102484Y-121362740D01*
X153158360Y-121391211D01*
X153158363Y-121391212D01*
X153244476Y-121419191D01*
X153330591Y-121447171D01*
X153413429Y-121460291D01*
X153509449Y-121475500D01*
X153509454Y-121475500D01*
X153690551Y-121475500D01*
X153777259Y-121461765D01*
X153869409Y-121447171D01*
X154041639Y-121391211D01*
X154202994Y-121308996D01*
X154349501Y-121202553D01*
X154477553Y-121074501D01*
X154583996Y-120927994D01*
X154666211Y-120766639D01*
X154722171Y-120594409D01*
X154727527Y-120560594D01*
X154757456Y-120497459D01*
X154816768Y-120460528D01*
X154886630Y-120461526D01*
X154944863Y-120500136D01*
X154972473Y-120560594D01*
X154977829Y-120594410D01*
X155033787Y-120766636D01*
X155033788Y-120766639D01*
X155116006Y-120927997D01*
X155222441Y-121074494D01*
X155222445Y-121074499D01*
X155350500Y-121202554D01*
X155350505Y-121202558D01*
X155441305Y-121268527D01*
X155497006Y-121308996D01*
X155602484Y-121362740D01*
X155658360Y-121391211D01*
X155658363Y-121391212D01*
X155744476Y-121419191D01*
X155830591Y-121447171D01*
X155913429Y-121460291D01*
X156009449Y-121475500D01*
X156009454Y-121475500D01*
X156190551Y-121475500D01*
X156277259Y-121461765D01*
X156369409Y-121447171D01*
X156541639Y-121391211D01*
X156702994Y-121308996D01*
X156849501Y-121202553D01*
X156977553Y-121074501D01*
X157083996Y-120927994D01*
X157166211Y-120766639D01*
X157222171Y-120594409D01*
X157227527Y-120560594D01*
X157257456Y-120497459D01*
X157316768Y-120460528D01*
X157386630Y-120461526D01*
X157444863Y-120500136D01*
X157472473Y-120560594D01*
X157477829Y-120594410D01*
X157533787Y-120766636D01*
X157533788Y-120766639D01*
X157616006Y-120927997D01*
X157722441Y-121074494D01*
X157722445Y-121074499D01*
X157850500Y-121202554D01*
X157850505Y-121202558D01*
X157941305Y-121268527D01*
X157997006Y-121308996D01*
X158102484Y-121362740D01*
X158158360Y-121391211D01*
X158158363Y-121391212D01*
X158244476Y-121419191D01*
X158330591Y-121447171D01*
X158413429Y-121460291D01*
X158509449Y-121475500D01*
X158509454Y-121475500D01*
X158690551Y-121475500D01*
X158777259Y-121461765D01*
X158869409Y-121447171D01*
X159041639Y-121391211D01*
X159202994Y-121308996D01*
X159349501Y-121202553D01*
X159477553Y-121074501D01*
X159583996Y-120927994D01*
X159666211Y-120766639D01*
X159722171Y-120594409D01*
X159727527Y-120560594D01*
X159757456Y-120497459D01*
X159816768Y-120460528D01*
X159886630Y-120461526D01*
X159944863Y-120500136D01*
X159972473Y-120560594D01*
X159977829Y-120594410D01*
X160033787Y-120766636D01*
X160033788Y-120766639D01*
X160116006Y-120927997D01*
X160222441Y-121074494D01*
X160222445Y-121074499D01*
X160350500Y-121202554D01*
X160350505Y-121202558D01*
X160441305Y-121268527D01*
X160497006Y-121308996D01*
X160602484Y-121362740D01*
X160658360Y-121391211D01*
X160658363Y-121391212D01*
X160744476Y-121419191D01*
X160830591Y-121447171D01*
X160913429Y-121460291D01*
X161009449Y-121475500D01*
X161009454Y-121475500D01*
X161190551Y-121475500D01*
X161277259Y-121461765D01*
X161369409Y-121447171D01*
X161541639Y-121391211D01*
X161702994Y-121308996D01*
X161849501Y-121202553D01*
X161977553Y-121074501D01*
X162083996Y-120927994D01*
X162166211Y-120766639D01*
X162222171Y-120594409D01*
X162227527Y-120560594D01*
X162257456Y-120497459D01*
X162316768Y-120460528D01*
X162386630Y-120461526D01*
X162444863Y-120500136D01*
X162472473Y-120560594D01*
X162477829Y-120594410D01*
X162533787Y-120766636D01*
X162533788Y-120766639D01*
X162616006Y-120927997D01*
X162722441Y-121074494D01*
X162722445Y-121074499D01*
X162850500Y-121202554D01*
X162850505Y-121202558D01*
X162941305Y-121268527D01*
X162997006Y-121308996D01*
X163102484Y-121362740D01*
X163158360Y-121391211D01*
X163158363Y-121391212D01*
X163244476Y-121419191D01*
X163330591Y-121447171D01*
X163413429Y-121460291D01*
X163509449Y-121475500D01*
X163509454Y-121475500D01*
X163690551Y-121475500D01*
X163777259Y-121461765D01*
X163869409Y-121447171D01*
X164041639Y-121391211D01*
X164202994Y-121308996D01*
X164349501Y-121202553D01*
X164477553Y-121074501D01*
X164583996Y-120927994D01*
X164666211Y-120766639D01*
X164722171Y-120594409D01*
X164727527Y-120560594D01*
X164757456Y-120497459D01*
X164816768Y-120460528D01*
X164886630Y-120461526D01*
X164944863Y-120500136D01*
X164972473Y-120560594D01*
X164977829Y-120594410D01*
X165033787Y-120766636D01*
X165033788Y-120766639D01*
X165116006Y-120927997D01*
X165222441Y-121074494D01*
X165222445Y-121074499D01*
X165350500Y-121202554D01*
X165350505Y-121202558D01*
X165441305Y-121268527D01*
X165497006Y-121308996D01*
X165602484Y-121362740D01*
X165658360Y-121391211D01*
X165658363Y-121391212D01*
X165744476Y-121419191D01*
X165830591Y-121447171D01*
X165913429Y-121460291D01*
X166009449Y-121475500D01*
X166009454Y-121475500D01*
X166190551Y-121475500D01*
X166277259Y-121461765D01*
X166369409Y-121447171D01*
X166541639Y-121391211D01*
X166702994Y-121308996D01*
X166849501Y-121202553D01*
X166977553Y-121074501D01*
X167083996Y-120927994D01*
X167166211Y-120766639D01*
X167222171Y-120594409D01*
X167243376Y-120460528D01*
X167250500Y-120415551D01*
X167250500Y-119984448D01*
X167231367Y-119863655D01*
X167222171Y-119805591D01*
X167166876Y-119635408D01*
X167166212Y-119633363D01*
X167166211Y-119633360D01*
X167090569Y-119484907D01*
X167083996Y-119472006D01*
X167031680Y-119399999D01*
X169584341Y-119399999D01*
X169584341Y-119400000D01*
X169604936Y-119635403D01*
X169604938Y-119635413D01*
X169666094Y-119863655D01*
X169666096Y-119863659D01*
X169666097Y-119863663D01*
X169765965Y-120077830D01*
X169765967Y-120077834D01*
X169874281Y-120232521D01*
X169901505Y-120271401D01*
X170068599Y-120438495D01*
X170101491Y-120461526D01*
X170262165Y-120574032D01*
X170262167Y-120574033D01*
X170262170Y-120574035D01*
X170476337Y-120673903D01*
X170704592Y-120735063D01*
X170892918Y-120751539D01*
X170939999Y-120755659D01*
X170940000Y-120755659D01*
X170940001Y-120755659D01*
X170979234Y-120752226D01*
X171175408Y-120735063D01*
X171403663Y-120673903D01*
X171617830Y-120574035D01*
X171811401Y-120438495D01*
X171978495Y-120271401D01*
X172114035Y-120077830D01*
X172213903Y-119863663D01*
X172275063Y-119635408D01*
X172295659Y-119400000D01*
X172295659Y-119399999D01*
X176594341Y-119399999D01*
X176594341Y-119400000D01*
X176614936Y-119635403D01*
X176614938Y-119635413D01*
X176676094Y-119863655D01*
X176676096Y-119863659D01*
X176676097Y-119863663D01*
X176775965Y-120077830D01*
X176775967Y-120077834D01*
X176884281Y-120232521D01*
X176911505Y-120271401D01*
X177078599Y-120438495D01*
X177111491Y-120461526D01*
X177272165Y-120574032D01*
X177272167Y-120574033D01*
X177272170Y-120574035D01*
X177486337Y-120673903D01*
X177714592Y-120735063D01*
X177902918Y-120751539D01*
X177949999Y-120755659D01*
X177950000Y-120755659D01*
X177950001Y-120755659D01*
X177989234Y-120752226D01*
X178185408Y-120735063D01*
X178413663Y-120673903D01*
X178627830Y-120574035D01*
X178821401Y-120438495D01*
X178988495Y-120271401D01*
X179124035Y-120077830D01*
X179223903Y-119863663D01*
X179285063Y-119635408D01*
X179305659Y-119400000D01*
X179285063Y-119164592D01*
X179223903Y-118936337D01*
X179124035Y-118722171D01*
X178988495Y-118528599D01*
X178988494Y-118528597D01*
X178821402Y-118361506D01*
X178821395Y-118361501D01*
X178627834Y-118225967D01*
X178627830Y-118225965D01*
X178627828Y-118225964D01*
X178413663Y-118126097D01*
X178413659Y-118126096D01*
X178413655Y-118126094D01*
X178185413Y-118064938D01*
X178185403Y-118064936D01*
X177950001Y-118044341D01*
X177949999Y-118044341D01*
X177714596Y-118064936D01*
X177714586Y-118064938D01*
X177486344Y-118126094D01*
X177486335Y-118126098D01*
X177272171Y-118225964D01*
X177272169Y-118225965D01*
X177078597Y-118361505D01*
X176911505Y-118528597D01*
X176775965Y-118722169D01*
X176775964Y-118722171D01*
X176676098Y-118936335D01*
X176676094Y-118936344D01*
X176614938Y-119164586D01*
X176614936Y-119164596D01*
X176594341Y-119399999D01*
X172295659Y-119399999D01*
X172275063Y-119164592D01*
X172213903Y-118936337D01*
X172114035Y-118722171D01*
X171978495Y-118528599D01*
X171978494Y-118528597D01*
X171811402Y-118361506D01*
X171811395Y-118361501D01*
X171617834Y-118225967D01*
X171617830Y-118225965D01*
X171617828Y-118225964D01*
X171403663Y-118126097D01*
X171403659Y-118126096D01*
X171403655Y-118126094D01*
X171175413Y-118064938D01*
X171175403Y-118064936D01*
X170940001Y-118044341D01*
X170939999Y-118044341D01*
X170704596Y-118064936D01*
X170704586Y-118064938D01*
X170476344Y-118126094D01*
X170476335Y-118126098D01*
X170262171Y-118225964D01*
X170262169Y-118225965D01*
X170068597Y-118361505D01*
X169901505Y-118528597D01*
X169765965Y-118722169D01*
X169765964Y-118722171D01*
X169666098Y-118936335D01*
X169666094Y-118936344D01*
X169604938Y-119164586D01*
X169604936Y-119164596D01*
X169584341Y-119399999D01*
X167031680Y-119399999D01*
X167027553Y-119394318D01*
X166977558Y-119325505D01*
X166977554Y-119325500D01*
X166849499Y-119197445D01*
X166849494Y-119197441D01*
X166702997Y-119091006D01*
X166702996Y-119091005D01*
X166702994Y-119091004D01*
X166651300Y-119064664D01*
X166541639Y-119008788D01*
X166541636Y-119008787D01*
X166369410Y-118952829D01*
X166190551Y-118924500D01*
X166190546Y-118924500D01*
X166009454Y-118924500D01*
X166009449Y-118924500D01*
X165830589Y-118952829D01*
X165658363Y-119008787D01*
X165658360Y-119008788D01*
X165497002Y-119091006D01*
X165350505Y-119197441D01*
X165350500Y-119197445D01*
X165222445Y-119325500D01*
X165222441Y-119325505D01*
X165116006Y-119472002D01*
X165033788Y-119633360D01*
X165033787Y-119633363D01*
X164977829Y-119805589D01*
X164972473Y-119839406D01*
X164942543Y-119902540D01*
X164883232Y-119939471D01*
X164813369Y-119938473D01*
X164755137Y-119899863D01*
X164727527Y-119839406D01*
X164724438Y-119819905D01*
X164722171Y-119805591D01*
X164666876Y-119635408D01*
X164666212Y-119633363D01*
X164666211Y-119633360D01*
X164590569Y-119484907D01*
X164583996Y-119472006D01*
X164527553Y-119394318D01*
X164477558Y-119325505D01*
X164477554Y-119325500D01*
X164349499Y-119197445D01*
X164349494Y-119197441D01*
X164202997Y-119091006D01*
X164202996Y-119091005D01*
X164202994Y-119091004D01*
X164151300Y-119064664D01*
X164041639Y-119008788D01*
X164041636Y-119008787D01*
X163869410Y-118952829D01*
X163690551Y-118924500D01*
X163690546Y-118924500D01*
X163509454Y-118924500D01*
X163509449Y-118924500D01*
X163330589Y-118952829D01*
X163158363Y-119008787D01*
X163158360Y-119008788D01*
X162997002Y-119091006D01*
X162850505Y-119197441D01*
X162850500Y-119197445D01*
X162722445Y-119325500D01*
X162722441Y-119325505D01*
X162616006Y-119472002D01*
X162533788Y-119633360D01*
X162533787Y-119633363D01*
X162477829Y-119805589D01*
X162472473Y-119839406D01*
X162442543Y-119902540D01*
X162383232Y-119939471D01*
X162313369Y-119938473D01*
X162255137Y-119899863D01*
X162227527Y-119839406D01*
X162224438Y-119819905D01*
X162222171Y-119805591D01*
X162166876Y-119635408D01*
X162166212Y-119633363D01*
X162166211Y-119633360D01*
X162090569Y-119484907D01*
X162083996Y-119472006D01*
X162027553Y-119394318D01*
X161977558Y-119325505D01*
X161977554Y-119325500D01*
X161849499Y-119197445D01*
X161849494Y-119197441D01*
X161702997Y-119091006D01*
X161702996Y-119091005D01*
X161702994Y-119091004D01*
X161651300Y-119064664D01*
X161541639Y-119008788D01*
X161541636Y-119008787D01*
X161369410Y-118952829D01*
X161190551Y-118924500D01*
X161190546Y-118924500D01*
X161009454Y-118924500D01*
X161009449Y-118924500D01*
X160830589Y-118952829D01*
X160658363Y-119008787D01*
X160658360Y-119008788D01*
X160497002Y-119091006D01*
X160350505Y-119197441D01*
X160350500Y-119197445D01*
X160222445Y-119325500D01*
X160222441Y-119325505D01*
X160116006Y-119472002D01*
X160033788Y-119633360D01*
X160033787Y-119633363D01*
X159977829Y-119805589D01*
X159972473Y-119839406D01*
X159942543Y-119902540D01*
X159883232Y-119939471D01*
X159813369Y-119938473D01*
X159755137Y-119899863D01*
X159727527Y-119839406D01*
X159724438Y-119819905D01*
X159722171Y-119805591D01*
X159666876Y-119635408D01*
X159666212Y-119633363D01*
X159666211Y-119633360D01*
X159590569Y-119484907D01*
X159583996Y-119472006D01*
X159527553Y-119394318D01*
X159477558Y-119325505D01*
X159477554Y-119325500D01*
X159349499Y-119197445D01*
X159349494Y-119197441D01*
X159202997Y-119091006D01*
X159202996Y-119091005D01*
X159202994Y-119091004D01*
X159151300Y-119064664D01*
X159041639Y-119008788D01*
X159041636Y-119008787D01*
X158869410Y-118952829D01*
X158690551Y-118924500D01*
X158690546Y-118924500D01*
X158509454Y-118924500D01*
X158509449Y-118924500D01*
X158330589Y-118952829D01*
X158158363Y-119008787D01*
X158158360Y-119008788D01*
X157997002Y-119091006D01*
X157850505Y-119197441D01*
X157850500Y-119197445D01*
X157722445Y-119325500D01*
X157722441Y-119325505D01*
X157616006Y-119472002D01*
X157533788Y-119633360D01*
X157533787Y-119633363D01*
X157477829Y-119805589D01*
X157472473Y-119839406D01*
X157442543Y-119902540D01*
X157383232Y-119939471D01*
X157313369Y-119938473D01*
X157255137Y-119899863D01*
X157227527Y-119839406D01*
X157224438Y-119819905D01*
X157222171Y-119805591D01*
X157166876Y-119635408D01*
X157166212Y-119633363D01*
X157166211Y-119633360D01*
X157090569Y-119484907D01*
X157083996Y-119472006D01*
X157027553Y-119394318D01*
X156977558Y-119325505D01*
X156977554Y-119325500D01*
X156849499Y-119197445D01*
X156849494Y-119197441D01*
X156702997Y-119091006D01*
X156702996Y-119091005D01*
X156702994Y-119091004D01*
X156651300Y-119064664D01*
X156541639Y-119008788D01*
X156541636Y-119008787D01*
X156369410Y-118952829D01*
X156190551Y-118924500D01*
X156190546Y-118924500D01*
X156009454Y-118924500D01*
X156009449Y-118924500D01*
X155830589Y-118952829D01*
X155658363Y-119008787D01*
X155658360Y-119008788D01*
X155497002Y-119091006D01*
X155350505Y-119197441D01*
X155350500Y-119197445D01*
X155222445Y-119325500D01*
X155222441Y-119325505D01*
X155116006Y-119472002D01*
X155033788Y-119633360D01*
X155033787Y-119633363D01*
X154977829Y-119805589D01*
X154972473Y-119839406D01*
X154942543Y-119902540D01*
X154883232Y-119939471D01*
X154813369Y-119938473D01*
X154755137Y-119899863D01*
X154727527Y-119839406D01*
X154724438Y-119819905D01*
X154722171Y-119805591D01*
X154666876Y-119635408D01*
X154666212Y-119633363D01*
X154666211Y-119633360D01*
X154590569Y-119484907D01*
X154583996Y-119472006D01*
X154527553Y-119394318D01*
X154477558Y-119325505D01*
X154477554Y-119325500D01*
X154349499Y-119197445D01*
X154349494Y-119197441D01*
X154202997Y-119091006D01*
X154202996Y-119091005D01*
X154202994Y-119091004D01*
X154151300Y-119064664D01*
X154041639Y-119008788D01*
X154041636Y-119008787D01*
X153869410Y-118952829D01*
X153690551Y-118924500D01*
X153690546Y-118924500D01*
X153509454Y-118924500D01*
X153509449Y-118924500D01*
X153330589Y-118952829D01*
X153158363Y-119008787D01*
X153158360Y-119008788D01*
X152997002Y-119091006D01*
X152850505Y-119197441D01*
X152850500Y-119197445D01*
X152722445Y-119325500D01*
X152722441Y-119325505D01*
X152616006Y-119472002D01*
X152533788Y-119633360D01*
X152533787Y-119633363D01*
X152477829Y-119805589D01*
X152472473Y-119839406D01*
X152442543Y-119902540D01*
X152383232Y-119939471D01*
X152313369Y-119938473D01*
X152255137Y-119899863D01*
X152227527Y-119839406D01*
X152224438Y-119819905D01*
X152222171Y-119805591D01*
X152166876Y-119635408D01*
X152166212Y-119633363D01*
X152166211Y-119633360D01*
X152090569Y-119484907D01*
X152083996Y-119472006D01*
X152027553Y-119394318D01*
X151977558Y-119325505D01*
X151977554Y-119325500D01*
X151849499Y-119197445D01*
X151849494Y-119197441D01*
X151702997Y-119091006D01*
X151702996Y-119091005D01*
X151702994Y-119091004D01*
X151651300Y-119064664D01*
X151541639Y-119008788D01*
X151541636Y-119008787D01*
X151369410Y-118952829D01*
X151190551Y-118924500D01*
X151190546Y-118924500D01*
X151009454Y-118924500D01*
X151009449Y-118924500D01*
X150830589Y-118952829D01*
X150658363Y-119008787D01*
X150658360Y-119008788D01*
X150497002Y-119091006D01*
X150350505Y-119197441D01*
X150350500Y-119197445D01*
X150222445Y-119325500D01*
X150165374Y-119404052D01*
X150110044Y-119446717D01*
X150040430Y-119452696D01*
X149978635Y-119420090D01*
X149944278Y-119359251D01*
X149941698Y-119343765D01*
X149939506Y-119322303D01*
X149884358Y-119155880D01*
X149884356Y-119155875D01*
X149792315Y-119006654D01*
X149668345Y-118882684D01*
X149519124Y-118790643D01*
X149519119Y-118790641D01*
X149352697Y-118735494D01*
X149352690Y-118735493D01*
X149249986Y-118725000D01*
X148850000Y-118725000D01*
X148850000Y-119795854D01*
X148783343Y-119757370D01*
X148662535Y-119725000D01*
X148537465Y-119725000D01*
X148416657Y-119757370D01*
X148350000Y-119795854D01*
X148350000Y-118725000D01*
X147950028Y-118725000D01*
X147950012Y-118725001D01*
X147847302Y-118735494D01*
X147680880Y-118790641D01*
X147680875Y-118790643D01*
X147531654Y-118882684D01*
X147407684Y-119006654D01*
X147315643Y-119155875D01*
X147315641Y-119155880D01*
X147260494Y-119322302D01*
X147260493Y-119322309D01*
X147250000Y-119425013D01*
X145981042Y-119425013D01*
X145956762Y-119414956D01*
X145956760Y-119414955D01*
X145800001Y-119394318D01*
X145799999Y-119394318D01*
X145643239Y-119414955D01*
X145643237Y-119414956D01*
X145497160Y-119475463D01*
X145371718Y-119571718D01*
X145275463Y-119697160D01*
X145214956Y-119843237D01*
X145214955Y-119843239D01*
X145194318Y-119999998D01*
X139598833Y-119999998D01*
X139595537Y-119992993D01*
X139513457Y-119863655D01*
X139426948Y-119727338D01*
X139426945Y-119727334D01*
X139226393Y-119484909D01*
X139226391Y-119484907D01*
X139135975Y-119400000D01*
X138997030Y-119269522D01*
X138997027Y-119269520D01*
X138997021Y-119269515D01*
X138742495Y-119084591D01*
X138742488Y-119084586D01*
X138742484Y-119084584D01*
X138466766Y-118933006D01*
X138466763Y-118933004D01*
X138466758Y-118933002D01*
X138466757Y-118933001D01*
X138174228Y-118817181D01*
X138174225Y-118817180D01*
X137869476Y-118738934D01*
X137869463Y-118738932D01*
X137557329Y-118699500D01*
X137557318Y-118699500D01*
X137242682Y-118699500D01*
X137242670Y-118699500D01*
X136930536Y-118738932D01*
X136930523Y-118738934D01*
X136625774Y-118817180D01*
X136625771Y-118817181D01*
X136333242Y-118933001D01*
X136333241Y-118933002D01*
X136057516Y-119084584D01*
X136057504Y-119084591D01*
X135802978Y-119269515D01*
X135802968Y-119269523D01*
X135573608Y-119484907D01*
X135573606Y-119484909D01*
X135373054Y-119727334D01*
X135373051Y-119727338D01*
X135204464Y-119992990D01*
X135204461Y-119992996D01*
X135070499Y-120277678D01*
X135070497Y-120277683D01*
X134973270Y-120576916D01*
X134914311Y-120885988D01*
X134914310Y-120885995D01*
X134894556Y-121199994D01*
X134250500Y-121199994D01*
X134250500Y-116399998D01*
X145194318Y-116399998D01*
X145194318Y-116400001D01*
X145214955Y-116556760D01*
X145214956Y-116556762D01*
X145275464Y-116702841D01*
X145371718Y-116828282D01*
X145497159Y-116924536D01*
X145643238Y-116985044D01*
X145721619Y-116995363D01*
X145799999Y-117005682D01*
X145800000Y-117005682D01*
X145800001Y-117005682D01*
X145852254Y-116998802D01*
X145956762Y-116985044D01*
X146102841Y-116924536D01*
X146228282Y-116828282D01*
X146324536Y-116702841D01*
X146385044Y-116556762D01*
X146405682Y-116400000D01*
X146385044Y-116243238D01*
X146324536Y-116097159D01*
X146249982Y-115999998D01*
X171894318Y-115999998D01*
X171894318Y-116000001D01*
X171914955Y-116156760D01*
X171914956Y-116156762D01*
X171950775Y-116243238D01*
X171975464Y-116302841D01*
X172071718Y-116428282D01*
X172197159Y-116524536D01*
X172343238Y-116585044D01*
X172421619Y-116595363D01*
X172499999Y-116605682D01*
X172500000Y-116605682D01*
X172500001Y-116605682D01*
X172552254Y-116598802D01*
X172656762Y-116585044D01*
X172802841Y-116524536D01*
X172928282Y-116428282D01*
X173024536Y-116302841D01*
X173085044Y-116156762D01*
X173105682Y-116000000D01*
X173085044Y-115843238D01*
X173024536Y-115697159D01*
X172928282Y-115571718D01*
X172802841Y-115475464D01*
X172656762Y-115414956D01*
X172656760Y-115414955D01*
X172500001Y-115394318D01*
X172499999Y-115394318D01*
X172343239Y-115414955D01*
X172343237Y-115414956D01*
X172197160Y-115475463D01*
X172071718Y-115571718D01*
X171975463Y-115697160D01*
X171914956Y-115843237D01*
X171914955Y-115843239D01*
X171894318Y-115999998D01*
X146249982Y-115999998D01*
X146228282Y-115971718D01*
X146102841Y-115875464D01*
X146031858Y-115846062D01*
X145956762Y-115814956D01*
X145956760Y-115814955D01*
X145800001Y-115794318D01*
X145799999Y-115794318D01*
X145643239Y-115814955D01*
X145643237Y-115814956D01*
X145497160Y-115875463D01*
X145371718Y-115971718D01*
X145275463Y-116097160D01*
X145214956Y-116243237D01*
X145214955Y-116243239D01*
X145194318Y-116399998D01*
X134250500Y-116399998D01*
X134250500Y-115240378D01*
X149834698Y-115240378D01*
X149834698Y-115240381D01*
X149855335Y-115397140D01*
X149855336Y-115397142D01*
X149915844Y-115543221D01*
X150012098Y-115668662D01*
X150137539Y-115764916D01*
X150283618Y-115825424D01*
X150361999Y-115835743D01*
X150440379Y-115846062D01*
X150440380Y-115846062D01*
X150440381Y-115846062D01*
X150492634Y-115839182D01*
X150597142Y-115825424D01*
X150743221Y-115764916D01*
X150868662Y-115668662D01*
X150964916Y-115543221D01*
X151025424Y-115397142D01*
X151046062Y-115240380D01*
X151025424Y-115083618D01*
X150964916Y-114937539D01*
X150868662Y-114812098D01*
X150743221Y-114715844D01*
X150698111Y-114697159D01*
X150597142Y-114655336D01*
X150597140Y-114655335D01*
X150440381Y-114634698D01*
X150440379Y-114634698D01*
X150283619Y-114655335D01*
X150283617Y-114655336D01*
X150137540Y-114715843D01*
X150012098Y-114812098D01*
X149915843Y-114937540D01*
X149855336Y-115083617D01*
X149855335Y-115083619D01*
X149834698Y-115240378D01*
X134250500Y-115240378D01*
X134250500Y-114199998D01*
X141594318Y-114199998D01*
X141594318Y-114200001D01*
X141614955Y-114356760D01*
X141614956Y-114356762D01*
X141675464Y-114502841D01*
X141771718Y-114628282D01*
X141897159Y-114724536D01*
X142043238Y-114785044D01*
X142121619Y-114795363D01*
X142199999Y-114805682D01*
X142200000Y-114805682D01*
X142200001Y-114805682D01*
X142252254Y-114798802D01*
X142356762Y-114785044D01*
X142502841Y-114724536D01*
X142628282Y-114628282D01*
X142724536Y-114502841D01*
X142785044Y-114356762D01*
X142805682Y-114200000D01*
X142799989Y-114156760D01*
X142785781Y-114048834D01*
X142785044Y-114043238D01*
X142767133Y-113999998D01*
X154594318Y-113999998D01*
X154594318Y-114000001D01*
X154614955Y-114156760D01*
X154614956Y-114156762D01*
X154675464Y-114302841D01*
X154771718Y-114428282D01*
X154897159Y-114524536D01*
X155043238Y-114585044D01*
X155121619Y-114595363D01*
X155199999Y-114605682D01*
X155200000Y-114605682D01*
X155200001Y-114605682D01*
X155252254Y-114598802D01*
X155356762Y-114585044D01*
X155384950Y-114573368D01*
X155967688Y-114573368D01*
X155967688Y-114573371D01*
X155988325Y-114730130D01*
X155988326Y-114730132D01*
X156035176Y-114843239D01*
X156048834Y-114876211D01*
X156145088Y-115001652D01*
X156270529Y-115097906D01*
X156416608Y-115158414D01*
X156494989Y-115168733D01*
X156573369Y-115179052D01*
X156573370Y-115179052D01*
X156573371Y-115179052D01*
X156625624Y-115172172D01*
X156730132Y-115158414D01*
X156876211Y-115097906D01*
X157001652Y-115001652D01*
X157002921Y-114999998D01*
X174394318Y-114999998D01*
X174394318Y-115000001D01*
X174414955Y-115156760D01*
X174414956Y-115156762D01*
X174475464Y-115302841D01*
X174571718Y-115428282D01*
X174697159Y-115524536D01*
X174843238Y-115585044D01*
X174921619Y-115595363D01*
X174999999Y-115605682D01*
X175000000Y-115605682D01*
X175000001Y-115605682D01*
X175052254Y-115598802D01*
X175156762Y-115585044D01*
X175302841Y-115524536D01*
X175428282Y-115428282D01*
X175524536Y-115302841D01*
X175585044Y-115156762D01*
X175605682Y-115000000D01*
X175585044Y-114843238D01*
X175524536Y-114697159D01*
X175428282Y-114571718D01*
X175302841Y-114475464D01*
X175156762Y-114414956D01*
X175156760Y-114414955D01*
X175000001Y-114394318D01*
X174999999Y-114394318D01*
X174843239Y-114414955D01*
X174843237Y-114414956D01*
X174697160Y-114475463D01*
X174571718Y-114571718D01*
X174475463Y-114697160D01*
X174414956Y-114843237D01*
X174414955Y-114843239D01*
X174394318Y-114999998D01*
X157002921Y-114999998D01*
X157097906Y-114876211D01*
X157158414Y-114730132D01*
X157179052Y-114573370D01*
X157169766Y-114502839D01*
X157158414Y-114416609D01*
X157158414Y-114416608D01*
X157097906Y-114270529D01*
X157001652Y-114145088D01*
X156876211Y-114048834D01*
X156862703Y-114043239D01*
X156730132Y-113988326D01*
X156730130Y-113988325D01*
X156573371Y-113967688D01*
X156573369Y-113967688D01*
X156416609Y-113988325D01*
X156416607Y-113988326D01*
X156270530Y-114048833D01*
X156145088Y-114145088D01*
X156048833Y-114270530D01*
X155988326Y-114416607D01*
X155988325Y-114416609D01*
X155967688Y-114573368D01*
X155384950Y-114573368D01*
X155502841Y-114524536D01*
X155628282Y-114428282D01*
X155724536Y-114302841D01*
X155785044Y-114156762D01*
X155805682Y-114000000D01*
X155785044Y-113843238D01*
X155724536Y-113697159D01*
X155628282Y-113571718D01*
X155534814Y-113499998D01*
X167894318Y-113499998D01*
X167894318Y-113500001D01*
X167914955Y-113656760D01*
X167914956Y-113656762D01*
X167975464Y-113802841D01*
X168071718Y-113928282D01*
X168197159Y-114024536D01*
X168343238Y-114085044D01*
X168421619Y-114095363D01*
X168499999Y-114105682D01*
X168500000Y-114105682D01*
X168500001Y-114105682D01*
X168552254Y-114098802D01*
X168656762Y-114085044D01*
X168802841Y-114024536D01*
X168928282Y-113928282D01*
X169024536Y-113802841D01*
X169085044Y-113656762D01*
X169105682Y-113500000D01*
X169085044Y-113343238D01*
X169024536Y-113197159D01*
X168928282Y-113071718D01*
X168802841Y-112975464D01*
X168656762Y-112914956D01*
X168656760Y-112914955D01*
X168500001Y-112894318D01*
X168499999Y-112894318D01*
X168343239Y-112914955D01*
X168343237Y-112914956D01*
X168197160Y-112975463D01*
X168071718Y-113071718D01*
X167975463Y-113197160D01*
X167914956Y-113343237D01*
X167914955Y-113343239D01*
X167894318Y-113499998D01*
X155534814Y-113499998D01*
X155502841Y-113475464D01*
X155356762Y-113414956D01*
X155356760Y-113414955D01*
X155200001Y-113394318D01*
X155199999Y-113394318D01*
X155043239Y-113414955D01*
X155043237Y-113414956D01*
X154897160Y-113475463D01*
X154771718Y-113571718D01*
X154675463Y-113697160D01*
X154614956Y-113843237D01*
X154614955Y-113843239D01*
X154594318Y-113999998D01*
X142767133Y-113999998D01*
X142724536Y-113897159D01*
X142628282Y-113771718D01*
X142502841Y-113675464D01*
X142457690Y-113656762D01*
X142356762Y-113614956D01*
X142356760Y-113614955D01*
X142200001Y-113594318D01*
X142199999Y-113594318D01*
X142043239Y-113614955D01*
X142043237Y-113614956D01*
X141897160Y-113675463D01*
X141771718Y-113771718D01*
X141675463Y-113897160D01*
X141614956Y-114043237D01*
X141614955Y-114043239D01*
X141594318Y-114199998D01*
X134250500Y-114199998D01*
X134250500Y-112332726D01*
X134571073Y-112332726D01*
X134571073Y-112490419D01*
X134601834Y-112645062D01*
X134601837Y-112645074D01*
X134662175Y-112790745D01*
X134662182Y-112790758D01*
X134749783Y-112921861D01*
X134749786Y-112921865D01*
X134861280Y-113033359D01*
X134861284Y-113033362D01*
X134992387Y-113120963D01*
X134992400Y-113120970D01*
X135138071Y-113181308D01*
X135138076Y-113181310D01*
X135292726Y-113212072D01*
X135292729Y-113212073D01*
X135292731Y-113212073D01*
X136050417Y-113212073D01*
X136050418Y-113212072D01*
X136205070Y-113181310D01*
X136350752Y-113120967D01*
X136481862Y-113033362D01*
X136593362Y-112921862D01*
X136680967Y-112790752D01*
X136741310Y-112645070D01*
X136772073Y-112490415D01*
X136772073Y-112332731D01*
X136772073Y-112332728D01*
X136772072Y-112332726D01*
X138501073Y-112332726D01*
X138501073Y-112490419D01*
X138531834Y-112645062D01*
X138531837Y-112645074D01*
X138592175Y-112790745D01*
X138592182Y-112790758D01*
X138679783Y-112921861D01*
X138679786Y-112921865D01*
X138791280Y-113033359D01*
X138791284Y-113033362D01*
X138922387Y-113120963D01*
X138922400Y-113120970D01*
X139068071Y-113181308D01*
X139068076Y-113181310D01*
X139222726Y-113212072D01*
X139222729Y-113212073D01*
X139222731Y-113212073D01*
X140480417Y-113212073D01*
X140480418Y-113212072D01*
X140635070Y-113181310D01*
X140780752Y-113120967D01*
X140911862Y-113033362D01*
X141023362Y-112921862D01*
X141110967Y-112790752D01*
X141171310Y-112645070D01*
X141180275Y-112599998D01*
X141994318Y-112599998D01*
X141994318Y-112600001D01*
X142014955Y-112756760D01*
X142014956Y-112756762D01*
X142071933Y-112894318D01*
X142075464Y-112902841D01*
X142171718Y-113028282D01*
X142297159Y-113124536D01*
X142443238Y-113185044D01*
X142521619Y-113195363D01*
X142599999Y-113205682D01*
X142600000Y-113205682D01*
X142600001Y-113205682D01*
X142664739Y-113197159D01*
X142756762Y-113185044D01*
X142902841Y-113124536D01*
X143028282Y-113028282D01*
X143124536Y-112902841D01*
X143185044Y-112756762D01*
X143205682Y-112600000D01*
X143199551Y-112553433D01*
X143192516Y-112499998D01*
X158394318Y-112499998D01*
X158394318Y-112500001D01*
X158414955Y-112656760D01*
X158414956Y-112656762D01*
X158470456Y-112790752D01*
X158475464Y-112802841D01*
X158571718Y-112928282D01*
X158697159Y-113024536D01*
X158843238Y-113085044D01*
X158921619Y-113095363D01*
X158999999Y-113105682D01*
X159000000Y-113105682D01*
X159000001Y-113105682D01*
X159052254Y-113098802D01*
X159156762Y-113085044D01*
X159302841Y-113024536D01*
X159428282Y-112928282D01*
X159524536Y-112802841D01*
X159585044Y-112656762D01*
X159605682Y-112500000D01*
X159604420Y-112490417D01*
X159585044Y-112343239D01*
X159585044Y-112343238D01*
X159524536Y-112197159D01*
X159428282Y-112071718D01*
X159302841Y-111975464D01*
X159293015Y-111971394D01*
X159156762Y-111914956D01*
X159156760Y-111914955D01*
X159000001Y-111894318D01*
X158999999Y-111894318D01*
X158843239Y-111914955D01*
X158843237Y-111914956D01*
X158697160Y-111975463D01*
X158571718Y-112071718D01*
X158475463Y-112197160D01*
X158414956Y-112343237D01*
X158414955Y-112343239D01*
X158394318Y-112499998D01*
X143192516Y-112499998D01*
X143185044Y-112443239D01*
X143185044Y-112443238D01*
X143124536Y-112297159D01*
X143028282Y-112171718D01*
X142902841Y-112075464D01*
X142893797Y-112071718D01*
X142756762Y-112014956D01*
X142756760Y-112014955D01*
X142600001Y-111994318D01*
X142599999Y-111994318D01*
X142443239Y-112014955D01*
X142443237Y-112014956D01*
X142297160Y-112075463D01*
X142171718Y-112171718D01*
X142075463Y-112297160D01*
X142014956Y-112443237D01*
X142014955Y-112443239D01*
X141994318Y-112599998D01*
X141180275Y-112599998D01*
X141202073Y-112490415D01*
X141202073Y-112332731D01*
X141202073Y-112332728D01*
X141202072Y-112332726D01*
X141194997Y-112297159D01*
X141171310Y-112178076D01*
X141169976Y-112174855D01*
X141110970Y-112032400D01*
X141110963Y-112032387D01*
X141023362Y-111901284D01*
X141023359Y-111901280D01*
X140911865Y-111789786D01*
X140911861Y-111789783D01*
X140780758Y-111702182D01*
X140780745Y-111702175D01*
X140635074Y-111641837D01*
X140635062Y-111641834D01*
X140480418Y-111611073D01*
X140480415Y-111611073D01*
X139805315Y-111611073D01*
X139738276Y-111591388D01*
X139692521Y-111538584D01*
X139682577Y-111469426D01*
X139711602Y-111405870D01*
X139717634Y-111399392D01*
X139782088Y-111334938D01*
X139857854Y-111203708D01*
X139897073Y-111057339D01*
X139897073Y-110905807D01*
X139857854Y-110759438D01*
X139782088Y-110628208D01*
X139753878Y-110599998D01*
X151394318Y-110599998D01*
X151394318Y-110600001D01*
X151414955Y-110756760D01*
X151414956Y-110756762D01*
X151424581Y-110780000D01*
X151475464Y-110902841D01*
X151571718Y-111028282D01*
X151697159Y-111124536D01*
X151843238Y-111185044D01*
X151921619Y-111195363D01*
X151999999Y-111205682D01*
X152000000Y-111205682D01*
X152000001Y-111205682D01*
X152052254Y-111198802D01*
X152156762Y-111185044D01*
X152302841Y-111124536D01*
X152428282Y-111028282D01*
X152524536Y-110902841D01*
X152585044Y-110756762D01*
X152605363Y-110602422D01*
X152605682Y-110600001D01*
X152605682Y-110599998D01*
X152588027Y-110465894D01*
X152585044Y-110443238D01*
X152567133Y-110399998D01*
X153594318Y-110399998D01*
X153594318Y-110400001D01*
X153614955Y-110556760D01*
X153614956Y-110556762D01*
X153637502Y-110611194D01*
X153675464Y-110702841D01*
X153771718Y-110828282D01*
X153897159Y-110924536D01*
X154043238Y-110985044D01*
X154121619Y-110995363D01*
X154199999Y-111005682D01*
X154200000Y-111005682D01*
X154200001Y-111005682D01*
X154252254Y-110998802D01*
X154356762Y-110985044D01*
X154502841Y-110924536D01*
X154624515Y-110831171D01*
X154689683Y-110805979D01*
X154758127Y-110820017D01*
X154775478Y-110831167D01*
X154897159Y-110924536D01*
X155043238Y-110985044D01*
X155121619Y-110995363D01*
X155199999Y-111005682D01*
X155200000Y-111005682D01*
X155200001Y-111005682D01*
X155252254Y-110998802D01*
X155356762Y-110985044D01*
X155502841Y-110924536D01*
X155628282Y-110828282D01*
X155638007Y-110815607D01*
X155694431Y-110774406D01*
X155764177Y-110770249D01*
X155825098Y-110804460D01*
X155850943Y-110843642D01*
X155875462Y-110902838D01*
X155875463Y-110902839D01*
X155875464Y-110902841D01*
X155971718Y-111028282D01*
X156097159Y-111124536D01*
X156243238Y-111185044D01*
X156321619Y-111195363D01*
X156399999Y-111205682D01*
X156400000Y-111205682D01*
X156400001Y-111205682D01*
X156452254Y-111198802D01*
X156556762Y-111185044D01*
X156702841Y-111124536D01*
X156826044Y-111029999D01*
X173529364Y-111029999D01*
X173529364Y-111030000D01*
X174426988Y-111030000D01*
X174394075Y-111087007D01*
X174360000Y-111214174D01*
X174360000Y-111345826D01*
X174394075Y-111472993D01*
X174426988Y-111530000D01*
X173529364Y-111530000D01*
X173586567Y-111743486D01*
X173586570Y-111743492D01*
X173686399Y-111957578D01*
X173821894Y-112151082D01*
X173988917Y-112318105D01*
X174182421Y-112453600D01*
X174396507Y-112553429D01*
X174396516Y-112553433D01*
X174610000Y-112610634D01*
X174610000Y-111713012D01*
X174667007Y-111745925D01*
X174794174Y-111780000D01*
X174925826Y-111780000D01*
X175052993Y-111745925D01*
X175110000Y-111713012D01*
X175110000Y-112610633D01*
X175323483Y-112553433D01*
X175323492Y-112553429D01*
X175537578Y-112453600D01*
X175731082Y-112318105D01*
X175898105Y-112151082D01*
X176023925Y-111971394D01*
X176078502Y-111927770D01*
X176148001Y-111920577D01*
X176210355Y-111952099D01*
X176245769Y-112012329D01*
X176249500Y-112042517D01*
X176249500Y-112174855D01*
X176249502Y-112174882D01*
X176252413Y-112199987D01*
X176252415Y-112199991D01*
X176297793Y-112302764D01*
X176297794Y-112302765D01*
X176377235Y-112382206D01*
X176480009Y-112427585D01*
X176505135Y-112430500D01*
X178294864Y-112430499D01*
X178294879Y-112430497D01*
X178294882Y-112430497D01*
X178319987Y-112427586D01*
X178319988Y-112427585D01*
X178319991Y-112427585D01*
X178422765Y-112382206D01*
X178502206Y-112302765D01*
X178547585Y-112199991D01*
X178550500Y-112174865D01*
X178550499Y-110385136D01*
X178550497Y-110385117D01*
X178547586Y-110360012D01*
X178547585Y-110360010D01*
X178547585Y-110360009D01*
X178502206Y-110257235D01*
X178422765Y-110177794D01*
X178422763Y-110177793D01*
X178319992Y-110132415D01*
X178294868Y-110129500D01*
X177566243Y-110129500D01*
X177499204Y-110109815D01*
X177453449Y-110057011D01*
X177443505Y-109987853D01*
X177472530Y-109924297D01*
X177531308Y-109886523D01*
X177543441Y-109883614D01*
X177716198Y-109851321D01*
X177915019Y-109774298D01*
X178096302Y-109662052D01*
X178253872Y-109518407D01*
X178382366Y-109348255D01*
X178382367Y-109348253D01*
X178477403Y-109157394D01*
X178477403Y-109157393D01*
X178477405Y-109157389D01*
X178535756Y-108952310D01*
X178555429Y-108740000D01*
X178535756Y-108527690D01*
X178477405Y-108322611D01*
X178477403Y-108322606D01*
X178477403Y-108322605D01*
X178382367Y-108131746D01*
X178253872Y-107961593D01*
X178217331Y-107928281D01*
X178096302Y-107817948D01*
X177915019Y-107705702D01*
X177915017Y-107705701D01*
X177788684Y-107656760D01*
X177716198Y-107628679D01*
X177519385Y-107591888D01*
X177457106Y-107560221D01*
X177421833Y-107499908D01*
X177424767Y-107430100D01*
X177464976Y-107372960D01*
X177519384Y-107348111D01*
X177716198Y-107311321D01*
X177915019Y-107234298D01*
X178096302Y-107122052D01*
X178253872Y-106978407D01*
X178382366Y-106808255D01*
X178393924Y-106785043D01*
X178477403Y-106617394D01*
X178477403Y-106617393D01*
X178477405Y-106617389D01*
X178535756Y-106412310D01*
X178555429Y-106200000D01*
X178535756Y-105987690D01*
X178477405Y-105782611D01*
X178477403Y-105782606D01*
X178477403Y-105782605D01*
X178382367Y-105591746D01*
X178253872Y-105421593D01*
X178199162Y-105371718D01*
X178096302Y-105277948D01*
X177915019Y-105165702D01*
X177915017Y-105165701D01*
X177812037Y-105125807D01*
X177716198Y-105088679D01*
X177506610Y-105049500D01*
X177293390Y-105049500D01*
X177083802Y-105088679D01*
X177083799Y-105088679D01*
X177083799Y-105088680D01*
X176884982Y-105165701D01*
X176884980Y-105165702D01*
X176703699Y-105277947D01*
X176546127Y-105421593D01*
X176417632Y-105591746D01*
X176322596Y-105782605D01*
X176322596Y-105782607D01*
X176264244Y-105987689D01*
X176253471Y-106103951D01*
X176227685Y-106168888D01*
X176183130Y-106200804D01*
X176219503Y-106221668D01*
X176251693Y-106283681D01*
X176253470Y-106296047D01*
X176264244Y-106412310D01*
X176315718Y-106593221D01*
X176322596Y-106617392D01*
X176322596Y-106617394D01*
X176417632Y-106808253D01*
X176546127Y-106978406D01*
X176546128Y-106978407D01*
X176703698Y-107122052D01*
X176884981Y-107234298D01*
X177083802Y-107311321D01*
X177280613Y-107348111D01*
X177342893Y-107379779D01*
X177378166Y-107440092D01*
X177375232Y-107509900D01*
X177335023Y-107567040D01*
X177280613Y-107591888D01*
X177083802Y-107628679D01*
X177083799Y-107628679D01*
X177083799Y-107628680D01*
X176884982Y-107705701D01*
X176884980Y-107705702D01*
X176703699Y-107817947D01*
X176546127Y-107961593D01*
X176417632Y-108131746D01*
X176322596Y-108322605D01*
X176322596Y-108322607D01*
X176264244Y-108527689D01*
X176253471Y-108643951D01*
X176227685Y-108708888D01*
X176183130Y-108740804D01*
X176219503Y-108761668D01*
X176251693Y-108823681D01*
X176253471Y-108836048D01*
X176264244Y-108952310D01*
X176322596Y-109157392D01*
X176322596Y-109157394D01*
X176417632Y-109348253D01*
X176540768Y-109511309D01*
X176546128Y-109518407D01*
X176703698Y-109662052D01*
X176884981Y-109774298D01*
X177083802Y-109851321D01*
X177256544Y-109883612D01*
X177318823Y-109915279D01*
X177354096Y-109975591D01*
X177351162Y-110045400D01*
X177310953Y-110102540D01*
X177246235Y-110128871D01*
X177233757Y-110129500D01*
X176505143Y-110129500D01*
X176505117Y-110129502D01*
X176480012Y-110132413D01*
X176480008Y-110132415D01*
X176377235Y-110177793D01*
X176297794Y-110257234D01*
X176252415Y-110360006D01*
X176252415Y-110360008D01*
X176249500Y-110385131D01*
X176249500Y-110517481D01*
X176229815Y-110584520D01*
X176177011Y-110630275D01*
X176107853Y-110640219D01*
X176044297Y-110611194D01*
X176023925Y-110588604D01*
X175898113Y-110408926D01*
X175898108Y-110408920D01*
X175731082Y-110241894D01*
X175537578Y-110106399D01*
X175338426Y-110013533D01*
X175285987Y-109967360D01*
X175266835Y-109900167D01*
X175287051Y-109833286D01*
X175340216Y-109787951D01*
X175346005Y-109785537D01*
X175375019Y-109774298D01*
X175556302Y-109662052D01*
X175713872Y-109518407D01*
X175842366Y-109348255D01*
X175842367Y-109348253D01*
X175937403Y-109157394D01*
X175937403Y-109157393D01*
X175937405Y-109157389D01*
X175995756Y-108952310D01*
X176006529Y-108836047D01*
X176032315Y-108771111D01*
X176076869Y-108739194D01*
X176040497Y-108718331D01*
X176008307Y-108656318D01*
X176006529Y-108643951D01*
X176001930Y-108594318D01*
X175995756Y-108527690D01*
X175937405Y-108322611D01*
X175937403Y-108322606D01*
X175937403Y-108322605D01*
X175842367Y-108131746D01*
X175713872Y-107961593D01*
X175677331Y-107928281D01*
X175556302Y-107817948D01*
X175375019Y-107705702D01*
X175375017Y-107705701D01*
X175248684Y-107656760D01*
X175176198Y-107628679D01*
X174979385Y-107591888D01*
X174917106Y-107560221D01*
X174881833Y-107499908D01*
X174884767Y-107430100D01*
X174924976Y-107372960D01*
X174979384Y-107348111D01*
X175176198Y-107311321D01*
X175375019Y-107234298D01*
X175556302Y-107122052D01*
X175713872Y-106978407D01*
X175842366Y-106808255D01*
X175853924Y-106785043D01*
X175937403Y-106617394D01*
X175937403Y-106617393D01*
X175937405Y-106617389D01*
X175995756Y-106412310D01*
X176006529Y-106296047D01*
X176032315Y-106231111D01*
X176076869Y-106199194D01*
X176040497Y-106178331D01*
X176008307Y-106116318D01*
X176006529Y-106103951D01*
X176004556Y-106082664D01*
X175995756Y-105987690D01*
X175937405Y-105782611D01*
X175937403Y-105782606D01*
X175937403Y-105782605D01*
X175842367Y-105591746D01*
X175713872Y-105421593D01*
X175659162Y-105371718D01*
X175556302Y-105277948D01*
X175375019Y-105165702D01*
X175375017Y-105165701D01*
X175272037Y-105125807D01*
X175176198Y-105088679D01*
X174966610Y-105049500D01*
X174753390Y-105049500D01*
X174543802Y-105088679D01*
X174543799Y-105088679D01*
X174543799Y-105088680D01*
X174344982Y-105165701D01*
X174344980Y-105165702D01*
X174163699Y-105277947D01*
X174006127Y-105421593D01*
X173877632Y-105591746D01*
X173782596Y-105782605D01*
X173782596Y-105782607D01*
X173724244Y-105987689D01*
X173715444Y-106082664D01*
X173704571Y-106200000D01*
X173724244Y-106412310D01*
X173775718Y-106593221D01*
X173782596Y-106617392D01*
X173782596Y-106617394D01*
X173877632Y-106808253D01*
X174006127Y-106978406D01*
X174006128Y-106978407D01*
X174163698Y-107122052D01*
X174344981Y-107234298D01*
X174543802Y-107311321D01*
X174740613Y-107348111D01*
X174802893Y-107379779D01*
X174838166Y-107440092D01*
X174835232Y-107509900D01*
X174795023Y-107567040D01*
X174740613Y-107591888D01*
X174543802Y-107628679D01*
X174543799Y-107628679D01*
X174543799Y-107628680D01*
X174344982Y-107705701D01*
X174344980Y-107705702D01*
X174163699Y-107817947D01*
X174006127Y-107961593D01*
X173877632Y-108131746D01*
X173782596Y-108322605D01*
X173782596Y-108322607D01*
X173724244Y-108527689D01*
X173704571Y-108739999D01*
X173704571Y-108740000D01*
X173724244Y-108952310D01*
X173782596Y-109157392D01*
X173782596Y-109157394D01*
X173877632Y-109348253D01*
X174000768Y-109511309D01*
X174006128Y-109518407D01*
X174163698Y-109662052D01*
X174344981Y-109774298D01*
X174373961Y-109785525D01*
X174429362Y-109828095D01*
X174452954Y-109893861D01*
X174437244Y-109961942D01*
X174387222Y-110010722D01*
X174381573Y-110013533D01*
X174182422Y-110106399D01*
X174182420Y-110106400D01*
X173988926Y-110241886D01*
X173988920Y-110241891D01*
X173821891Y-110408920D01*
X173821886Y-110408926D01*
X173686400Y-110602420D01*
X173686399Y-110602422D01*
X173586570Y-110816507D01*
X173586567Y-110816513D01*
X173529364Y-111029999D01*
X156826044Y-111029999D01*
X156828282Y-111028282D01*
X156924536Y-110902841D01*
X156985044Y-110756762D01*
X157005363Y-110602422D01*
X157005682Y-110600001D01*
X157005682Y-110599998D01*
X156988027Y-110465894D01*
X156985044Y-110443238D01*
X156924536Y-110297159D01*
X156828282Y-110171718D01*
X156702841Y-110075464D01*
X156556762Y-110014956D01*
X156556760Y-110014955D01*
X156400001Y-109994318D01*
X156399999Y-109994318D01*
X156243239Y-110014955D01*
X156243237Y-110014956D01*
X156097160Y-110075463D01*
X155971714Y-110171721D01*
X155961990Y-110184394D01*
X155905561Y-110225595D01*
X155835815Y-110229748D01*
X155774896Y-110195534D01*
X155749058Y-110156361D01*
X155724536Y-110097159D01*
X155628282Y-109971718D01*
X155502841Y-109875464D01*
X155471946Y-109862667D01*
X155356762Y-109814956D01*
X155356760Y-109814955D01*
X155200001Y-109794318D01*
X155199999Y-109794318D01*
X155043239Y-109814955D01*
X155043237Y-109814956D01*
X154897157Y-109875464D01*
X154775486Y-109968826D01*
X154710317Y-109994020D01*
X154641872Y-109979981D01*
X154624514Y-109968826D01*
X154502842Y-109875464D01*
X154356762Y-109814956D01*
X154356760Y-109814955D01*
X154200001Y-109794318D01*
X154199999Y-109794318D01*
X154043239Y-109814955D01*
X154043237Y-109814956D01*
X153897160Y-109875463D01*
X153771718Y-109971718D01*
X153675463Y-110097160D01*
X153614956Y-110243237D01*
X153614955Y-110243239D01*
X153594318Y-110399998D01*
X152567133Y-110399998D01*
X152524536Y-110297159D01*
X152428282Y-110171718D01*
X152302841Y-110075464D01*
X152156762Y-110014956D01*
X152156760Y-110014955D01*
X152000001Y-109994318D01*
X151999999Y-109994318D01*
X151843239Y-110014955D01*
X151843237Y-110014956D01*
X151697160Y-110075463D01*
X151571718Y-110171718D01*
X151475463Y-110297160D01*
X151414956Y-110443237D01*
X151414955Y-110443239D01*
X151394318Y-110599998D01*
X139753878Y-110599998D01*
X139674938Y-110521058D01*
X139579390Y-110465893D01*
X139543709Y-110445292D01*
X139470523Y-110425682D01*
X139397339Y-110406073D01*
X139245807Y-110406073D01*
X139099436Y-110445292D01*
X138968208Y-110521058D01*
X138968205Y-110521060D01*
X138861060Y-110628205D01*
X138861058Y-110628208D01*
X138785292Y-110759436D01*
X138766071Y-110831173D01*
X138746073Y-110905807D01*
X138746073Y-111057339D01*
X138758171Y-111102489D01*
X138785292Y-111203709D01*
X138823175Y-111269323D01*
X138861058Y-111334938D01*
X138968208Y-111442088D01*
X138993614Y-111456756D01*
X139041829Y-111507323D01*
X139055053Y-111575930D01*
X139029085Y-111640794D01*
X138979067Y-111678704D01*
X138922397Y-111702177D01*
X138922387Y-111702182D01*
X138791284Y-111789783D01*
X138791280Y-111789786D01*
X138679786Y-111901280D01*
X138679783Y-111901284D01*
X138592182Y-112032387D01*
X138592175Y-112032400D01*
X138531837Y-112178071D01*
X138531834Y-112178083D01*
X138501073Y-112332726D01*
X136772072Y-112332726D01*
X136764997Y-112297159D01*
X136741310Y-112178076D01*
X136739976Y-112174855D01*
X136680970Y-112032400D01*
X136680963Y-112032387D01*
X136593362Y-111901284D01*
X136593359Y-111901280D01*
X136481865Y-111789786D01*
X136481861Y-111789783D01*
X136350758Y-111702182D01*
X136350745Y-111702175D01*
X136205074Y-111641837D01*
X136205062Y-111641834D01*
X136050418Y-111611073D01*
X136050415Y-111611073D01*
X135292731Y-111611073D01*
X135292728Y-111611073D01*
X135138083Y-111641834D01*
X135138071Y-111641837D01*
X134992400Y-111702175D01*
X134992387Y-111702182D01*
X134861284Y-111789783D01*
X134861280Y-111789786D01*
X134749786Y-111901280D01*
X134749783Y-111901284D01*
X134662182Y-112032387D01*
X134662175Y-112032400D01*
X134601837Y-112178071D01*
X134601834Y-112178083D01*
X134571073Y-112332726D01*
X134250500Y-112332726D01*
X134250500Y-109199998D01*
X143194318Y-109199998D01*
X143194318Y-109200001D01*
X143214955Y-109356760D01*
X143214956Y-109356762D01*
X143275464Y-109502841D01*
X143371718Y-109628282D01*
X143497159Y-109724536D01*
X143643238Y-109785044D01*
X143713681Y-109794318D01*
X143799999Y-109805682D01*
X143800000Y-109805682D01*
X143800001Y-109805682D01*
X143852254Y-109798802D01*
X143956762Y-109785044D01*
X144102841Y-109724536D01*
X144228282Y-109628282D01*
X144324536Y-109502841D01*
X144385044Y-109356762D01*
X144405682Y-109200000D01*
X144385044Y-109043238D01*
X144324536Y-108897159D01*
X144228282Y-108771718D01*
X144102841Y-108675464D01*
X144020248Y-108641253D01*
X143956762Y-108614956D01*
X143956760Y-108614955D01*
X143800001Y-108594318D01*
X143799999Y-108594318D01*
X143643239Y-108614955D01*
X143643237Y-108614956D01*
X143497160Y-108675463D01*
X143371718Y-108771718D01*
X143275463Y-108897160D01*
X143214956Y-109043237D01*
X143214955Y-109043239D01*
X143194318Y-109199998D01*
X134250500Y-109199998D01*
X134250500Y-107499998D01*
X166894318Y-107499998D01*
X166894318Y-107500001D01*
X166914955Y-107656760D01*
X166914956Y-107656762D01*
X166975464Y-107802841D01*
X167071718Y-107928282D01*
X167197159Y-108024536D01*
X167343238Y-108085044D01*
X167421619Y-108095363D01*
X167499999Y-108105682D01*
X167500000Y-108105682D01*
X167500001Y-108105682D01*
X167552254Y-108098802D01*
X167656762Y-108085044D01*
X167802841Y-108024536D01*
X167928282Y-107928282D01*
X168024536Y-107802841D01*
X168085044Y-107656762D01*
X168105682Y-107500000D01*
X168085044Y-107343238D01*
X168024536Y-107197159D01*
X167928282Y-107071718D01*
X167802841Y-106975464D01*
X167656762Y-106914956D01*
X167656760Y-106914955D01*
X167500001Y-106894318D01*
X167499999Y-106894318D01*
X167343239Y-106914955D01*
X167343237Y-106914956D01*
X167197160Y-106975463D01*
X167071718Y-107071718D01*
X166975463Y-107197160D01*
X166914956Y-107343237D01*
X166914955Y-107343239D01*
X166894318Y-107499998D01*
X134250500Y-107499998D01*
X134250500Y-105799998D01*
X142994318Y-105799998D01*
X142994318Y-105800001D01*
X143014955Y-105956760D01*
X143014956Y-105956762D01*
X143050775Y-106043238D01*
X143075464Y-106102841D01*
X143171718Y-106228282D01*
X143297159Y-106324536D01*
X143443238Y-106385044D01*
X143521619Y-106395363D01*
X143599999Y-106405682D01*
X143600000Y-106405682D01*
X143600001Y-106405682D01*
X143658252Y-106398013D01*
X143756762Y-106385044D01*
X143902841Y-106324536D01*
X144028282Y-106228282D01*
X144049985Y-106199998D01*
X151194318Y-106199998D01*
X151194318Y-106200001D01*
X151214955Y-106356760D01*
X151214956Y-106356762D01*
X151274287Y-106500001D01*
X151275464Y-106502841D01*
X151371718Y-106628282D01*
X151497159Y-106724536D01*
X151643238Y-106785044D01*
X151721619Y-106795363D01*
X151799999Y-106805682D01*
X151800000Y-106805682D01*
X151800001Y-106805682D01*
X151852254Y-106798802D01*
X151956762Y-106785044D01*
X152102841Y-106724536D01*
X152228282Y-106628282D01*
X152324536Y-106502841D01*
X152385044Y-106356762D01*
X152403305Y-106218057D01*
X152405682Y-106200001D01*
X152405682Y-106199998D01*
X152391923Y-106095492D01*
X152386815Y-106056692D01*
X153642290Y-106056692D01*
X153642290Y-106056695D01*
X153662927Y-106213454D01*
X153662928Y-106213456D01*
X153722286Y-106356760D01*
X153723436Y-106359535D01*
X153819690Y-106484976D01*
X153945131Y-106581230D01*
X154091210Y-106641738D01*
X154169591Y-106652057D01*
X154247971Y-106662376D01*
X154247972Y-106662376D01*
X154247973Y-106662376D01*
X154300226Y-106655496D01*
X154404734Y-106641738D01*
X154550813Y-106581230D01*
X154676254Y-106484976D01*
X154772508Y-106359535D01*
X154808575Y-106272460D01*
X154852415Y-106218057D01*
X154918710Y-106195992D01*
X154986409Y-106213271D01*
X155034020Y-106264408D01*
X155046075Y-106303727D01*
X155058488Y-106398016D01*
X155064956Y-106447141D01*
X155064956Y-106447142D01*
X155122967Y-106587194D01*
X155125464Y-106593221D01*
X155221718Y-106718662D01*
X155347159Y-106814916D01*
X155493238Y-106875424D01*
X155571619Y-106885743D01*
X155649999Y-106896062D01*
X155650000Y-106896062D01*
X155650001Y-106896062D01*
X155702254Y-106889182D01*
X155806762Y-106875424D01*
X155952841Y-106814916D01*
X156078282Y-106718662D01*
X156174536Y-106593221D01*
X156174536Y-106593218D01*
X156174539Y-106593216D01*
X156178599Y-106586184D01*
X156180349Y-106587194D01*
X156217349Y-106541264D01*
X156283639Y-106519187D01*
X156351341Y-106536453D01*
X156398961Y-106587581D01*
X156411027Y-106626920D01*
X156414956Y-106656761D01*
X156414956Y-106656762D01*
X156475111Y-106801990D01*
X156475464Y-106802841D01*
X156571718Y-106928282D01*
X156697159Y-107024536D01*
X156843238Y-107085044D01*
X156921619Y-107095363D01*
X156999999Y-107105682D01*
X157000000Y-107105682D01*
X157000001Y-107105682D01*
X157052254Y-107098802D01*
X157156762Y-107085044D01*
X157302841Y-107024536D01*
X157428282Y-106928282D01*
X157524536Y-106802841D01*
X157585044Y-106656762D01*
X157605682Y-106500000D01*
X157585044Y-106343238D01*
X157524536Y-106197159D01*
X157428282Y-106071718D01*
X157302841Y-105975464D01*
X157257690Y-105956762D01*
X157156762Y-105914956D01*
X157156760Y-105914955D01*
X157000001Y-105894318D01*
X156999999Y-105894318D01*
X156843239Y-105914955D01*
X156843237Y-105914956D01*
X156697160Y-105975463D01*
X156571718Y-106071718D01*
X156475460Y-106197163D01*
X156471401Y-106204196D01*
X156469653Y-106203187D01*
X156432626Y-106249132D01*
X156366331Y-106271193D01*
X156298632Y-106253911D01*
X156251024Y-106202771D01*
X156238972Y-106163456D01*
X156235044Y-106133620D01*
X156235044Y-106133618D01*
X156174536Y-105987539D01*
X156078282Y-105862098D01*
X155952841Y-105765844D01*
X155923892Y-105753853D01*
X155806762Y-105705336D01*
X155806760Y-105705335D01*
X155650001Y-105684698D01*
X155649999Y-105684698D01*
X155493239Y-105705335D01*
X155493237Y-105705336D01*
X155347160Y-105765843D01*
X155221718Y-105862098D01*
X155125464Y-105987539D01*
X155089396Y-106074614D01*
X155045554Y-106129017D01*
X154979260Y-106151081D01*
X154911561Y-106133801D01*
X154863951Y-106082664D01*
X154851897Y-106043348D01*
X154833016Y-105899932D01*
X154772508Y-105753853D01*
X154676254Y-105628412D01*
X154550813Y-105532158D01*
X154466320Y-105497160D01*
X154404734Y-105471650D01*
X154404732Y-105471649D01*
X154247973Y-105451012D01*
X154247971Y-105451012D01*
X154091211Y-105471649D01*
X154091209Y-105471650D01*
X153945132Y-105532157D01*
X153819690Y-105628412D01*
X153723435Y-105753854D01*
X153662928Y-105899931D01*
X153662927Y-105899933D01*
X153642290Y-106056692D01*
X152386815Y-106056692D01*
X152385044Y-106043238D01*
X152324536Y-105897159D01*
X152228282Y-105771718D01*
X152102841Y-105675464D01*
X152070541Y-105662085D01*
X151956762Y-105614956D01*
X151956760Y-105614955D01*
X151800001Y-105594318D01*
X151799999Y-105594318D01*
X151643239Y-105614955D01*
X151643237Y-105614956D01*
X151497160Y-105675463D01*
X151371718Y-105771718D01*
X151275463Y-105897160D01*
X151214956Y-106043237D01*
X151214955Y-106043239D01*
X151194318Y-106199998D01*
X144049985Y-106199998D01*
X144124536Y-106102841D01*
X144185044Y-105956762D01*
X144205682Y-105800000D01*
X144202663Y-105777072D01*
X144187526Y-105662088D01*
X144185044Y-105643238D01*
X144124536Y-105497159D01*
X144028282Y-105371718D01*
X143902841Y-105275464D01*
X143756762Y-105214956D01*
X143756760Y-105214955D01*
X143600001Y-105194318D01*
X143599999Y-105194318D01*
X143443239Y-105214955D01*
X143443237Y-105214956D01*
X143297160Y-105275463D01*
X143171718Y-105371718D01*
X143075463Y-105497160D01*
X143014956Y-105643237D01*
X143014955Y-105643239D01*
X142994318Y-105799998D01*
X134250500Y-105799998D01*
X134250500Y-103692726D01*
X134571073Y-103692726D01*
X134571073Y-103850419D01*
X134601834Y-104005062D01*
X134601837Y-104005074D01*
X134662175Y-104150745D01*
X134662182Y-104150758D01*
X134749783Y-104281861D01*
X134749786Y-104281865D01*
X134861280Y-104393359D01*
X134861284Y-104393362D01*
X134992387Y-104480963D01*
X134992400Y-104480970D01*
X135138071Y-104541308D01*
X135138076Y-104541310D01*
X135290946Y-104571718D01*
X135292726Y-104572072D01*
X135292729Y-104572073D01*
X135292731Y-104572073D01*
X136050417Y-104572073D01*
X136050418Y-104572072D01*
X136205070Y-104541310D01*
X136350752Y-104480967D01*
X136481862Y-104393362D01*
X136593362Y-104281862D01*
X136680967Y-104150752D01*
X136741310Y-104005070D01*
X136772073Y-103850415D01*
X136772073Y-103692731D01*
X136772073Y-103692728D01*
X136772072Y-103692726D01*
X138501073Y-103692726D01*
X138501073Y-103850419D01*
X138531834Y-104005062D01*
X138531837Y-104005074D01*
X138592175Y-104150745D01*
X138592182Y-104150758D01*
X138679783Y-104281861D01*
X138679786Y-104281865D01*
X138791280Y-104393359D01*
X138791284Y-104393362D01*
X138922387Y-104480963D01*
X138922394Y-104480967D01*
X138979066Y-104504441D01*
X139033469Y-104548281D01*
X139055535Y-104614575D01*
X139038257Y-104682274D01*
X138993616Y-104726388D01*
X138968211Y-104741056D01*
X138968205Y-104741060D01*
X138861060Y-104848205D01*
X138861058Y-104848208D01*
X138785292Y-104979436D01*
X138746073Y-105125807D01*
X138746073Y-105277338D01*
X138785292Y-105423709D01*
X138801056Y-105451012D01*
X138861058Y-105554938D01*
X138968208Y-105662088D01*
X139099438Y-105737854D01*
X139245807Y-105777073D01*
X139245809Y-105777073D01*
X139397337Y-105777073D01*
X139397339Y-105777073D01*
X139543708Y-105737854D01*
X139674938Y-105662088D01*
X139782088Y-105554938D01*
X139857854Y-105423708D01*
X139897073Y-105277339D01*
X139897073Y-105125807D01*
X139857854Y-104979438D01*
X139782088Y-104848208D01*
X139717634Y-104783754D01*
X139684149Y-104722431D01*
X139689133Y-104652739D01*
X139731005Y-104596806D01*
X139796469Y-104572389D01*
X139805315Y-104572073D01*
X140480417Y-104572073D01*
X140480418Y-104572072D01*
X140635070Y-104541310D01*
X140780752Y-104480967D01*
X140878851Y-104415418D01*
X140945528Y-104394541D01*
X141012908Y-104413025D01*
X141059599Y-104465004D01*
X141062303Y-104471068D01*
X141064123Y-104475463D01*
X141075464Y-104502841D01*
X141171718Y-104628282D01*
X141297159Y-104724536D01*
X141443238Y-104785044D01*
X141521619Y-104795363D01*
X141599999Y-104805682D01*
X141600000Y-104805682D01*
X141600001Y-104805682D01*
X141652254Y-104798802D01*
X141756762Y-104785044D01*
X141841370Y-104749998D01*
X171544318Y-104749998D01*
X171544318Y-104750001D01*
X171564955Y-104906760D01*
X171564956Y-104906762D01*
X171614331Y-105025965D01*
X171625464Y-105052841D01*
X171721718Y-105178282D01*
X171847159Y-105274536D01*
X171993238Y-105335044D01*
X172010686Y-105337341D01*
X172149999Y-105355682D01*
X172150000Y-105355682D01*
X172150001Y-105355682D01*
X172202254Y-105348802D01*
X172306762Y-105335044D01*
X172452841Y-105274536D01*
X172578282Y-105178282D01*
X172674536Y-105052841D01*
X172696424Y-104999998D01*
X178744318Y-104999998D01*
X178744318Y-105000001D01*
X178764955Y-105156760D01*
X178764956Y-105156762D01*
X178815152Y-105277947D01*
X178825464Y-105302841D01*
X178921718Y-105428282D01*
X179047159Y-105524536D01*
X179193238Y-105585044D01*
X179244145Y-105591746D01*
X179349999Y-105605682D01*
X179350000Y-105605682D01*
X179350001Y-105605682D01*
X179402254Y-105598802D01*
X179506762Y-105585044D01*
X179652841Y-105524536D01*
X179778282Y-105428282D01*
X179874536Y-105302841D01*
X179935044Y-105156762D01*
X179955682Y-105000000D01*
X179935044Y-104843238D01*
X179874536Y-104697159D01*
X179778282Y-104571718D01*
X179652841Y-104475464D01*
X179642228Y-104471068D01*
X179506762Y-104414956D01*
X179506760Y-104414955D01*
X179350001Y-104394318D01*
X179349999Y-104394318D01*
X179193239Y-104414955D01*
X179193237Y-104414956D01*
X179047160Y-104475463D01*
X178921718Y-104571718D01*
X178825463Y-104697160D01*
X178764956Y-104843237D01*
X178764955Y-104843239D01*
X178744318Y-104999998D01*
X172696424Y-104999998D01*
X172735044Y-104906762D01*
X172755682Y-104750000D01*
X172752573Y-104726388D01*
X172741483Y-104642147D01*
X172735044Y-104593238D01*
X172674536Y-104447159D01*
X172578282Y-104321718D01*
X172452841Y-104225464D01*
X172445306Y-104222343D01*
X172306762Y-104164956D01*
X172306760Y-104164955D01*
X172150001Y-104144318D01*
X172149999Y-104144318D01*
X171993239Y-104164955D01*
X171993237Y-104164956D01*
X171847160Y-104225463D01*
X171721718Y-104321718D01*
X171625463Y-104447160D01*
X171564956Y-104593237D01*
X171564955Y-104593239D01*
X171544318Y-104749998D01*
X141841370Y-104749998D01*
X141902841Y-104724536D01*
X142028282Y-104628282D01*
X142124536Y-104502841D01*
X142185044Y-104356762D01*
X142205682Y-104200000D01*
X142201068Y-104164956D01*
X142185044Y-104043239D01*
X142185044Y-104043238D01*
X142124536Y-103897159D01*
X142028282Y-103771718D01*
X141902841Y-103675464D01*
X141756762Y-103614956D01*
X141756760Y-103614955D01*
X141600001Y-103594318D01*
X141599999Y-103594318D01*
X141443239Y-103614955D01*
X141443234Y-103614957D01*
X141345730Y-103655344D01*
X141276260Y-103662813D01*
X141213781Y-103631537D01*
X141178130Y-103571448D01*
X141176661Y-103564975D01*
X141171311Y-103538081D01*
X141171310Y-103538080D01*
X141171310Y-103538076D01*
X141165702Y-103524536D01*
X141114117Y-103399998D01*
X144194318Y-103399998D01*
X144194318Y-103400001D01*
X144214955Y-103556760D01*
X144214956Y-103556762D01*
X144275464Y-103702841D01*
X144371718Y-103828282D01*
X144497159Y-103924536D01*
X144643238Y-103985044D01*
X144704445Y-103993102D01*
X144799999Y-104005682D01*
X144800000Y-104005682D01*
X144800001Y-104005682D01*
X144843170Y-103999998D01*
X162894318Y-103999998D01*
X162894318Y-104000001D01*
X162914955Y-104156760D01*
X162914956Y-104156762D01*
X162975464Y-104302841D01*
X163071718Y-104428282D01*
X163197159Y-104524536D01*
X163343238Y-104585044D01*
X163405478Y-104593238D01*
X163499999Y-104605682D01*
X163500000Y-104605682D01*
X163500001Y-104605682D01*
X163594514Y-104593239D01*
X163656762Y-104585044D01*
X163802841Y-104524536D01*
X163928282Y-104428282D01*
X164024536Y-104302841D01*
X164085044Y-104156762D01*
X164105682Y-104000000D01*
X164085044Y-103843238D01*
X164024536Y-103697159D01*
X163928282Y-103571718D01*
X163802841Y-103475464D01*
X163656762Y-103414956D01*
X163656760Y-103414955D01*
X163500001Y-103394318D01*
X163499999Y-103394318D01*
X163343239Y-103414955D01*
X163343237Y-103414956D01*
X163197160Y-103475463D01*
X163071718Y-103571718D01*
X162975463Y-103697160D01*
X162914956Y-103843237D01*
X162914955Y-103843239D01*
X162894318Y-103999998D01*
X144843170Y-103999998D01*
X144852254Y-103998802D01*
X144956762Y-103985044D01*
X145102841Y-103924536D01*
X145228282Y-103828282D01*
X145324536Y-103702841D01*
X145385044Y-103556762D01*
X145405682Y-103400000D01*
X145404681Y-103392400D01*
X145385044Y-103243239D01*
X145385044Y-103243238D01*
X145324536Y-103097159D01*
X145249982Y-102999998D01*
X153394318Y-102999998D01*
X153394318Y-103000001D01*
X153414955Y-103156760D01*
X153414956Y-103156762D01*
X153450775Y-103243238D01*
X153475464Y-103302841D01*
X153571718Y-103428282D01*
X153697159Y-103524536D01*
X153843238Y-103585044D01*
X153913681Y-103594318D01*
X153999999Y-103605682D01*
X154000000Y-103605682D01*
X154000001Y-103605682D01*
X154052254Y-103598802D01*
X154156762Y-103585044D01*
X154302841Y-103524536D01*
X154428282Y-103428282D01*
X154524536Y-103302841D01*
X154564277Y-103206898D01*
X182224500Y-103206898D01*
X182224500Y-103993102D01*
X182225938Y-104005074D01*
X182235122Y-104081561D01*
X182290639Y-104222343D01*
X182382077Y-104342922D01*
X182502656Y-104434360D01*
X182502657Y-104434360D01*
X182502658Y-104434361D01*
X182643436Y-104489877D01*
X182731898Y-104500500D01*
X182731903Y-104500500D01*
X182802920Y-104500500D01*
X182869959Y-104520185D01*
X182915714Y-104572989D01*
X182925658Y-104642147D01*
X182896633Y-104705703D01*
X182850372Y-104739060D01*
X182834134Y-104745786D01*
X182698458Y-104801983D01*
X182698446Y-104801990D01*
X182550965Y-104900535D01*
X182550961Y-104900538D01*
X182425538Y-105025961D01*
X182425535Y-105025965D01*
X182326990Y-105173446D01*
X182326983Y-105173459D01*
X182259106Y-105337332D01*
X182259103Y-105337341D01*
X182224500Y-105511304D01*
X182224500Y-105688695D01*
X182259103Y-105862658D01*
X182259106Y-105862667D01*
X182326983Y-106026540D01*
X182326990Y-106026553D01*
X182425535Y-106174034D01*
X182425538Y-106174038D01*
X182550961Y-106299461D01*
X182550965Y-106299464D01*
X182698446Y-106398009D01*
X182698459Y-106398016D01*
X182817060Y-106447141D01*
X182862334Y-106465894D01*
X182882594Y-106469924D01*
X182925118Y-106478383D01*
X182987028Y-106510768D01*
X183021603Y-106571484D01*
X183017863Y-106641253D01*
X182976996Y-106697925D01*
X182925118Y-106721617D01*
X182862340Y-106734104D01*
X182862332Y-106734106D01*
X182698459Y-106801983D01*
X182698446Y-106801990D01*
X182550965Y-106900535D01*
X182550961Y-106900538D01*
X182425538Y-107025961D01*
X182425535Y-107025965D01*
X182326990Y-107173446D01*
X182326983Y-107173459D01*
X182259106Y-107337332D01*
X182259103Y-107337341D01*
X182224500Y-107511304D01*
X182224500Y-107688695D01*
X182259103Y-107862658D01*
X182259106Y-107862667D01*
X182326983Y-108026540D01*
X182326990Y-108026553D01*
X182425535Y-108174034D01*
X182425538Y-108174038D01*
X182550961Y-108299461D01*
X182550965Y-108299464D01*
X182698446Y-108398009D01*
X182698459Y-108398016D01*
X182821363Y-108448923D01*
X182862334Y-108465894D01*
X182882594Y-108469924D01*
X182925118Y-108478383D01*
X182987028Y-108510768D01*
X183021603Y-108571484D01*
X183017863Y-108641253D01*
X182976996Y-108697925D01*
X182925118Y-108721617D01*
X182862340Y-108734104D01*
X182862332Y-108734106D01*
X182698459Y-108801983D01*
X182698446Y-108801990D01*
X182550965Y-108900535D01*
X182550961Y-108900538D01*
X182425538Y-109025961D01*
X182425535Y-109025965D01*
X182326990Y-109173446D01*
X182326983Y-109173459D01*
X182259106Y-109337332D01*
X182259103Y-109337341D01*
X182224500Y-109511304D01*
X182224500Y-109688695D01*
X182259103Y-109862658D01*
X182259106Y-109862667D01*
X182326983Y-110026540D01*
X182326990Y-110026553D01*
X182425535Y-110174034D01*
X182425538Y-110174038D01*
X182550961Y-110299461D01*
X182550965Y-110299464D01*
X182698446Y-110398009D01*
X182698459Y-110398016D01*
X182807637Y-110443238D01*
X182862334Y-110465894D01*
X182862336Y-110465894D01*
X182862341Y-110465896D01*
X183036304Y-110500499D01*
X183036307Y-110500500D01*
X183036309Y-110500500D01*
X183763693Y-110500500D01*
X183763694Y-110500499D01*
X183821682Y-110488964D01*
X183937658Y-110465896D01*
X183937661Y-110465894D01*
X183937666Y-110465894D01*
X184082088Y-110406073D01*
X184101540Y-110398016D01*
X184101540Y-110398015D01*
X184101547Y-110398013D01*
X184249035Y-110299464D01*
X184374464Y-110174035D01*
X184473013Y-110026547D01*
X184540894Y-109862666D01*
X184550385Y-109814955D01*
X184575499Y-109688695D01*
X184575500Y-109688693D01*
X184575500Y-109511306D01*
X184575499Y-109511304D01*
X184540896Y-109337341D01*
X184540893Y-109337332D01*
X184473016Y-109173459D01*
X184473009Y-109173446D01*
X184374464Y-109025965D01*
X184374461Y-109025961D01*
X184249038Y-108900538D01*
X184249034Y-108900535D01*
X184101553Y-108801990D01*
X184101540Y-108801983D01*
X183937667Y-108734106D01*
X183937658Y-108734103D01*
X183874882Y-108721617D01*
X183812971Y-108689232D01*
X183778397Y-108628517D01*
X183782136Y-108558747D01*
X183823003Y-108502075D01*
X183874882Y-108478383D01*
X183937658Y-108465896D01*
X183937661Y-108465894D01*
X183937666Y-108465894D01*
X184101547Y-108398013D01*
X184249035Y-108299464D01*
X184374464Y-108174035D01*
X184473013Y-108026547D01*
X184540894Y-107862666D01*
X184552795Y-107802839D01*
X184575499Y-107688695D01*
X184575500Y-107688693D01*
X184575500Y-107511306D01*
X184575499Y-107511304D01*
X184540896Y-107337341D01*
X184540893Y-107337332D01*
X184473016Y-107173459D01*
X184473009Y-107173446D01*
X184374464Y-107025965D01*
X184374461Y-107025961D01*
X184249038Y-106900538D01*
X184249034Y-106900535D01*
X184101553Y-106801990D01*
X184101540Y-106801983D01*
X183937667Y-106734106D01*
X183937658Y-106734103D01*
X183874882Y-106721617D01*
X183812971Y-106689232D01*
X183778397Y-106628517D01*
X183782136Y-106558747D01*
X183823003Y-106502075D01*
X183874882Y-106478383D01*
X183937658Y-106465896D01*
X183937661Y-106465894D01*
X183937666Y-106465894D01*
X184101547Y-106398013D01*
X184249035Y-106299464D01*
X184374464Y-106174035D01*
X184473013Y-106026547D01*
X184540894Y-105862666D01*
X184575500Y-105688691D01*
X184575500Y-105511309D01*
X184575500Y-105511306D01*
X184575499Y-105511304D01*
X184540896Y-105337341D01*
X184540893Y-105337332D01*
X184473016Y-105173459D01*
X184473009Y-105173446D01*
X184374464Y-105025965D01*
X184374461Y-105025961D01*
X184249038Y-104900538D01*
X184249034Y-104900535D01*
X184101553Y-104801990D01*
X184101541Y-104801983D01*
X183969718Y-104747382D01*
X183949627Y-104739060D01*
X183895224Y-104695221D01*
X183873159Y-104628927D01*
X183890438Y-104561227D01*
X183941575Y-104513617D01*
X183997080Y-104500500D01*
X184068097Y-104500500D01*
X184068102Y-104500500D01*
X184156564Y-104489877D01*
X184297342Y-104434361D01*
X184417922Y-104342922D01*
X184509361Y-104222342D01*
X184564877Y-104081564D01*
X184575500Y-103993102D01*
X184575500Y-103206898D01*
X184564877Y-103118436D01*
X184509361Y-102977658D01*
X184509360Y-102977657D01*
X184509360Y-102977656D01*
X184417922Y-102857077D01*
X184297343Y-102765639D01*
X184156561Y-102710122D01*
X184110926Y-102704642D01*
X184068102Y-102699500D01*
X182731898Y-102699500D01*
X182692853Y-102704188D01*
X182643438Y-102710122D01*
X182502656Y-102765639D01*
X182382077Y-102857077D01*
X182290639Y-102977656D01*
X182235122Y-103118438D01*
X182229188Y-103167853D01*
X182224500Y-103206898D01*
X154564277Y-103206898D01*
X154585044Y-103156762D01*
X154605682Y-103000000D01*
X154602740Y-102977656D01*
X154585044Y-102843239D01*
X154585044Y-102843238D01*
X154524536Y-102697159D01*
X154428282Y-102571718D01*
X154334814Y-102499998D01*
X178394318Y-102499998D01*
X178394318Y-102500001D01*
X178414955Y-102656760D01*
X178414956Y-102656762D01*
X178471933Y-102794318D01*
X178475464Y-102802841D01*
X178571718Y-102928282D01*
X178697159Y-103024536D01*
X178843238Y-103085044D01*
X178921619Y-103095363D01*
X178999999Y-103105682D01*
X179000000Y-103105682D01*
X179000001Y-103105682D01*
X179064739Y-103097159D01*
X179156762Y-103085044D01*
X179302841Y-103024536D01*
X179428282Y-102928282D01*
X179524536Y-102802841D01*
X179585044Y-102656762D01*
X179605682Y-102500000D01*
X179585044Y-102343238D01*
X179524536Y-102197159D01*
X179428282Y-102071718D01*
X179302841Y-101975464D01*
X179156762Y-101914956D01*
X179156760Y-101914955D01*
X179000001Y-101894318D01*
X178999999Y-101894318D01*
X178843239Y-101914955D01*
X178843237Y-101914956D01*
X178697160Y-101975463D01*
X178571718Y-102071718D01*
X178475463Y-102197160D01*
X178414956Y-102343237D01*
X178414955Y-102343239D01*
X178394318Y-102499998D01*
X154334814Y-102499998D01*
X154302841Y-102475464D01*
X154156762Y-102414956D01*
X154156760Y-102414955D01*
X154000001Y-102394318D01*
X153999999Y-102394318D01*
X153843239Y-102414955D01*
X153843237Y-102414956D01*
X153697160Y-102475463D01*
X153571718Y-102571718D01*
X153475463Y-102697160D01*
X153414956Y-102843237D01*
X153414955Y-102843239D01*
X153394318Y-102999998D01*
X145249982Y-102999998D01*
X145228282Y-102971718D01*
X145102841Y-102875464D01*
X145058453Y-102857078D01*
X144956762Y-102814956D01*
X144956760Y-102814955D01*
X144800001Y-102794318D01*
X144799999Y-102794318D01*
X144643239Y-102814955D01*
X144643237Y-102814956D01*
X144497160Y-102875463D01*
X144371718Y-102971718D01*
X144275463Y-103097160D01*
X144214956Y-103243237D01*
X144214955Y-103243239D01*
X144194318Y-103399998D01*
X141114117Y-103399998D01*
X141110970Y-103392400D01*
X141110963Y-103392387D01*
X141023362Y-103261284D01*
X141023359Y-103261280D01*
X140911865Y-103149786D01*
X140911861Y-103149783D01*
X140780758Y-103062182D01*
X140780745Y-103062175D01*
X140635074Y-103001837D01*
X140635062Y-103001834D01*
X140480418Y-102971073D01*
X140480415Y-102971073D01*
X139222731Y-102971073D01*
X139222728Y-102971073D01*
X139068083Y-103001834D01*
X139068071Y-103001837D01*
X138922400Y-103062175D01*
X138922387Y-103062182D01*
X138791284Y-103149783D01*
X138791280Y-103149786D01*
X138679786Y-103261280D01*
X138679783Y-103261284D01*
X138592182Y-103392387D01*
X138592175Y-103392400D01*
X138531837Y-103538071D01*
X138531834Y-103538083D01*
X138501073Y-103692726D01*
X136772072Y-103692726D01*
X136759901Y-103631537D01*
X136741310Y-103538076D01*
X136735702Y-103524536D01*
X136680970Y-103392400D01*
X136680963Y-103392387D01*
X136593362Y-103261284D01*
X136593359Y-103261280D01*
X136481865Y-103149786D01*
X136481861Y-103149783D01*
X136350758Y-103062182D01*
X136350745Y-103062175D01*
X136205074Y-103001837D01*
X136205062Y-103001834D01*
X136050418Y-102971073D01*
X136050415Y-102971073D01*
X135292731Y-102971073D01*
X135292728Y-102971073D01*
X135138083Y-103001834D01*
X135138071Y-103001837D01*
X134992400Y-103062175D01*
X134992387Y-103062182D01*
X134861284Y-103149783D01*
X134861280Y-103149786D01*
X134749786Y-103261280D01*
X134749783Y-103261284D01*
X134662182Y-103392387D01*
X134662175Y-103392400D01*
X134601837Y-103538071D01*
X134601834Y-103538083D01*
X134571073Y-103692726D01*
X134250500Y-103692726D01*
X134250500Y-100999998D01*
X135394318Y-100999998D01*
X135394318Y-101000001D01*
X135414955Y-101156760D01*
X135414956Y-101156762D01*
X135475464Y-101302841D01*
X135571718Y-101428282D01*
X135697159Y-101524536D01*
X135843238Y-101585044D01*
X135921619Y-101595363D01*
X135999999Y-101605682D01*
X136000000Y-101605682D01*
X136000001Y-101605682D01*
X136052254Y-101598802D01*
X136156762Y-101585044D01*
X136302841Y-101524536D01*
X136334820Y-101499998D01*
X166394318Y-101499998D01*
X166394318Y-101500001D01*
X166414955Y-101656760D01*
X166414956Y-101656762D01*
X166475464Y-101802841D01*
X166571718Y-101928282D01*
X166697159Y-102024536D01*
X166843238Y-102085044D01*
X166921619Y-102095363D01*
X166999999Y-102105682D01*
X167000000Y-102105682D01*
X167000001Y-102105682D01*
X167052254Y-102098802D01*
X167156762Y-102085044D01*
X167302841Y-102024536D01*
X167428282Y-101928282D01*
X167524536Y-101802841D01*
X167585044Y-101656762D01*
X167605682Y-101500000D01*
X167585044Y-101343238D01*
X167524536Y-101197159D01*
X167428282Y-101071718D01*
X167334814Y-100999998D01*
X168894318Y-100999998D01*
X168894318Y-101000001D01*
X168914955Y-101156760D01*
X168914956Y-101156762D01*
X168975464Y-101302841D01*
X169071718Y-101428282D01*
X169197159Y-101524536D01*
X169343238Y-101585044D01*
X169421619Y-101595363D01*
X169499999Y-101605682D01*
X169500000Y-101605682D01*
X169500001Y-101605682D01*
X169552254Y-101598802D01*
X169656762Y-101585044D01*
X169802841Y-101524536D01*
X169928282Y-101428282D01*
X170024536Y-101302841D01*
X170085044Y-101156762D01*
X170086256Y-101147553D01*
X170114521Y-101083657D01*
X170172845Y-101045186D01*
X170242710Y-101044353D01*
X170256645Y-101049176D01*
X170343238Y-101085044D01*
X170421619Y-101095363D01*
X170499999Y-101105682D01*
X170500000Y-101105682D01*
X170500001Y-101105682D01*
X170552254Y-101098802D01*
X170656762Y-101085044D01*
X170802841Y-101024536D01*
X170928282Y-100928282D01*
X171024536Y-100802841D01*
X171085044Y-100656762D01*
X171105682Y-100500000D01*
X171099842Y-100455644D01*
X171085044Y-100343239D01*
X171085044Y-100343238D01*
X171024536Y-100197159D01*
X170928282Y-100071718D01*
X170802841Y-99975464D01*
X170656762Y-99914956D01*
X170656760Y-99914955D01*
X170500001Y-99894318D01*
X170499999Y-99894318D01*
X170343239Y-99914955D01*
X170343237Y-99914956D01*
X170197160Y-99975463D01*
X170071718Y-100071718D01*
X169975463Y-100197160D01*
X169914956Y-100343237D01*
X169914954Y-100343244D01*
X169913742Y-100352452D01*
X169885473Y-100416348D01*
X169827146Y-100454816D01*
X169757281Y-100455644D01*
X169743352Y-100450822D01*
X169656765Y-100414957D01*
X169656760Y-100414955D01*
X169500001Y-100394318D01*
X169499999Y-100394318D01*
X169343239Y-100414955D01*
X169343237Y-100414956D01*
X169197160Y-100475463D01*
X169071718Y-100571718D01*
X168975463Y-100697160D01*
X168914956Y-100843237D01*
X168914955Y-100843239D01*
X168894318Y-100999998D01*
X167334814Y-100999998D01*
X167302841Y-100975464D01*
X167156762Y-100914956D01*
X167156760Y-100914955D01*
X167000001Y-100894318D01*
X166999999Y-100894318D01*
X166843239Y-100914955D01*
X166843237Y-100914956D01*
X166697160Y-100975463D01*
X166571718Y-101071718D01*
X166475463Y-101197160D01*
X166414956Y-101343237D01*
X166414955Y-101343239D01*
X166394318Y-101499998D01*
X136334820Y-101499998D01*
X136428282Y-101428282D01*
X136524536Y-101302841D01*
X136585044Y-101156762D01*
X136605682Y-101000000D01*
X136585044Y-100843238D01*
X136524536Y-100697159D01*
X136428282Y-100571718D01*
X136302841Y-100475464D01*
X136254991Y-100455644D01*
X136156762Y-100414956D01*
X136156760Y-100414955D01*
X136000001Y-100394318D01*
X135999999Y-100394318D01*
X135843239Y-100414955D01*
X135843237Y-100414956D01*
X135697160Y-100475463D01*
X135571718Y-100571718D01*
X135475463Y-100697160D01*
X135414956Y-100843237D01*
X135414955Y-100843239D01*
X135394318Y-100999998D01*
X134250500Y-100999998D01*
X134250500Y-98199998D01*
X135394318Y-98199998D01*
X135394318Y-98200001D01*
X135414955Y-98356760D01*
X135414956Y-98356762D01*
X135475464Y-98502841D01*
X135571718Y-98628282D01*
X135697159Y-98724536D01*
X135843238Y-98785044D01*
X135921619Y-98795363D01*
X135999999Y-98805682D01*
X136000000Y-98805682D01*
X136000001Y-98805682D01*
X136052254Y-98798802D01*
X136156762Y-98785044D01*
X136302841Y-98724536D01*
X136428282Y-98628282D01*
X136524536Y-98502841D01*
X136585044Y-98356762D01*
X136605682Y-98200000D01*
X136599989Y-98156760D01*
X136585044Y-98043239D01*
X136585044Y-98043238D01*
X136524536Y-97897159D01*
X136428282Y-97771718D01*
X136302841Y-97675464D01*
X136257690Y-97656762D01*
X136156762Y-97614956D01*
X136156760Y-97614955D01*
X136000001Y-97594318D01*
X135999999Y-97594318D01*
X135843239Y-97614955D01*
X135843237Y-97614956D01*
X135697160Y-97675463D01*
X135571718Y-97771718D01*
X135475463Y-97897160D01*
X135414956Y-98043237D01*
X135414955Y-98043239D01*
X135394318Y-98199998D01*
X134250500Y-98199998D01*
X134250500Y-97499998D01*
X161394318Y-97499998D01*
X161394318Y-97500001D01*
X161414955Y-97656760D01*
X161414956Y-97656762D01*
X161475464Y-97802841D01*
X161571718Y-97928282D01*
X161697159Y-98024536D01*
X161843238Y-98085044D01*
X161921619Y-98095363D01*
X161999999Y-98105682D01*
X162000000Y-98105682D01*
X162000001Y-98105682D01*
X162052254Y-98098802D01*
X162156762Y-98085044D01*
X162302841Y-98024536D01*
X162428282Y-97928282D01*
X162524536Y-97802841D01*
X162585044Y-97656762D01*
X162605682Y-97500000D01*
X162605682Y-97499998D01*
X165894318Y-97499998D01*
X165894318Y-97500001D01*
X165914955Y-97656760D01*
X165914956Y-97656762D01*
X165975464Y-97802841D01*
X166071718Y-97928282D01*
X166197159Y-98024536D01*
X166343238Y-98085044D01*
X166421619Y-98095363D01*
X166499999Y-98105682D01*
X166500000Y-98105682D01*
X166500001Y-98105682D01*
X166552254Y-98098802D01*
X166656762Y-98085044D01*
X166802841Y-98024536D01*
X166834820Y-97999998D01*
X170394318Y-97999998D01*
X170394318Y-98000001D01*
X170414955Y-98156760D01*
X170414956Y-98156762D01*
X170475464Y-98302842D01*
X170568826Y-98424514D01*
X170594020Y-98489683D01*
X170579981Y-98558128D01*
X170568826Y-98575486D01*
X170475464Y-98697157D01*
X170414956Y-98843237D01*
X170414955Y-98843239D01*
X170394318Y-98999998D01*
X170394318Y-99000001D01*
X170414955Y-99156760D01*
X170414956Y-99156762D01*
X170475464Y-99302841D01*
X170571718Y-99428282D01*
X170697159Y-99524536D01*
X170843238Y-99585044D01*
X170921619Y-99595363D01*
X170999999Y-99605682D01*
X171000000Y-99605682D01*
X171000001Y-99605682D01*
X171052254Y-99598802D01*
X171156762Y-99585044D01*
X171302841Y-99524536D01*
X171428282Y-99428282D01*
X171524536Y-99302841D01*
X171585044Y-99156762D01*
X171605682Y-99000000D01*
X171585044Y-98843238D01*
X171524536Y-98697159D01*
X171431171Y-98575484D01*
X171405979Y-98510317D01*
X171420017Y-98441873D01*
X171431167Y-98424521D01*
X171524536Y-98302841D01*
X171585044Y-98156762D01*
X171605682Y-98000000D01*
X171585044Y-97843238D01*
X171524536Y-97697159D01*
X171428282Y-97571718D01*
X171302841Y-97475464D01*
X171156762Y-97414956D01*
X171156760Y-97414955D01*
X171000001Y-97394318D01*
X170999999Y-97394318D01*
X170843239Y-97414955D01*
X170843237Y-97414956D01*
X170697160Y-97475463D01*
X170571718Y-97571718D01*
X170475463Y-97697160D01*
X170414956Y-97843237D01*
X170414955Y-97843239D01*
X170394318Y-97999998D01*
X166834820Y-97999998D01*
X166928282Y-97928282D01*
X167024536Y-97802841D01*
X167085044Y-97656762D01*
X167105682Y-97500000D01*
X167085044Y-97343238D01*
X167024536Y-97197159D01*
X166928282Y-97071718D01*
X166802841Y-96975464D01*
X166656762Y-96914956D01*
X166656760Y-96914955D01*
X166500001Y-96894318D01*
X166499999Y-96894318D01*
X166343239Y-96914955D01*
X166343237Y-96914956D01*
X166197160Y-96975463D01*
X166071718Y-97071718D01*
X165975463Y-97197160D01*
X165914956Y-97343237D01*
X165914955Y-97343239D01*
X165894318Y-97499998D01*
X162605682Y-97499998D01*
X162585044Y-97343238D01*
X162524536Y-97197159D01*
X162428282Y-97071718D01*
X162302841Y-96975464D01*
X162156762Y-96914956D01*
X162156760Y-96914955D01*
X162000001Y-96894318D01*
X161999999Y-96894318D01*
X161843239Y-96914955D01*
X161843237Y-96914956D01*
X161697160Y-96975463D01*
X161571718Y-97071718D01*
X161475463Y-97197160D01*
X161414956Y-97343237D01*
X161414955Y-97343239D01*
X161394318Y-97499998D01*
X134250500Y-97499998D01*
X134250500Y-96499998D01*
X154894318Y-96499998D01*
X154894318Y-96500001D01*
X154914955Y-96656760D01*
X154914956Y-96656762D01*
X154975464Y-96802841D01*
X155071718Y-96928282D01*
X155197159Y-97024536D01*
X155343238Y-97085044D01*
X155421619Y-97095363D01*
X155499999Y-97105682D01*
X155500000Y-97105682D01*
X155500001Y-97105682D01*
X155552254Y-97098802D01*
X155656762Y-97085044D01*
X155802841Y-97024536D01*
X155928282Y-96928282D01*
X156024536Y-96802841D01*
X156085044Y-96656762D01*
X156105682Y-96500000D01*
X156105682Y-96499998D01*
X167394318Y-96499998D01*
X167394318Y-96500001D01*
X167414955Y-96656760D01*
X167414956Y-96656762D01*
X167475464Y-96802841D01*
X167571718Y-96928282D01*
X167697159Y-97024536D01*
X167843238Y-97085044D01*
X167921619Y-97095363D01*
X167999999Y-97105682D01*
X168000000Y-97105682D01*
X168000001Y-97105682D01*
X168052254Y-97098802D01*
X168156762Y-97085044D01*
X168302841Y-97024536D01*
X168428282Y-96928282D01*
X168524536Y-96802841D01*
X168585044Y-96656762D01*
X168605682Y-96500000D01*
X168605682Y-96499998D01*
X169894318Y-96499998D01*
X169894318Y-96500001D01*
X169914955Y-96656760D01*
X169914956Y-96656762D01*
X169975464Y-96802841D01*
X170071718Y-96928282D01*
X170197159Y-97024536D01*
X170343238Y-97085044D01*
X170421619Y-97095363D01*
X170499999Y-97105682D01*
X170500000Y-97105682D01*
X170500001Y-97105682D01*
X170552254Y-97098802D01*
X170656762Y-97085044D01*
X170802841Y-97024536D01*
X170928282Y-96928282D01*
X171024536Y-96802841D01*
X171085044Y-96656762D01*
X171105682Y-96500000D01*
X171085044Y-96343238D01*
X171024536Y-96197159D01*
X170928282Y-96071718D01*
X170802841Y-95975464D01*
X170656762Y-95914956D01*
X170656760Y-95914955D01*
X170500001Y-95894318D01*
X170499999Y-95894318D01*
X170343239Y-95914955D01*
X170343237Y-95914956D01*
X170197160Y-95975463D01*
X170071718Y-96071718D01*
X169975463Y-96197160D01*
X169914956Y-96343237D01*
X169914955Y-96343239D01*
X169894318Y-96499998D01*
X168605682Y-96499998D01*
X168585044Y-96343238D01*
X168524536Y-96197159D01*
X168428282Y-96071718D01*
X168302841Y-95975464D01*
X168156762Y-95914956D01*
X168156760Y-95914955D01*
X168000001Y-95894318D01*
X167999999Y-95894318D01*
X167843239Y-95914955D01*
X167843237Y-95914956D01*
X167697160Y-95975463D01*
X167571718Y-96071718D01*
X167475463Y-96197160D01*
X167414956Y-96343237D01*
X167414955Y-96343239D01*
X167394318Y-96499998D01*
X156105682Y-96499998D01*
X156085044Y-96343238D01*
X156024536Y-96197159D01*
X155928282Y-96071718D01*
X155802841Y-95975464D01*
X155656762Y-95914956D01*
X155656760Y-95914955D01*
X155500001Y-95894318D01*
X155499999Y-95894318D01*
X155343239Y-95914955D01*
X155343237Y-95914956D01*
X155197160Y-95975463D01*
X155071718Y-96071718D01*
X154975463Y-96197160D01*
X154914956Y-96343237D01*
X154914955Y-96343239D01*
X154894318Y-96499998D01*
X134250500Y-96499998D01*
X134250500Y-89199998D01*
X145194318Y-89199998D01*
X145194318Y-89200001D01*
X145214955Y-89356760D01*
X145214956Y-89356762D01*
X145275464Y-89502841D01*
X145371718Y-89628282D01*
X145497159Y-89724536D01*
X145643238Y-89785044D01*
X145721619Y-89795363D01*
X145799999Y-89805682D01*
X145800000Y-89805682D01*
X145800001Y-89805682D01*
X145852254Y-89798802D01*
X145956762Y-89785044D01*
X146102841Y-89724536D01*
X146228282Y-89628282D01*
X146324536Y-89502841D01*
X146385044Y-89356762D01*
X146405682Y-89200000D01*
X146400577Y-89161227D01*
X146385044Y-89043239D01*
X146385044Y-89043238D01*
X146324536Y-88897159D01*
X146228282Y-88771718D01*
X146102841Y-88675464D01*
X145956762Y-88614956D01*
X145956760Y-88614955D01*
X145800001Y-88594318D01*
X145799999Y-88594318D01*
X145643239Y-88614955D01*
X145643237Y-88614956D01*
X145497160Y-88675463D01*
X145371718Y-88771718D01*
X145275463Y-88897160D01*
X145214956Y-89043237D01*
X145214955Y-89043239D01*
X145194318Y-89199998D01*
X134250500Y-89199998D01*
X134250500Y-85999998D01*
X153394318Y-85999998D01*
X153394318Y-86000001D01*
X153414955Y-86156760D01*
X153414956Y-86156762D01*
X153475464Y-86302842D01*
X153568826Y-86424514D01*
X153594020Y-86489683D01*
X153579981Y-86558128D01*
X153568826Y-86575486D01*
X153475464Y-86697157D01*
X153414956Y-86843237D01*
X153414955Y-86843239D01*
X153394318Y-86999998D01*
X153394318Y-87000001D01*
X153414955Y-87156760D01*
X153414956Y-87156762D01*
X153475464Y-87302842D01*
X153568826Y-87424514D01*
X153594020Y-87489683D01*
X153579981Y-87558128D01*
X153568826Y-87575486D01*
X153475464Y-87697157D01*
X153414956Y-87843237D01*
X153414955Y-87843239D01*
X153394318Y-87999998D01*
X153394318Y-88000001D01*
X153414955Y-88156760D01*
X153414956Y-88156762D01*
X153475464Y-88302842D01*
X153568826Y-88424514D01*
X153594020Y-88489683D01*
X153579981Y-88558128D01*
X153568826Y-88575486D01*
X153475464Y-88697157D01*
X153414956Y-88843237D01*
X153414955Y-88843239D01*
X153394318Y-88999998D01*
X153394318Y-89000001D01*
X153414955Y-89156760D01*
X153414956Y-89156762D01*
X153475464Y-89302842D01*
X153568826Y-89424514D01*
X153594020Y-89489683D01*
X153579981Y-89558128D01*
X153568826Y-89575486D01*
X153475464Y-89697157D01*
X153414956Y-89843237D01*
X153414955Y-89843239D01*
X153394318Y-89999998D01*
X153394318Y-90000001D01*
X153414955Y-90156760D01*
X153414956Y-90156762D01*
X153475464Y-90302842D01*
X153568826Y-90424514D01*
X153594020Y-90489683D01*
X153579981Y-90558128D01*
X153568826Y-90575486D01*
X153475464Y-90697157D01*
X153414956Y-90843237D01*
X153414955Y-90843239D01*
X153394318Y-90999998D01*
X153394318Y-91000001D01*
X153414955Y-91156760D01*
X153414956Y-91156762D01*
X153475464Y-91302842D01*
X153568826Y-91424514D01*
X153594020Y-91489683D01*
X153579981Y-91558128D01*
X153568826Y-91575486D01*
X153475464Y-91697157D01*
X153414956Y-91843237D01*
X153414955Y-91843239D01*
X153394318Y-91999998D01*
X153394318Y-92000001D01*
X153414955Y-92156760D01*
X153414956Y-92156762D01*
X153475464Y-92302842D01*
X153568826Y-92424514D01*
X153594020Y-92489683D01*
X153579981Y-92558128D01*
X153568826Y-92575486D01*
X153475464Y-92697157D01*
X153414956Y-92843237D01*
X153414955Y-92843239D01*
X153394318Y-92999998D01*
X153394318Y-93000001D01*
X153414955Y-93156760D01*
X153414956Y-93156762D01*
X153475464Y-93302841D01*
X153571718Y-93428282D01*
X153697159Y-93524536D01*
X153843238Y-93585044D01*
X153921619Y-93595363D01*
X153999999Y-93605682D01*
X154000000Y-93605682D01*
X154000001Y-93605682D01*
X154052254Y-93598802D01*
X154156762Y-93585044D01*
X154302841Y-93524536D01*
X154424515Y-93431171D01*
X154489683Y-93405979D01*
X154558127Y-93420017D01*
X154575478Y-93431167D01*
X154697159Y-93524536D01*
X154843238Y-93585044D01*
X154921619Y-93595363D01*
X154999999Y-93605682D01*
X155000000Y-93605682D01*
X155000001Y-93605682D01*
X155052254Y-93598802D01*
X155156762Y-93585044D01*
X155302841Y-93524536D01*
X155424515Y-93431171D01*
X155489683Y-93405979D01*
X155558127Y-93420017D01*
X155575478Y-93431167D01*
X155697159Y-93524536D01*
X155843238Y-93585044D01*
X155921619Y-93595363D01*
X155999999Y-93605682D01*
X156000000Y-93605682D01*
X156000001Y-93605682D01*
X156052254Y-93598802D01*
X156156762Y-93585044D01*
X156302841Y-93524536D01*
X156424515Y-93431171D01*
X156489683Y-93405979D01*
X156558127Y-93420017D01*
X156575478Y-93431167D01*
X156697159Y-93524536D01*
X156843238Y-93585044D01*
X156921619Y-93595363D01*
X156999999Y-93605682D01*
X157000000Y-93605682D01*
X157000001Y-93605682D01*
X157052254Y-93598802D01*
X157156762Y-93585044D01*
X157302841Y-93524536D01*
X157428282Y-93428282D01*
X157524536Y-93302841D01*
X157585044Y-93156762D01*
X157605682Y-93000000D01*
X157605420Y-92998013D01*
X157585044Y-92843239D01*
X157585044Y-92843238D01*
X157524536Y-92697159D01*
X157431171Y-92575484D01*
X157405979Y-92510317D01*
X157420017Y-92441873D01*
X157431167Y-92424521D01*
X157524536Y-92302841D01*
X157585044Y-92156762D01*
X157605682Y-92000000D01*
X157585044Y-91843238D01*
X157524536Y-91697159D01*
X157431171Y-91575484D01*
X157423303Y-91555131D01*
X159699500Y-91555131D01*
X159699500Y-93644856D01*
X159699502Y-93644882D01*
X159702413Y-93669987D01*
X159702415Y-93669991D01*
X159747793Y-93772764D01*
X159747794Y-93772765D01*
X159827235Y-93852206D01*
X159930009Y-93897585D01*
X159955135Y-93900500D01*
X162044864Y-93900499D01*
X162044879Y-93900497D01*
X162044882Y-93900497D01*
X162069987Y-93897586D01*
X162069988Y-93897585D01*
X162069991Y-93897585D01*
X162172765Y-93852206D01*
X162252206Y-93772765D01*
X162297585Y-93669991D01*
X162300500Y-93644865D01*
X162300499Y-91555136D01*
X162300497Y-91555117D01*
X162297586Y-91530012D01*
X162297585Y-91530010D01*
X162297585Y-91530009D01*
X162284334Y-91499998D01*
X174894318Y-91499998D01*
X174894318Y-91500001D01*
X174914955Y-91656760D01*
X174914956Y-91656762D01*
X174963293Y-91773459D01*
X174975464Y-91802841D01*
X175071718Y-91928282D01*
X175197159Y-92024536D01*
X175343238Y-92085044D01*
X175421619Y-92095363D01*
X175499999Y-92105682D01*
X175500000Y-92105682D01*
X175500001Y-92105682D01*
X175552254Y-92098802D01*
X175656762Y-92085044D01*
X175802841Y-92024536D01*
X175928282Y-91928282D01*
X176024536Y-91802841D01*
X176085044Y-91656762D01*
X176105611Y-91500538D01*
X176105682Y-91500001D01*
X176105682Y-91499998D01*
X176085044Y-91343239D01*
X176085044Y-91343238D01*
X176024536Y-91197159D01*
X175928282Y-91071718D01*
X175802841Y-90975464D01*
X175656762Y-90914956D01*
X175656760Y-90914955D01*
X175500001Y-90894318D01*
X175499999Y-90894318D01*
X175343239Y-90914955D01*
X175343237Y-90914956D01*
X175197160Y-90975463D01*
X175071718Y-91071718D01*
X174975463Y-91197160D01*
X174914956Y-91343237D01*
X174914955Y-91343239D01*
X174894318Y-91499998D01*
X162284334Y-91499998D01*
X162252206Y-91427235D01*
X162172765Y-91347794D01*
X162113480Y-91321617D01*
X162069992Y-91302415D01*
X162044865Y-91299500D01*
X159955143Y-91299500D01*
X159955117Y-91299502D01*
X159930012Y-91302413D01*
X159930008Y-91302415D01*
X159827235Y-91347793D01*
X159747794Y-91427234D01*
X159702415Y-91530006D01*
X159702415Y-91530008D01*
X159699500Y-91555131D01*
X157423303Y-91555131D01*
X157405979Y-91510317D01*
X157420017Y-91441873D01*
X157431167Y-91424521D01*
X157524536Y-91302841D01*
X157585044Y-91156762D01*
X157605682Y-91000000D01*
X157605420Y-90998013D01*
X157585044Y-90843239D01*
X157585044Y-90843238D01*
X157524536Y-90697159D01*
X157431171Y-90575484D01*
X157405979Y-90510317D01*
X157408095Y-90499998D01*
X171394318Y-90499998D01*
X171394318Y-90500001D01*
X171414955Y-90656760D01*
X171414956Y-90656762D01*
X171475464Y-90802841D01*
X171571718Y-90928282D01*
X171697159Y-91024536D01*
X171843238Y-91085044D01*
X171921619Y-91095363D01*
X171999999Y-91105682D01*
X172000000Y-91105682D01*
X172000001Y-91105682D01*
X172052254Y-91098802D01*
X172156762Y-91085044D01*
X172302841Y-91024536D01*
X172424515Y-90931171D01*
X172489683Y-90905979D01*
X172558127Y-90920017D01*
X172575478Y-90931167D01*
X172697159Y-91024536D01*
X172843238Y-91085044D01*
X172921619Y-91095363D01*
X172999999Y-91105682D01*
X173000000Y-91105682D01*
X173000001Y-91105682D01*
X173052254Y-91098802D01*
X173156762Y-91085044D01*
X173302841Y-91024536D01*
X173428282Y-90928282D01*
X173524536Y-90802841D01*
X173585044Y-90656762D01*
X173605682Y-90500000D01*
X173598029Y-90441873D01*
X173585044Y-90343239D01*
X173585044Y-90343238D01*
X173524536Y-90197159D01*
X173428282Y-90071718D01*
X173334814Y-89999998D01*
X176394318Y-89999998D01*
X176394318Y-90000001D01*
X176414955Y-90156760D01*
X176414956Y-90156762D01*
X176469604Y-90288695D01*
X176475464Y-90302841D01*
X176571718Y-90428282D01*
X176697159Y-90524536D01*
X176843238Y-90585044D01*
X176921619Y-90595363D01*
X176999999Y-90605682D01*
X177000000Y-90605682D01*
X177000001Y-90605682D01*
X177052254Y-90598802D01*
X177156762Y-90585044D01*
X177302841Y-90524536D01*
X177428282Y-90428282D01*
X177524536Y-90302841D01*
X177585044Y-90156762D01*
X177605682Y-90000000D01*
X177585044Y-89843238D01*
X177524536Y-89697159D01*
X177428282Y-89571718D01*
X177302841Y-89475464D01*
X177156762Y-89414956D01*
X177156760Y-89414955D01*
X177000001Y-89394318D01*
X176999999Y-89394318D01*
X176843239Y-89414955D01*
X176843237Y-89414956D01*
X176697160Y-89475463D01*
X176571718Y-89571718D01*
X176475463Y-89697160D01*
X176414956Y-89843237D01*
X176414955Y-89843239D01*
X176394318Y-89999998D01*
X173334814Y-89999998D01*
X173302841Y-89975464D01*
X173210782Y-89937332D01*
X173156762Y-89914956D01*
X173156760Y-89914955D01*
X173000001Y-89894318D01*
X172999999Y-89894318D01*
X172843239Y-89914955D01*
X172843237Y-89914956D01*
X172697157Y-89975464D01*
X172575486Y-90068826D01*
X172510317Y-90094020D01*
X172441872Y-90079981D01*
X172424514Y-90068826D01*
X172302842Y-89975464D01*
X172156762Y-89914956D01*
X172156760Y-89914955D01*
X172000001Y-89894318D01*
X171999999Y-89894318D01*
X171843239Y-89914955D01*
X171843237Y-89914956D01*
X171697160Y-89975463D01*
X171571718Y-90071718D01*
X171475463Y-90197160D01*
X171414956Y-90343237D01*
X171414955Y-90343239D01*
X171394318Y-90499998D01*
X157408095Y-90499998D01*
X157420017Y-90441873D01*
X157431167Y-90424521D01*
X157524536Y-90302841D01*
X157585044Y-90156762D01*
X157605682Y-90000000D01*
X157585044Y-89843238D01*
X157524536Y-89697159D01*
X157431171Y-89575484D01*
X157405979Y-89510317D01*
X157420017Y-89441873D01*
X157431167Y-89424521D01*
X157524536Y-89302841D01*
X157585044Y-89156762D01*
X157605682Y-89000000D01*
X157585044Y-88843238D01*
X157524536Y-88697159D01*
X157431171Y-88575484D01*
X157405979Y-88510317D01*
X157420017Y-88441873D01*
X157431167Y-88424521D01*
X157524536Y-88302841D01*
X157585044Y-88156762D01*
X157605682Y-88000000D01*
X157585044Y-87843238D01*
X157524536Y-87697159D01*
X157431171Y-87575484D01*
X157405979Y-87510317D01*
X157408095Y-87499998D01*
X174394318Y-87499998D01*
X174394318Y-87500001D01*
X174414955Y-87656760D01*
X174414956Y-87656762D01*
X174475464Y-87802841D01*
X174571718Y-87928282D01*
X174697159Y-88024536D01*
X174843238Y-88085044D01*
X174921619Y-88095363D01*
X174999999Y-88105682D01*
X175000000Y-88105682D01*
X175000001Y-88105682D01*
X175052254Y-88098802D01*
X175156762Y-88085044D01*
X175302841Y-88024536D01*
X175428282Y-87928282D01*
X175521423Y-87806898D01*
X182224500Y-87806898D01*
X182224500Y-88593102D01*
X182230126Y-88639954D01*
X182235122Y-88681561D01*
X182290639Y-88822343D01*
X182382077Y-88942922D01*
X182502656Y-89034360D01*
X182502657Y-89034360D01*
X182502658Y-89034361D01*
X182643436Y-89089877D01*
X182731898Y-89100500D01*
X182731903Y-89100500D01*
X182802920Y-89100500D01*
X182869959Y-89120185D01*
X182915714Y-89172989D01*
X182925658Y-89242147D01*
X182896633Y-89305703D01*
X182850372Y-89339060D01*
X182834134Y-89345786D01*
X182698458Y-89401983D01*
X182698446Y-89401990D01*
X182550965Y-89500535D01*
X182550961Y-89500538D01*
X182425538Y-89625961D01*
X182425535Y-89625965D01*
X182326990Y-89773446D01*
X182326983Y-89773459D01*
X182259106Y-89937332D01*
X182259103Y-89937341D01*
X182224500Y-90111304D01*
X182224500Y-90288695D01*
X182259103Y-90462658D01*
X182259106Y-90462667D01*
X182326983Y-90626540D01*
X182326990Y-90626553D01*
X182425535Y-90774034D01*
X182425538Y-90774038D01*
X182550961Y-90899461D01*
X182550965Y-90899464D01*
X182698446Y-90998009D01*
X182698459Y-90998016D01*
X182821363Y-91048923D01*
X182862334Y-91065894D01*
X182882594Y-91069924D01*
X182925118Y-91078383D01*
X182987028Y-91110768D01*
X183021603Y-91171484D01*
X183017863Y-91241253D01*
X182976996Y-91297925D01*
X182925118Y-91321617D01*
X182862340Y-91334104D01*
X182862332Y-91334106D01*
X182698459Y-91401983D01*
X182698446Y-91401990D01*
X182550965Y-91500535D01*
X182550961Y-91500538D01*
X182425538Y-91625961D01*
X182425535Y-91625965D01*
X182326990Y-91773446D01*
X182326983Y-91773459D01*
X182259106Y-91937332D01*
X182259103Y-91937341D01*
X182224500Y-92111304D01*
X182224500Y-92288695D01*
X182259103Y-92462658D01*
X182259106Y-92462667D01*
X182326983Y-92626540D01*
X182326990Y-92626553D01*
X182425535Y-92774034D01*
X182425538Y-92774038D01*
X182550961Y-92899461D01*
X182550965Y-92899464D01*
X182698446Y-92998009D01*
X182698459Y-92998016D01*
X182821363Y-93048923D01*
X182862334Y-93065894D01*
X182882594Y-93069924D01*
X182925118Y-93078383D01*
X182987028Y-93110768D01*
X183021603Y-93171484D01*
X183017863Y-93241253D01*
X182976996Y-93297925D01*
X182925118Y-93321617D01*
X182862340Y-93334104D01*
X182862332Y-93334106D01*
X182698459Y-93401983D01*
X182698446Y-93401990D01*
X182550965Y-93500535D01*
X182550961Y-93500538D01*
X182425538Y-93625961D01*
X182425535Y-93625965D01*
X182326990Y-93773446D01*
X182326983Y-93773459D01*
X182259106Y-93937332D01*
X182259103Y-93937341D01*
X182224500Y-94111304D01*
X182224500Y-94288695D01*
X182259103Y-94462658D01*
X182259106Y-94462667D01*
X182326983Y-94626540D01*
X182326990Y-94626553D01*
X182425535Y-94774034D01*
X182425538Y-94774038D01*
X182550961Y-94899461D01*
X182550965Y-94899464D01*
X182698446Y-94998009D01*
X182698459Y-94998016D01*
X182821363Y-95048923D01*
X182862334Y-95065894D01*
X182862336Y-95065894D01*
X182862341Y-95065896D01*
X183036304Y-95100499D01*
X183036307Y-95100500D01*
X183036309Y-95100500D01*
X183763693Y-95100500D01*
X183763694Y-95100499D01*
X183821682Y-95088964D01*
X183937658Y-95065896D01*
X183937661Y-95065894D01*
X183937666Y-95065894D01*
X184101547Y-94998013D01*
X184249035Y-94899464D01*
X184374464Y-94774035D01*
X184473013Y-94626547D01*
X184540894Y-94462666D01*
X184575500Y-94288691D01*
X184575500Y-94111309D01*
X184575500Y-94111306D01*
X184575499Y-94111304D01*
X184540896Y-93937341D01*
X184540893Y-93937332D01*
X184473016Y-93773459D01*
X184473009Y-93773446D01*
X184374464Y-93625965D01*
X184374461Y-93625961D01*
X184249038Y-93500538D01*
X184249034Y-93500535D01*
X184101553Y-93401990D01*
X184101540Y-93401983D01*
X183937667Y-93334106D01*
X183937658Y-93334103D01*
X183874882Y-93321617D01*
X183812971Y-93289232D01*
X183778397Y-93228517D01*
X183782136Y-93158747D01*
X183823003Y-93102075D01*
X183874882Y-93078383D01*
X183937658Y-93065896D01*
X183937661Y-93065894D01*
X183937666Y-93065894D01*
X184077535Y-93007958D01*
X184101540Y-92998016D01*
X184101540Y-92998015D01*
X184101547Y-92998013D01*
X184249035Y-92899464D01*
X184374464Y-92774035D01*
X184473013Y-92626547D01*
X184540894Y-92462666D01*
X184547734Y-92428282D01*
X184575499Y-92288695D01*
X184575500Y-92288693D01*
X184575500Y-92111306D01*
X184575499Y-92111304D01*
X184540896Y-91937341D01*
X184540893Y-91937332D01*
X184537144Y-91928282D01*
X184485185Y-91802839D01*
X184473016Y-91773459D01*
X184473009Y-91773446D01*
X184374464Y-91625965D01*
X184374461Y-91625961D01*
X184249038Y-91500538D01*
X184249034Y-91500535D01*
X184101553Y-91401990D01*
X184101540Y-91401983D01*
X183937667Y-91334106D01*
X183937658Y-91334103D01*
X183874882Y-91321617D01*
X183812971Y-91289232D01*
X183778397Y-91228517D01*
X183782136Y-91158747D01*
X183823003Y-91102075D01*
X183874882Y-91078383D01*
X183937658Y-91065896D01*
X183937661Y-91065894D01*
X183937666Y-91065894D01*
X184077535Y-91007958D01*
X184101540Y-90998016D01*
X184101540Y-90998015D01*
X184101547Y-90998013D01*
X184249035Y-90899464D01*
X184374464Y-90774035D01*
X184473013Y-90626547D01*
X184540894Y-90462666D01*
X184547734Y-90428282D01*
X184575499Y-90288695D01*
X184575500Y-90288693D01*
X184575500Y-90111306D01*
X184575499Y-90111304D01*
X184540896Y-89937341D01*
X184540893Y-89937332D01*
X184473016Y-89773459D01*
X184473009Y-89773446D01*
X184374464Y-89625965D01*
X184374461Y-89625961D01*
X184249038Y-89500538D01*
X184249034Y-89500535D01*
X184101553Y-89401990D01*
X184101541Y-89401983D01*
X183969718Y-89347382D01*
X183949627Y-89339060D01*
X183895224Y-89295221D01*
X183873159Y-89228927D01*
X183890438Y-89161227D01*
X183941575Y-89113617D01*
X183997080Y-89100500D01*
X184068097Y-89100500D01*
X184068102Y-89100500D01*
X184156564Y-89089877D01*
X184297342Y-89034361D01*
X184417922Y-88942922D01*
X184509361Y-88822342D01*
X184564877Y-88681564D01*
X184575500Y-88593102D01*
X184575500Y-87806898D01*
X184564877Y-87718436D01*
X184509361Y-87577658D01*
X184509360Y-87577657D01*
X184509360Y-87577656D01*
X184417922Y-87457077D01*
X184297343Y-87365639D01*
X184156561Y-87310122D01*
X184110926Y-87304642D01*
X184068102Y-87299500D01*
X182731898Y-87299500D01*
X182692853Y-87304188D01*
X182643438Y-87310122D01*
X182502656Y-87365639D01*
X182382077Y-87457077D01*
X182290639Y-87577656D01*
X182235122Y-87718438D01*
X182229188Y-87767853D01*
X182224500Y-87806898D01*
X175521423Y-87806898D01*
X175524536Y-87802841D01*
X175585044Y-87656762D01*
X175605682Y-87500000D01*
X175598029Y-87441873D01*
X175585044Y-87343239D01*
X175585044Y-87343238D01*
X175524536Y-87197159D01*
X175428282Y-87071718D01*
X175302841Y-86975464D01*
X175156762Y-86914956D01*
X175156760Y-86914955D01*
X175000001Y-86894318D01*
X174999999Y-86894318D01*
X174843239Y-86914955D01*
X174843237Y-86914956D01*
X174697160Y-86975463D01*
X174571718Y-87071718D01*
X174475463Y-87197160D01*
X174414956Y-87343237D01*
X174414955Y-87343239D01*
X174394318Y-87499998D01*
X157408095Y-87499998D01*
X157420017Y-87441873D01*
X157431167Y-87424521D01*
X157524536Y-87302841D01*
X157585044Y-87156762D01*
X157605682Y-87000000D01*
X157585044Y-86843238D01*
X157524536Y-86697159D01*
X157431171Y-86575484D01*
X157405979Y-86510317D01*
X157420017Y-86441873D01*
X157431167Y-86424521D01*
X157524536Y-86302841D01*
X157585044Y-86156762D01*
X157605682Y-86000000D01*
X157585044Y-85843238D01*
X157524536Y-85697159D01*
X157428282Y-85571718D01*
X157302841Y-85475464D01*
X157156762Y-85414956D01*
X157156760Y-85414955D01*
X157000001Y-85394318D01*
X156999999Y-85394318D01*
X156843239Y-85414955D01*
X156843237Y-85414956D01*
X156697157Y-85475464D01*
X156575486Y-85568826D01*
X156510317Y-85594020D01*
X156441872Y-85579981D01*
X156424514Y-85568826D01*
X156302842Y-85475464D01*
X156156762Y-85414956D01*
X156156760Y-85414955D01*
X156000001Y-85394318D01*
X155999999Y-85394318D01*
X155843239Y-85414955D01*
X155843237Y-85414956D01*
X155697157Y-85475464D01*
X155575486Y-85568826D01*
X155510317Y-85594020D01*
X155441872Y-85579981D01*
X155424514Y-85568826D01*
X155302842Y-85475464D01*
X155156762Y-85414956D01*
X155156760Y-85414955D01*
X155000001Y-85394318D01*
X154999999Y-85394318D01*
X154843239Y-85414955D01*
X154843237Y-85414956D01*
X154697157Y-85475464D01*
X154575486Y-85568826D01*
X154510317Y-85594020D01*
X154441872Y-85579981D01*
X154424514Y-85568826D01*
X154302842Y-85475464D01*
X154156762Y-85414956D01*
X154156760Y-85414955D01*
X154000001Y-85394318D01*
X153999999Y-85394318D01*
X153843239Y-85414955D01*
X153843237Y-85414956D01*
X153697160Y-85475463D01*
X153571718Y-85571718D01*
X153475463Y-85697160D01*
X153414956Y-85843237D01*
X153414955Y-85843239D01*
X153394318Y-85999998D01*
X134250500Y-85999998D01*
X134250500Y-84999998D01*
X159694532Y-84999998D01*
X159694532Y-85000001D01*
X159714364Y-85226686D01*
X159714366Y-85226697D01*
X159773258Y-85446488D01*
X159773261Y-85446497D01*
X159869431Y-85652732D01*
X159869432Y-85652734D01*
X159999954Y-85839141D01*
X160160858Y-86000045D01*
X160160861Y-86000047D01*
X160347266Y-86130568D01*
X160553504Y-86226739D01*
X160773308Y-86285635D01*
X160935230Y-86299801D01*
X160999998Y-86305468D01*
X161000000Y-86305468D01*
X161000002Y-86305468D01*
X161056673Y-86300509D01*
X161226692Y-86285635D01*
X161446496Y-86226739D01*
X161652734Y-86130568D01*
X161839139Y-86000047D01*
X161839188Y-85999998D01*
X173394318Y-85999998D01*
X173394318Y-86000001D01*
X173414955Y-86156760D01*
X173414956Y-86156762D01*
X173475464Y-86302841D01*
X173571718Y-86428282D01*
X173697159Y-86524536D01*
X173843238Y-86585044D01*
X173921619Y-86595363D01*
X173999999Y-86605682D01*
X174000000Y-86605682D01*
X174000001Y-86605682D01*
X174052254Y-86598802D01*
X174156762Y-86585044D01*
X174302841Y-86524536D01*
X174428282Y-86428282D01*
X174524536Y-86302841D01*
X174585044Y-86156762D01*
X174605682Y-86000000D01*
X174585044Y-85843238D01*
X174524536Y-85697159D01*
X174428282Y-85571718D01*
X174302841Y-85475464D01*
X174156762Y-85414956D01*
X174156760Y-85414955D01*
X174000001Y-85394318D01*
X173999999Y-85394318D01*
X173843239Y-85414955D01*
X173843237Y-85414956D01*
X173697160Y-85475463D01*
X173571718Y-85571718D01*
X173475463Y-85697160D01*
X173414956Y-85843237D01*
X173414955Y-85843239D01*
X173394318Y-85999998D01*
X161839188Y-85999998D01*
X162000047Y-85839139D01*
X162130568Y-85652734D01*
X162226739Y-85446496D01*
X162285635Y-85226692D01*
X162305468Y-85000000D01*
X162285635Y-84773308D01*
X162226739Y-84553504D01*
X162130568Y-84347266D01*
X162000047Y-84160861D01*
X162000045Y-84160858D01*
X161839141Y-83999954D01*
X161652734Y-83869432D01*
X161652732Y-83869431D01*
X161446497Y-83773261D01*
X161446488Y-83773258D01*
X161226697Y-83714366D01*
X161226693Y-83714365D01*
X161226692Y-83714365D01*
X161226691Y-83714364D01*
X161226686Y-83714364D01*
X161000002Y-83694532D01*
X160999998Y-83694532D01*
X160773313Y-83714364D01*
X160773302Y-83714366D01*
X160553511Y-83773258D01*
X160553502Y-83773261D01*
X160347267Y-83869431D01*
X160347265Y-83869432D01*
X160160858Y-83999954D01*
X159999954Y-84160858D01*
X159869432Y-84347265D01*
X159869431Y-84347267D01*
X159773261Y-84553502D01*
X159773258Y-84553511D01*
X159714366Y-84773302D01*
X159714364Y-84773313D01*
X159694532Y-84999998D01*
X134250500Y-84999998D01*
X134250500Y-82999998D01*
X153894318Y-82999998D01*
X153894318Y-83000001D01*
X153914955Y-83156760D01*
X153914956Y-83156762D01*
X153975464Y-83302841D01*
X154071718Y-83428282D01*
X154197159Y-83524536D01*
X154343238Y-83585044D01*
X154421619Y-83595363D01*
X154499999Y-83605682D01*
X154500000Y-83605682D01*
X154500001Y-83605682D01*
X154552254Y-83598802D01*
X154656762Y-83585044D01*
X154802841Y-83524536D01*
X154928282Y-83428282D01*
X155024536Y-83302841D01*
X155085044Y-83156762D01*
X155105682Y-83000000D01*
X155085044Y-82843238D01*
X155024536Y-82697159D01*
X154928282Y-82571718D01*
X154802841Y-82475464D01*
X154656762Y-82414956D01*
X154656760Y-82414955D01*
X154500001Y-82394318D01*
X154499999Y-82394318D01*
X154343239Y-82414955D01*
X154343237Y-82414956D01*
X154197160Y-82475463D01*
X154071718Y-82571718D01*
X153975463Y-82697160D01*
X153914956Y-82843237D01*
X153914955Y-82843239D01*
X153894318Y-82999998D01*
X134250500Y-82999998D01*
X134250500Y-75999994D01*
X134894556Y-75999994D01*
X134894556Y-76000005D01*
X134914310Y-76314004D01*
X134914311Y-76314011D01*
X134973270Y-76623083D01*
X135070497Y-76922316D01*
X135070499Y-76922321D01*
X135204461Y-77207003D01*
X135204464Y-77207009D01*
X135373051Y-77472661D01*
X135373054Y-77472665D01*
X135573606Y-77715090D01*
X135573608Y-77715092D01*
X135802968Y-77930476D01*
X135802978Y-77930484D01*
X136057504Y-78115408D01*
X136057509Y-78115410D01*
X136057516Y-78115416D01*
X136333234Y-78266994D01*
X136333239Y-78266996D01*
X136333241Y-78266997D01*
X136333242Y-78266998D01*
X136625771Y-78382818D01*
X136625774Y-78382819D01*
X136785615Y-78423859D01*
X136930527Y-78461066D01*
X136996010Y-78469338D01*
X137242670Y-78500499D01*
X137242679Y-78500499D01*
X137242682Y-78500500D01*
X137242684Y-78500500D01*
X137557316Y-78500500D01*
X137557318Y-78500500D01*
X137557321Y-78500499D01*
X137557329Y-78500499D01*
X137743593Y-78476968D01*
X137869473Y-78461066D01*
X138174225Y-78382819D01*
X138174228Y-78382818D01*
X138466757Y-78266998D01*
X138466758Y-78266997D01*
X138466756Y-78266997D01*
X138466766Y-78266994D01*
X138742484Y-78115416D01*
X138997030Y-77930478D01*
X139226390Y-77715094D01*
X139243013Y-77695000D01*
X141794551Y-77695000D01*
X141814317Y-77946151D01*
X141873126Y-78191110D01*
X141969533Y-78423859D01*
X142101160Y-78638653D01*
X142101161Y-78638656D01*
X142101164Y-78638659D01*
X142264776Y-78830224D01*
X142413066Y-78956875D01*
X142456343Y-78993838D01*
X142456346Y-78993839D01*
X142671140Y-79125466D01*
X142773260Y-79167765D01*
X142903889Y-79221873D01*
X143148852Y-79280683D01*
X143400000Y-79300449D01*
X143651148Y-79280683D01*
X143896111Y-79221873D01*
X144128859Y-79125466D01*
X144343659Y-78993836D01*
X144535224Y-78830224D01*
X144698836Y-78638659D01*
X144830466Y-78423859D01*
X144926873Y-78191111D01*
X144985683Y-77946148D01*
X145005449Y-77695000D01*
X144985683Y-77443852D01*
X144926873Y-77198889D01*
X144917472Y-77176193D01*
X144830466Y-76966140D01*
X144698839Y-76751346D01*
X144698838Y-76751343D01*
X144590563Y-76624570D01*
X144535224Y-76559776D01*
X144408571Y-76451604D01*
X144343656Y-76396161D01*
X144343653Y-76396160D01*
X144268541Y-76350131D01*
X146879500Y-76350131D01*
X146879500Y-79039856D01*
X146879502Y-79039882D01*
X146882413Y-79064987D01*
X146882415Y-79064991D01*
X146927793Y-79167764D01*
X146927794Y-79167765D01*
X147007235Y-79247206D01*
X147110009Y-79292585D01*
X147135135Y-79295500D01*
X149824864Y-79295499D01*
X149824879Y-79295497D01*
X149824882Y-79295497D01*
X149849987Y-79292586D01*
X149849988Y-79292585D01*
X149849991Y-79292585D01*
X149952765Y-79247206D01*
X150032206Y-79167765D01*
X150077585Y-79064991D01*
X150080500Y-79039865D01*
X150080499Y-77695000D01*
X169859551Y-77695000D01*
X169879317Y-77946151D01*
X169938126Y-78191110D01*
X170034533Y-78423859D01*
X170166160Y-78638653D01*
X170166161Y-78638656D01*
X170166164Y-78638659D01*
X170329776Y-78830224D01*
X170478066Y-78956875D01*
X170521343Y-78993838D01*
X170521346Y-78993839D01*
X170736140Y-79125466D01*
X170838260Y-79167765D01*
X170968889Y-79221873D01*
X171213852Y-79280683D01*
X171465000Y-79300449D01*
X171716148Y-79280683D01*
X171961111Y-79221873D01*
X172193859Y-79125466D01*
X172408659Y-78993836D01*
X172600224Y-78830224D01*
X172763836Y-78638659D01*
X172895466Y-78423859D01*
X172991873Y-78191111D01*
X173050683Y-77946148D01*
X173070449Y-77695000D01*
X173050683Y-77443852D01*
X172991873Y-77198889D01*
X172982472Y-77176193D01*
X172895466Y-76966140D01*
X172763839Y-76751346D01*
X172763838Y-76751343D01*
X172655563Y-76624570D01*
X172600224Y-76559776D01*
X172473571Y-76451604D01*
X172408656Y-76396161D01*
X172408653Y-76396160D01*
X172333541Y-76350131D01*
X174944500Y-76350131D01*
X174944500Y-79039856D01*
X174944502Y-79039882D01*
X174947413Y-79064987D01*
X174947415Y-79064991D01*
X174992793Y-79167764D01*
X174992794Y-79167765D01*
X175072235Y-79247206D01*
X175175009Y-79292585D01*
X175200135Y-79295500D01*
X177889864Y-79295499D01*
X177889879Y-79295497D01*
X177889882Y-79295497D01*
X177914987Y-79292586D01*
X177914988Y-79292585D01*
X177914991Y-79292585D01*
X178017765Y-79247206D01*
X178097206Y-79167765D01*
X178142585Y-79064991D01*
X178145500Y-79039865D01*
X178145499Y-76350136D01*
X178144231Y-76339203D01*
X178142586Y-76325012D01*
X178142585Y-76325010D01*
X178142585Y-76325009D01*
X178097206Y-76222235D01*
X178017765Y-76142794D01*
X178017763Y-76142793D01*
X177914992Y-76097415D01*
X177889865Y-76094500D01*
X175200143Y-76094500D01*
X175200117Y-76094502D01*
X175175012Y-76097413D01*
X175175008Y-76097415D01*
X175072235Y-76142793D01*
X174992794Y-76222234D01*
X174947415Y-76325006D01*
X174947415Y-76325008D01*
X174944500Y-76350131D01*
X172333541Y-76350131D01*
X172193859Y-76264533D01*
X171961110Y-76168126D01*
X171716151Y-76109317D01*
X171465000Y-76089551D01*
X171213848Y-76109317D01*
X170968889Y-76168126D01*
X170736140Y-76264533D01*
X170521346Y-76396160D01*
X170521343Y-76396161D01*
X170329776Y-76559776D01*
X170166161Y-76751343D01*
X170166160Y-76751346D01*
X170034533Y-76966140D01*
X169938126Y-77198889D01*
X169879317Y-77443848D01*
X169859551Y-77695000D01*
X150080499Y-77695000D01*
X150080499Y-76350136D01*
X150079231Y-76339203D01*
X150077586Y-76325012D01*
X150077585Y-76325010D01*
X150077585Y-76325009D01*
X150032206Y-76222235D01*
X149952765Y-76142794D01*
X149952763Y-76142793D01*
X149849992Y-76097415D01*
X149824865Y-76094500D01*
X147135143Y-76094500D01*
X147135117Y-76094502D01*
X147110012Y-76097413D01*
X147110008Y-76097415D01*
X147007235Y-76142793D01*
X146927794Y-76222234D01*
X146882415Y-76325006D01*
X146882415Y-76325008D01*
X146879500Y-76350131D01*
X144268541Y-76350131D01*
X144128859Y-76264533D01*
X143896110Y-76168126D01*
X143651151Y-76109317D01*
X143400000Y-76089551D01*
X143148848Y-76109317D01*
X142903889Y-76168126D01*
X142671140Y-76264533D01*
X142456346Y-76396160D01*
X142456343Y-76396161D01*
X142264776Y-76559776D01*
X142101161Y-76751343D01*
X142101160Y-76751346D01*
X141969533Y-76966140D01*
X141873126Y-77198889D01*
X141814317Y-77443848D01*
X141794551Y-77695000D01*
X139243013Y-77695000D01*
X139426947Y-77472663D01*
X139595537Y-77207007D01*
X139729503Y-76922315D01*
X139826731Y-76623079D01*
X139885688Y-76314015D01*
X139889265Y-76257167D01*
X139905444Y-76000005D01*
X139905444Y-75999994D01*
X139885689Y-75685995D01*
X139885688Y-75685988D01*
X139885688Y-75685985D01*
X139826731Y-75376921D01*
X139746004Y-75128471D01*
X153849500Y-75128471D01*
X153849500Y-76664675D01*
X153854005Y-76702190D01*
X153860122Y-76753134D01*
X153860122Y-76753136D01*
X153860123Y-76753137D01*
X153877722Y-76797765D01*
X153915639Y-76893916D01*
X154007077Y-77014495D01*
X154127656Y-77105933D01*
X154127657Y-77105933D01*
X154127658Y-77105934D01*
X154268436Y-77161450D01*
X154356898Y-77172073D01*
X154356903Y-77172073D01*
X155643097Y-77172073D01*
X155643102Y-77172073D01*
X155731564Y-77161450D01*
X155872342Y-77105934D01*
X155992922Y-77014495D01*
X156084361Y-76893915D01*
X156135433Y-76764405D01*
X156178338Y-76709263D01*
X156244246Y-76686070D01*
X156312230Y-76702190D01*
X156351105Y-76737012D01*
X156470272Y-76901032D01*
X156470276Y-76901037D01*
X156620535Y-77051296D01*
X156620540Y-77051300D01*
X156792442Y-77176193D01*
X156981782Y-77272668D01*
X157183871Y-77338330D01*
X157250000Y-77348804D01*
X157250000Y-76300718D01*
X157316657Y-76339203D01*
X157437465Y-76371573D01*
X157562535Y-76371573D01*
X157683343Y-76339203D01*
X157750000Y-76300718D01*
X157750000Y-77348803D01*
X157816126Y-77338330D01*
X157816129Y-77338330D01*
X158018217Y-77272668D01*
X158207557Y-77176193D01*
X158379459Y-77051300D01*
X158379464Y-77051296D01*
X158529723Y-76901037D01*
X158529727Y-76901032D01*
X158654620Y-76729131D01*
X158751466Y-76539061D01*
X158799440Y-76488265D01*
X158867261Y-76471470D01*
X158933396Y-76494007D01*
X158972435Y-76539061D01*
X159016002Y-76624565D01*
X159016003Y-76624566D01*
X159122441Y-76771067D01*
X159122445Y-76771072D01*
X159250500Y-76899127D01*
X159250505Y-76899131D01*
X159378287Y-76991969D01*
X159397006Y-77005569D01*
X159486750Y-77051296D01*
X159558360Y-77087784D01*
X159558363Y-77087785D01*
X159644476Y-77115764D01*
X159730591Y-77143744D01*
X159813429Y-77156864D01*
X159909449Y-77172073D01*
X159909454Y-77172073D01*
X160090551Y-77172073D01*
X160177259Y-77158338D01*
X160269409Y-77143744D01*
X160441639Y-77087784D01*
X160602994Y-77005569D01*
X160749501Y-76899126D01*
X160877553Y-76771074D01*
X160983996Y-76624567D01*
X161066211Y-76463212D01*
X161122171Y-76290982D01*
X161127527Y-76257167D01*
X161157456Y-76194032D01*
X161216768Y-76157101D01*
X161286630Y-76158099D01*
X161344863Y-76196709D01*
X161372473Y-76257167D01*
X161377829Y-76290983D01*
X161433787Y-76463209D01*
X161433788Y-76463212D01*
X161472436Y-76539061D01*
X161516003Y-76624566D01*
X161516006Y-76624570D01*
X161622441Y-76771067D01*
X161622445Y-76771072D01*
X161750500Y-76899127D01*
X161750505Y-76899131D01*
X161878287Y-76991969D01*
X161897006Y-77005569D01*
X161986750Y-77051296D01*
X162058360Y-77087784D01*
X162058363Y-77087785D01*
X162144476Y-77115764D01*
X162230591Y-77143744D01*
X162313429Y-77156864D01*
X162409449Y-77172073D01*
X162409454Y-77172073D01*
X162590551Y-77172073D01*
X162677259Y-77158338D01*
X162769409Y-77143744D01*
X162941639Y-77087784D01*
X163102994Y-77005569D01*
X163249501Y-76899126D01*
X163377553Y-76771074D01*
X163483996Y-76624567D01*
X163566211Y-76463212D01*
X163622171Y-76290982D01*
X163627527Y-76257167D01*
X163657456Y-76194032D01*
X163716768Y-76157101D01*
X163786630Y-76158099D01*
X163844863Y-76196709D01*
X163872473Y-76257167D01*
X163877829Y-76290983D01*
X163933787Y-76463209D01*
X163933788Y-76463212D01*
X163972436Y-76539061D01*
X164016003Y-76624566D01*
X164016006Y-76624570D01*
X164122441Y-76771067D01*
X164122445Y-76771072D01*
X164250500Y-76899127D01*
X164250505Y-76899131D01*
X164378287Y-76991969D01*
X164397006Y-77005569D01*
X164486750Y-77051296D01*
X164558360Y-77087784D01*
X164558363Y-77087785D01*
X164644476Y-77115764D01*
X164730591Y-77143744D01*
X164813429Y-77156864D01*
X164909449Y-77172073D01*
X164909454Y-77172073D01*
X165090551Y-77172073D01*
X165177259Y-77158338D01*
X165269409Y-77143744D01*
X165441639Y-77087784D01*
X165602994Y-77005569D01*
X165749501Y-76899126D01*
X165877553Y-76771074D01*
X165983996Y-76624567D01*
X166066211Y-76463212D01*
X166122171Y-76290982D01*
X166138445Y-76188230D01*
X166150500Y-76112124D01*
X166150500Y-75999994D01*
X180094556Y-75999994D01*
X180094556Y-76000005D01*
X180114310Y-76314004D01*
X180114311Y-76314011D01*
X180173270Y-76623083D01*
X180270497Y-76922316D01*
X180270499Y-76922321D01*
X180404461Y-77207003D01*
X180404464Y-77207009D01*
X180573051Y-77472661D01*
X180573054Y-77472665D01*
X180773606Y-77715090D01*
X180773608Y-77715092D01*
X181002968Y-77930476D01*
X181002978Y-77930484D01*
X181257504Y-78115408D01*
X181257509Y-78115410D01*
X181257516Y-78115416D01*
X181533234Y-78266994D01*
X181533239Y-78266996D01*
X181533241Y-78266997D01*
X181533242Y-78266998D01*
X181825771Y-78382818D01*
X181825774Y-78382819D01*
X181985615Y-78423859D01*
X182130527Y-78461066D01*
X182196010Y-78469338D01*
X182442670Y-78500499D01*
X182442679Y-78500499D01*
X182442682Y-78500500D01*
X182442684Y-78500500D01*
X182757316Y-78500500D01*
X182757318Y-78500500D01*
X182757321Y-78500499D01*
X182757329Y-78500499D01*
X182943593Y-78476968D01*
X183069473Y-78461066D01*
X183374225Y-78382819D01*
X183374228Y-78382818D01*
X183666757Y-78266998D01*
X183666758Y-78266997D01*
X183666756Y-78266997D01*
X183666766Y-78266994D01*
X183942484Y-78115416D01*
X184197030Y-77930478D01*
X184426390Y-77715094D01*
X184626947Y-77472663D01*
X184795537Y-77207007D01*
X184929503Y-76922315D01*
X185026731Y-76623079D01*
X185085688Y-76314015D01*
X185089265Y-76257167D01*
X185105444Y-76000005D01*
X185105444Y-75999994D01*
X185085689Y-75685995D01*
X185085688Y-75685988D01*
X185085688Y-75685985D01*
X185026731Y-75376921D01*
X184929503Y-75077685D01*
X184923070Y-75064015D01*
X184795538Y-74792996D01*
X184795537Y-74792993D01*
X184693175Y-74631696D01*
X184626948Y-74527338D01*
X184626945Y-74527334D01*
X184426393Y-74284909D01*
X184426391Y-74284907D01*
X184197031Y-74069523D01*
X184197021Y-74069515D01*
X183942495Y-73884591D01*
X183942488Y-73884586D01*
X183942484Y-73884584D01*
X183666766Y-73733006D01*
X183666763Y-73733004D01*
X183666758Y-73733002D01*
X183666757Y-73733001D01*
X183374228Y-73617181D01*
X183374225Y-73617180D01*
X183069476Y-73538934D01*
X183069463Y-73538932D01*
X182757329Y-73499500D01*
X182757318Y-73499500D01*
X182442682Y-73499500D01*
X182442670Y-73499500D01*
X182130536Y-73538932D01*
X182130523Y-73538934D01*
X181825774Y-73617180D01*
X181825771Y-73617181D01*
X181533242Y-73733001D01*
X181533241Y-73733002D01*
X181257516Y-73884584D01*
X181257504Y-73884591D01*
X181002978Y-74069515D01*
X181002968Y-74069523D01*
X180773608Y-74284907D01*
X180773606Y-74284909D01*
X180573054Y-74527334D01*
X180573051Y-74527338D01*
X180404464Y-74792990D01*
X180404461Y-74792996D01*
X180270499Y-75077678D01*
X180270497Y-75077683D01*
X180173270Y-75376916D01*
X180114311Y-75685988D01*
X180114310Y-75685995D01*
X180094556Y-75999994D01*
X166150500Y-75999994D01*
X166150500Y-75681021D01*
X166134019Y-75576970D01*
X166122171Y-75502164D01*
X166066211Y-75329934D01*
X166066211Y-75329933D01*
X166027563Y-75254084D01*
X165983996Y-75168579D01*
X165933298Y-75098799D01*
X165877558Y-75022078D01*
X165877554Y-75022073D01*
X165749499Y-74894018D01*
X165749494Y-74894014D01*
X165602997Y-74787579D01*
X165602996Y-74787578D01*
X165602994Y-74787577D01*
X165544071Y-74757554D01*
X165441639Y-74705361D01*
X165441636Y-74705360D01*
X165269410Y-74649402D01*
X165090551Y-74621073D01*
X165090546Y-74621073D01*
X164909454Y-74621073D01*
X164909449Y-74621073D01*
X164730589Y-74649402D01*
X164558363Y-74705360D01*
X164558360Y-74705361D01*
X164397002Y-74787579D01*
X164250505Y-74894014D01*
X164250500Y-74894018D01*
X164122445Y-75022073D01*
X164122441Y-75022078D01*
X164016006Y-75168575D01*
X163933788Y-75329933D01*
X163933787Y-75329936D01*
X163877829Y-75502162D01*
X163872473Y-75535979D01*
X163842543Y-75599113D01*
X163783232Y-75636044D01*
X163713369Y-75635046D01*
X163655137Y-75596436D01*
X163627527Y-75535979D01*
X163624438Y-75516478D01*
X163622171Y-75502164D01*
X163566211Y-75329934D01*
X163566211Y-75329933D01*
X163527563Y-75254084D01*
X163483996Y-75168579D01*
X163433298Y-75098799D01*
X163377558Y-75022078D01*
X163377554Y-75022073D01*
X163249499Y-74894018D01*
X163249494Y-74894014D01*
X163102997Y-74787579D01*
X163102996Y-74787578D01*
X163102994Y-74787577D01*
X163044071Y-74757554D01*
X162941639Y-74705361D01*
X162941636Y-74705360D01*
X162769410Y-74649402D01*
X162590551Y-74621073D01*
X162590546Y-74621073D01*
X162409454Y-74621073D01*
X162409449Y-74621073D01*
X162230589Y-74649402D01*
X162058363Y-74705360D01*
X162058360Y-74705361D01*
X161897002Y-74787579D01*
X161750505Y-74894014D01*
X161750500Y-74894018D01*
X161622445Y-75022073D01*
X161622441Y-75022078D01*
X161516006Y-75168575D01*
X161433788Y-75329933D01*
X161433787Y-75329936D01*
X161377829Y-75502162D01*
X161372473Y-75535979D01*
X161342543Y-75599113D01*
X161283232Y-75636044D01*
X161213369Y-75635046D01*
X161155137Y-75596436D01*
X161127527Y-75535979D01*
X161124438Y-75516478D01*
X161122171Y-75502164D01*
X161066211Y-75329934D01*
X161066211Y-75329933D01*
X161027563Y-75254084D01*
X160983996Y-75168579D01*
X160933298Y-75098799D01*
X160877558Y-75022078D01*
X160877554Y-75022073D01*
X160749499Y-74894018D01*
X160749494Y-74894014D01*
X160602997Y-74787579D01*
X160602996Y-74787578D01*
X160602994Y-74787577D01*
X160544071Y-74757554D01*
X160441639Y-74705361D01*
X160441636Y-74705360D01*
X160269410Y-74649402D01*
X160090551Y-74621073D01*
X160090546Y-74621073D01*
X159909454Y-74621073D01*
X159909449Y-74621073D01*
X159730589Y-74649402D01*
X159558363Y-74705360D01*
X159558360Y-74705361D01*
X159397002Y-74787579D01*
X159250505Y-74894014D01*
X159250500Y-74894018D01*
X159122445Y-75022073D01*
X159122441Y-75022078D01*
X159016004Y-75168577D01*
X158972435Y-75254085D01*
X158924460Y-75304880D01*
X158856639Y-75321675D01*
X158790504Y-75299137D01*
X158751466Y-75254084D01*
X158654620Y-75064015D01*
X158529727Y-74892113D01*
X158529723Y-74892108D01*
X158379464Y-74741849D01*
X158379459Y-74741845D01*
X158207557Y-74616952D01*
X158018215Y-74520476D01*
X157816124Y-74454814D01*
X157750000Y-74444341D01*
X157750000Y-75492427D01*
X157683343Y-75453943D01*
X157562535Y-75421573D01*
X157437465Y-75421573D01*
X157316657Y-75453943D01*
X157250000Y-75492427D01*
X157250000Y-74444341D01*
X157249999Y-74444341D01*
X157183875Y-74454814D01*
X156981784Y-74520476D01*
X156792442Y-74616952D01*
X156620540Y-74741845D01*
X156620535Y-74741849D01*
X156470276Y-74892108D01*
X156470272Y-74892113D01*
X156351105Y-75056133D01*
X156295775Y-75098799D01*
X156226162Y-75104778D01*
X156164367Y-75072172D01*
X156135433Y-75028738D01*
X156084362Y-74899233D01*
X156084361Y-74899231D01*
X155992922Y-74778650D01*
X155872343Y-74687212D01*
X155731561Y-74631695D01*
X155685926Y-74626215D01*
X155643102Y-74621073D01*
X154356898Y-74621073D01*
X154317853Y-74625761D01*
X154268438Y-74631695D01*
X154127656Y-74687212D01*
X154007077Y-74778650D01*
X153915639Y-74899229D01*
X153860122Y-75040011D01*
X153854188Y-75089426D01*
X153849500Y-75128471D01*
X139746004Y-75128471D01*
X139729503Y-75077685D01*
X139723070Y-75064015D01*
X139595538Y-74792996D01*
X139595537Y-74792993D01*
X139493175Y-74631696D01*
X139426948Y-74527338D01*
X139426945Y-74527334D01*
X139226393Y-74284909D01*
X139226391Y-74284907D01*
X138997031Y-74069523D01*
X138997021Y-74069515D01*
X138742495Y-73884591D01*
X138742488Y-73884586D01*
X138742484Y-73884584D01*
X138466766Y-73733006D01*
X138466763Y-73733004D01*
X138466758Y-73733002D01*
X138466757Y-73733001D01*
X138174228Y-73617181D01*
X138174225Y-73617180D01*
X137869476Y-73538934D01*
X137869463Y-73538932D01*
X137557329Y-73499500D01*
X137557318Y-73499500D01*
X137242682Y-73499500D01*
X137242670Y-73499500D01*
X136930536Y-73538932D01*
X136930523Y-73538934D01*
X136625774Y-73617180D01*
X136625771Y-73617181D01*
X136333242Y-73733001D01*
X136333241Y-73733002D01*
X136057516Y-73884584D01*
X136057504Y-73884591D01*
X135802978Y-74069515D01*
X135802968Y-74069523D01*
X135573608Y-74284907D01*
X135573606Y-74284909D01*
X135373054Y-74527334D01*
X135373051Y-74527338D01*
X135204464Y-74792990D01*
X135204461Y-74792996D01*
X135070499Y-75077678D01*
X135070497Y-75077683D01*
X134973270Y-75376916D01*
X134914311Y-75685988D01*
X134914310Y-75685995D01*
X134894556Y-75999994D01*
X134250500Y-75999994D01*
X134250500Y-75603480D01*
X134250695Y-75596528D01*
X134258702Y-75453943D01*
X134267398Y-75299097D01*
X134268952Y-75285298D01*
X134318269Y-74995041D01*
X134321363Y-74981489D01*
X134346563Y-74894020D01*
X134402867Y-74698582D01*
X134407459Y-74685462D01*
X134507334Y-74444341D01*
X134520123Y-74413463D01*
X134526145Y-74400957D01*
X134668566Y-74143267D01*
X134675961Y-74131499D01*
X134682503Y-74122279D01*
X134846330Y-73891385D01*
X134854985Y-73880531D01*
X135051179Y-73660991D01*
X135060991Y-73651179D01*
X135280531Y-73454985D01*
X135291385Y-73446330D01*
X135531504Y-73275957D01*
X135543267Y-73268566D01*
X135800957Y-73126145D01*
X135813463Y-73120123D01*
X136085462Y-73007459D01*
X136098582Y-73002867D01*
X136381494Y-72921361D01*
X136395041Y-72918269D01*
X136685298Y-72868952D01*
X136699097Y-72867398D01*
X136959562Y-72852770D01*
X136996529Y-72850695D01*
X137003481Y-72850500D01*
X137044170Y-72850500D01*
X182955830Y-72850500D01*
X182996519Y-72850500D01*
X183003471Y-72850695D01*
G37*
%TD.AperFunction*%
%TD*%
M02*
