%TF.GenerationSoftware,KiCad,Pcbnew,8.0.8-8.0.8-0~ubuntu24.04.1*%
%TF.CreationDate,2025-02-01T12:16:17-07:00*%
%TF.ProjectId,Control Board,436f6e74-726f-46c2-9042-6f6172642e6b,rev?*%
%TF.SameCoordinates,Original*%
%TF.FileFunction,Soldermask,Bot*%
%TF.FilePolarity,Negative*%
%FSLAX46Y46*%
G04 Gerber Fmt 4.6, Leading zero omitted, Abs format (unit mm)*
G04 Created by KiCad (PCBNEW 8.0.8-8.0.8-0~ubuntu24.04.1) date 2025-02-01 12:16:17*
%MOMM*%
%LPD*%
G01*
G04 APERTURE LIST*
G04 Aperture macros list*
%AMRoundRect*
0 Rectangle with rounded corners*
0 $1 Rounding radius*
0 $2 $3 $4 $5 $6 $7 $8 $9 X,Y pos of 4 corners*
0 Add a 4 corners polygon primitive as box body*
4,1,4,$2,$3,$4,$5,$6,$7,$8,$9,$2,$3,0*
0 Add four circle primitives for the rounded corners*
1,1,$1+$1,$2,$3*
1,1,$1+$1,$4,$5*
1,1,$1+$1,$6,$7*
1,1,$1+$1,$8,$9*
0 Add four rect primitives between the rounded corners*
20,1,$1+$1,$2,$3,$4,$5,0*
20,1,$1+$1,$4,$5,$6,$7,0*
20,1,$1+$1,$6,$7,$8,$9,0*
20,1,$1+$1,$8,$9,$2,$3,0*%
G04 Aperture macros list end*
%ADD10R,2.600000X2.600000*%
%ADD11C,2.600000*%
%ADD12RoundRect,0.250000X-0.625000X0.350000X-0.625000X-0.350000X0.625000X-0.350000X0.625000X0.350000X0*%
%ADD13O,1.750000X1.200000*%
%ADD14C,4.400000*%
%ADD15C,0.650000*%
%ADD16O,2.100000X1.000000*%
%ADD17O,1.600000X1.000000*%
%ADD18R,2.000000X2.000000*%
%ADD19C,2.000000*%
%ADD20C,2.100000*%
%ADD21C,1.750000*%
%ADD22R,1.700000X1.700000*%
%ADD23O,1.700000X1.700000*%
%ADD24RoundRect,0.250000X-0.600000X-0.725000X0.600000X-0.725000X0.600000X0.725000X-0.600000X0.725000X0*%
%ADD25O,1.700000X1.950000*%
G04 APERTURE END LIST*
D10*
%TO.C,J1*%
X148480000Y-77695000D03*
D11*
X143400000Y-77695000D03*
%TD*%
D12*
%TO.C,J7*%
X183400000Y-103600000D03*
D13*
X183400000Y-105600000D03*
X183400000Y-107600000D03*
X183400000Y-109600000D03*
%TD*%
D14*
%TO.C,H3*%
X182600000Y-76000000D03*
%TD*%
D15*
%TO.C,J2*%
X139321573Y-105201573D03*
X139321573Y-110981573D03*
D16*
X139851573Y-103771573D03*
D17*
X135671573Y-103771573D03*
D16*
X139851573Y-112411573D03*
D17*
X135671573Y-112411573D03*
%TD*%
D12*
%TO.C,J5*%
X183400000Y-88200000D03*
D13*
X183400000Y-90200000D03*
X183400000Y-92200000D03*
X183400000Y-94200000D03*
%TD*%
D10*
%TO.C,J8*%
X176545000Y-77695000D03*
D11*
X171465000Y-77695000D03*
%TD*%
D18*
%TO.C,BZ1*%
X161000000Y-92600000D03*
D19*
X161000000Y-85000000D03*
%TD*%
D20*
%TO.C,SW1*%
X177950000Y-119400000D03*
X170940000Y-119400000D03*
D21*
X176700000Y-121890000D03*
X172200000Y-121890000D03*
%TD*%
D22*
%TO.C,J6*%
X177400000Y-111280000D03*
D23*
X174860000Y-111280000D03*
X177400000Y-108740000D03*
X174860000Y-108740000D03*
X177400000Y-106200000D03*
X174860000Y-106200000D03*
%TD*%
D24*
%TO.C,J3*%
X155000000Y-75896573D03*
D25*
X157500000Y-75896573D03*
X160000000Y-75896573D03*
X162500000Y-75896573D03*
X165000000Y-75896573D03*
%TD*%
D24*
%TO.C,J4*%
X148600000Y-120200000D03*
D25*
X151100000Y-120200000D03*
X153600000Y-120200000D03*
X156100000Y-120200000D03*
X158600000Y-120200000D03*
X161100000Y-120200000D03*
X163600000Y-120200000D03*
X166100000Y-120200000D03*
%TD*%
D14*
%TO.C,H4*%
X182600000Y-121200000D03*
%TD*%
%TO.C,H1*%
X137400000Y-76000000D03*
%TD*%
%TO.C,H2*%
X137400000Y-121200000D03*
%TD*%
M02*
