%TF.GenerationSoftware,KiCad,Pcbnew,8.0.8-8.0.8-0~ubuntu24.04.1*%
%TF.CreationDate,2025-02-01T12:16:17-07:00*%
%TF.ProjectId,Control Board,436f6e74-726f-46c2-9042-6f6172642e6b,rev?*%
%TF.SameCoordinates,Original*%
%TF.FileFunction,Paste,Top*%
%TF.FilePolarity,Positive*%
%FSLAX46Y46*%
G04 Gerber Fmt 4.6, Leading zero omitted, Abs format (unit mm)*
G04 Created by KiCad (PCBNEW 8.0.8-8.0.8-0~ubuntu24.04.1) date 2025-02-01 12:16:17*
%MOMM*%
%LPD*%
G01*
G04 APERTURE LIST*
G04 Aperture macros list*
%AMRoundRect*
0 Rectangle with rounded corners*
0 $1 Rounding radius*
0 $2 $3 $4 $5 $6 $7 $8 $9 X,Y pos of 4 corners*
0 Add a 4 corners polygon primitive as box body*
4,1,4,$2,$3,$4,$5,$6,$7,$8,$9,$2,$3,0*
0 Add four circle primitives for the rounded corners*
1,1,$1+$1,$2,$3*
1,1,$1+$1,$4,$5*
1,1,$1+$1,$6,$7*
1,1,$1+$1,$8,$9*
0 Add four rect primitives between the rounded corners*
20,1,$1+$1,$2,$3,$4,$5,0*
20,1,$1+$1,$4,$5,$6,$7,0*
20,1,$1+$1,$6,$7,$8,$9,0*
20,1,$1+$1,$8,$9,$2,$3,0*%
%AMRotRect*
0 Rectangle, with rotation*
0 The origin of the aperture is its center*
0 $1 length*
0 $2 width*
0 $3 Rotation angle, in degrees counterclockwise*
0 Add horizontal line*
21,1,$1,$2,0,0,$3*%
G04 Aperture macros list end*
%ADD10RoundRect,0.135000X0.135000X0.185000X-0.135000X0.185000X-0.135000X-0.185000X0.135000X-0.185000X0*%
%ADD11RoundRect,0.140000X-0.170000X0.140000X-0.170000X-0.140000X0.170000X-0.140000X0.170000X0.140000X0*%
%ADD12RoundRect,0.150000X0.150000X-0.587500X0.150000X0.587500X-0.150000X0.587500X-0.150000X-0.587500X0*%
%ADD13RoundRect,0.135000X-0.135000X-0.185000X0.135000X-0.185000X0.135000X0.185000X-0.135000X0.185000X0*%
%ADD14RoundRect,0.140000X-0.140000X-0.170000X0.140000X-0.170000X0.140000X0.170000X-0.140000X0.170000X0*%
%ADD15R,1.450000X0.600000*%
%ADD16R,1.450000X0.300000*%
%ADD17RoundRect,0.250000X-0.850000X-0.350000X0.850000X-0.350000X0.850000X0.350000X-0.850000X0.350000X0*%
%ADD18RoundRect,0.250000X-1.275000X-1.125000X1.275000X-1.125000X1.275000X1.125000X-1.275000X1.125000X0*%
%ADD19RoundRect,0.250000X1.050000X0.550000X-1.050000X0.550000X-1.050000X-0.550000X1.050000X-0.550000X0*%
%ADD20RoundRect,0.135000X0.185000X-0.135000X0.185000X0.135000X-0.185000X0.135000X-0.185000X-0.135000X0*%
%ADD21R,0.450000X1.750000*%
%ADD22RoundRect,0.135000X-0.185000X0.135000X-0.185000X-0.135000X0.185000X-0.135000X0.185000X0.135000X0*%
%ADD23RoundRect,0.218750X0.218750X0.256250X-0.218750X0.256250X-0.218750X-0.256250X0.218750X-0.256250X0*%
%ADD24RoundRect,0.237500X-0.287500X-0.237500X0.287500X-0.237500X0.287500X0.237500X-0.287500X0.237500X0*%
%ADD25RoundRect,0.140000X0.219203X0.021213X0.021213X0.219203X-0.219203X-0.021213X-0.021213X-0.219203X0*%
%ADD26RoundRect,0.140000X-0.219203X-0.021213X-0.021213X-0.219203X0.219203X0.021213X0.021213X0.219203X0*%
%ADD27RotRect,1.600000X0.550000X45.000000*%
%ADD28RotRect,1.600000X0.550000X135.000000*%
%ADD29RoundRect,0.140000X0.170000X-0.140000X0.170000X0.140000X-0.170000X0.140000X-0.170000X-0.140000X0*%
%ADD30RoundRect,0.150000X-0.512500X-0.150000X0.512500X-0.150000X0.512500X0.150000X-0.512500X0.150000X0*%
%ADD31RoundRect,0.147500X0.172500X-0.147500X0.172500X0.147500X-0.172500X0.147500X-0.172500X-0.147500X0*%
%ADD32RoundRect,0.150000X-0.587500X-0.150000X0.587500X-0.150000X0.587500X0.150000X-0.587500X0.150000X0*%
%ADD33RotRect,1.400000X1.200000X135.000000*%
%ADD34RoundRect,0.225000X-0.375000X0.225000X-0.375000X-0.225000X0.375000X-0.225000X0.375000X0.225000X0*%
%ADD35RoundRect,0.140000X0.140000X0.170000X-0.140000X0.170000X-0.140000X-0.170000X0.140000X-0.170000X0*%
%ADD36RoundRect,0.225000X-0.225000X-0.250000X0.225000X-0.250000X0.225000X0.250000X-0.225000X0.250000X0*%
%ADD37RoundRect,0.225000X0.225000X0.375000X-0.225000X0.375000X-0.225000X-0.375000X0.225000X-0.375000X0*%
G04 APERTURE END LIST*
D10*
%TO.C,R5*%
X141510000Y-116800000D03*
X140490000Y-116800000D03*
%TD*%
D11*
%TO.C,C15*%
X141521573Y-89941573D03*
X141521573Y-90901573D03*
%TD*%
D12*
%TO.C,Q4*%
X168250000Y-115537500D03*
X170150000Y-115537500D03*
X169200000Y-113662500D03*
%TD*%
D13*
%TO.C,R16*%
X171952500Y-89600000D03*
X172972500Y-89600000D03*
%TD*%
D14*
%TO.C,C1*%
X155120000Y-103000000D03*
X156080000Y-103000000D03*
%TD*%
D15*
%TO.C,J2*%
X140766573Y-104841573D03*
X140766573Y-105641573D03*
D16*
X140766573Y-106841573D03*
X140766573Y-107841573D03*
X140766573Y-108341573D03*
X140766573Y-109341573D03*
D15*
X140766573Y-110541573D03*
X140766573Y-111341573D03*
X140766573Y-111341573D03*
X140766573Y-110541573D03*
D16*
X140766573Y-109841573D03*
X140766573Y-108841573D03*
X140766573Y-107341573D03*
X140766573Y-106341573D03*
D15*
X140766573Y-105641573D03*
X140766573Y-104841573D03*
%TD*%
D17*
%TO.C,U1*%
X143721573Y-86941573D03*
X143721573Y-89221573D03*
D18*
X148346573Y-87696573D03*
X148346573Y-90746573D03*
X151696573Y-87696573D03*
X151696573Y-90746573D03*
D17*
X143721573Y-91501573D03*
%TD*%
D10*
%TO.C,R13*%
X179000000Y-90200000D03*
X177980000Y-90200000D03*
%TD*%
D19*
%TO.C,C13*%
X139600000Y-99621573D03*
X136000000Y-99621573D03*
%TD*%
D20*
%TO.C,R1*%
X142721573Y-111841573D03*
X142721573Y-110821573D03*
%TD*%
D21*
%TO.C,U3*%
X158250000Y-104800000D03*
X157600000Y-104800000D03*
X156950000Y-104800000D03*
X156300000Y-104800000D03*
X155650000Y-104800000D03*
X155000000Y-104800000D03*
X154350000Y-104800000D03*
X153700000Y-104800000D03*
X153050000Y-104800000D03*
X152400000Y-104800000D03*
X151750000Y-104800000D03*
X151100000Y-104800000D03*
X150450000Y-104800000D03*
X149800000Y-104800000D03*
X149800000Y-112000000D03*
X150450000Y-112000000D03*
X151100000Y-112000000D03*
X151750000Y-112000000D03*
X152400000Y-112000000D03*
X153050000Y-112000000D03*
X153700000Y-112000000D03*
X154350000Y-112000000D03*
X155000000Y-112000000D03*
X155650000Y-112000000D03*
X156300000Y-112000000D03*
X156950000Y-112000000D03*
X157600000Y-112000000D03*
X158250000Y-112000000D03*
%TD*%
D22*
%TO.C,R21*%
X161050000Y-115427500D03*
X161050000Y-116447500D03*
%TD*%
D11*
%TO.C,C4*%
X144121573Y-103341573D03*
X144121573Y-104301573D03*
%TD*%
D23*
%TO.C,D8*%
X152509073Y-94621573D03*
X150934073Y-94621573D03*
%TD*%
D22*
%TO.C,R19*%
X154800000Y-115427500D03*
X154800000Y-116447500D03*
%TD*%
D23*
%TO.C,D2*%
X144587500Y-120200000D03*
X143012500Y-120200000D03*
%TD*%
D24*
%TO.C,F2*%
X142125000Y-100221573D03*
X143875000Y-100221573D03*
%TD*%
D25*
%TO.C,C9*%
X167339411Y-106339411D03*
X166660589Y-105660589D03*
%TD*%
D26*
%TO.C,C7*%
X173060589Y-94860589D03*
X173739411Y-95539411D03*
%TD*%
D27*
%TO.C,U5*%
X163614897Y-100025305D03*
X164180583Y-100590990D03*
X164746268Y-101156676D03*
X165311953Y-101722361D03*
X165877639Y-102288047D03*
X166443324Y-102853732D03*
X167009010Y-103419417D03*
X167574695Y-103985103D03*
D28*
X169625305Y-103985103D03*
X170190990Y-103419417D03*
X170756676Y-102853732D03*
X171322361Y-102288047D03*
X171888047Y-101722361D03*
X172453732Y-101156676D03*
X173019417Y-100590990D03*
X173585103Y-100025305D03*
D27*
X173585103Y-97974695D03*
X173019417Y-97409010D03*
X172453732Y-96843324D03*
X171888047Y-96277639D03*
X171322361Y-95711953D03*
X170756676Y-95146268D03*
X170190990Y-94580583D03*
X169625305Y-94014897D03*
D28*
X167574695Y-94014897D03*
X167009010Y-94580583D03*
X166443324Y-95146268D03*
X165877639Y-95711953D03*
X165311953Y-96277639D03*
X164746268Y-96843324D03*
X164180583Y-97409010D03*
X163614897Y-97974695D03*
%TD*%
D29*
%TO.C,C16*%
X141521573Y-88501573D03*
X141521573Y-87541573D03*
%TD*%
D20*
%TO.C,R7*%
X166650000Y-116447500D03*
X166650000Y-115427500D03*
%TD*%
%TO.C,R14*%
X174000000Y-114710000D03*
X174000000Y-113690000D03*
%TD*%
D22*
%TO.C,R20*%
X158650000Y-115427500D03*
X158650000Y-116447500D03*
%TD*%
D30*
%TO.C,U2*%
X144984073Y-108471573D03*
X144984073Y-109421573D03*
X144984073Y-110371573D03*
X147259073Y-110371573D03*
X147259073Y-109421573D03*
X147259073Y-108471573D03*
%TD*%
D22*
%TO.C,R18*%
X156250000Y-115427500D03*
X156250000Y-116447500D03*
%TD*%
D23*
%TO.C,D3*%
X144587500Y-116400000D03*
X143012500Y-116400000D03*
%TD*%
D20*
%TO.C,R4*%
X141400000Y-119510000D03*
X141400000Y-118490000D03*
%TD*%
D22*
%TO.C,R9*%
X154521573Y-94711573D03*
X154521573Y-95731573D03*
%TD*%
D31*
%TO.C,FB2*%
X142921573Y-104306573D03*
X142921573Y-103336573D03*
%TD*%
D32*
%TO.C,Q3*%
X171462500Y-86300000D03*
X171462500Y-88200000D03*
X173337500Y-87250000D03*
%TD*%
D33*
%TO.C,Y2*%
X165778858Y-106976777D03*
X164223223Y-105421142D03*
X163021142Y-106623223D03*
X164576777Y-108178858D03*
%TD*%
D34*
%TO.C,D6*%
X146000000Y-96950000D03*
X146000000Y-100250000D03*
%TD*%
D35*
%TO.C,C2*%
X154280000Y-114000000D03*
X153320000Y-114000000D03*
%TD*%
D36*
%TO.C,C12*%
X150225000Y-114200000D03*
X151775000Y-114200000D03*
%TD*%
D35*
%TO.C,C5*%
X143680000Y-102021573D03*
X142720000Y-102021573D03*
%TD*%
D10*
%TO.C,R17*%
X179000000Y-94200000D03*
X177980000Y-94200000D03*
%TD*%
D26*
%TO.C,C8*%
X164860589Y-103860589D03*
X165539411Y-104539411D03*
%TD*%
D22*
%TO.C,R2*%
X142921573Y-105711573D03*
X142921573Y-106731573D03*
%TD*%
%TO.C,R6*%
X171600000Y-114990000D03*
X171600000Y-116010000D03*
%TD*%
D13*
%TO.C,R15*%
X154290000Y-84000000D03*
X155310000Y-84000000D03*
%TD*%
%TO.C,R8*%
X140290000Y-114200000D03*
X141310000Y-114200000D03*
%TD*%
D25*
%TO.C,C6*%
X164139411Y-103139411D03*
X163460589Y-102460589D03*
%TD*%
D22*
%TO.C,R22*%
X163650000Y-115427500D03*
X163650000Y-116447500D03*
%TD*%
D37*
%TO.C,D7*%
X146971573Y-94621573D03*
X143671573Y-94621573D03*
%TD*%
M02*
