%TF.GenerationSoftware,KiCad,Pcbnew,8.0.8-8.0.8-0~ubuntu24.04.1*%
%TF.CreationDate,2025-02-01T12:16:17-07:00*%
%TF.ProjectId,Control Board,436f6e74-726f-46c2-9042-6f6172642e6b,rev?*%
%TF.SameCoordinates,Original*%
%TF.FileFunction,Copper,L4,Bot*%
%TF.FilePolarity,Positive*%
%FSLAX46Y46*%
G04 Gerber Fmt 4.6, Leading zero omitted, Abs format (unit mm)*
G04 Created by KiCad (PCBNEW 8.0.8-8.0.8-0~ubuntu24.04.1) date 2025-02-01 12:16:17*
%MOMM*%
%LPD*%
G01*
G04 APERTURE LIST*
G04 Aperture macros list*
%AMRoundRect*
0 Rectangle with rounded corners*
0 $1 Rounding radius*
0 $2 $3 $4 $5 $6 $7 $8 $9 X,Y pos of 4 corners*
0 Add a 4 corners polygon primitive as box body*
4,1,4,$2,$3,$4,$5,$6,$7,$8,$9,$2,$3,0*
0 Add four circle primitives for the rounded corners*
1,1,$1+$1,$2,$3*
1,1,$1+$1,$4,$5*
1,1,$1+$1,$6,$7*
1,1,$1+$1,$8,$9*
0 Add four rect primitives between the rounded corners*
20,1,$1+$1,$2,$3,$4,$5,0*
20,1,$1+$1,$4,$5,$6,$7,0*
20,1,$1+$1,$6,$7,$8,$9,0*
20,1,$1+$1,$8,$9,$2,$3,0*%
G04 Aperture macros list end*
%TA.AperFunction,ComponentPad*%
%ADD10R,2.600000X2.600000*%
%TD*%
%TA.AperFunction,ComponentPad*%
%ADD11C,2.600000*%
%TD*%
%TA.AperFunction,ComponentPad*%
%ADD12RoundRect,0.250000X-0.625000X0.350000X-0.625000X-0.350000X0.625000X-0.350000X0.625000X0.350000X0*%
%TD*%
%TA.AperFunction,ComponentPad*%
%ADD13O,1.750000X1.200000*%
%TD*%
%TA.AperFunction,ComponentPad*%
%ADD14C,4.400000*%
%TD*%
%TA.AperFunction,HeatsinkPad*%
%ADD15O,2.100000X1.000000*%
%TD*%
%TA.AperFunction,HeatsinkPad*%
%ADD16O,1.600000X1.000000*%
%TD*%
%TA.AperFunction,ComponentPad*%
%ADD17R,2.000000X2.000000*%
%TD*%
%TA.AperFunction,ComponentPad*%
%ADD18C,2.000000*%
%TD*%
%TA.AperFunction,ComponentPad*%
%ADD19C,2.100000*%
%TD*%
%TA.AperFunction,ComponentPad*%
%ADD20C,1.750000*%
%TD*%
%TA.AperFunction,ComponentPad*%
%ADD21R,1.700000X1.700000*%
%TD*%
%TA.AperFunction,ComponentPad*%
%ADD22O,1.700000X1.700000*%
%TD*%
%TA.AperFunction,ComponentPad*%
%ADD23RoundRect,0.250000X-0.600000X-0.725000X0.600000X-0.725000X0.600000X0.725000X-0.600000X0.725000X0*%
%TD*%
%TA.AperFunction,ComponentPad*%
%ADD24O,1.700000X1.950000*%
%TD*%
%TA.AperFunction,ViaPad*%
%ADD25C,0.600000*%
%TD*%
%TA.AperFunction,Conductor*%
%ADD26C,0.300000*%
%TD*%
%TA.AperFunction,Conductor*%
%ADD27C,1.000000*%
%TD*%
G04 APERTURE END LIST*
D10*
%TO.P,J1,1,Pin_1*%
%TO.N,GND*%
X148480000Y-77695000D03*
D11*
%TO.P,J1,2,Pin_2*%
%TO.N,+9V*%
X143400000Y-77695000D03*
%TD*%
D12*
%TO.P,J7,1,Pin_1*%
%TO.N,BTN2*%
X183400000Y-103600000D03*
D13*
%TO.P,J7,2,Pin_2*%
%TO.N,GND*%
X183400000Y-105600000D03*
%TO.P,J7,3,Pin_3*%
%TO.N,BTN1*%
X183400000Y-107600000D03*
%TO.P,J7,4,Pin_4*%
%TO.N,GND*%
X183400000Y-109600000D03*
%TD*%
D14*
%TO.P,H3,1,1*%
%TO.N,GND*%
X182600000Y-76000000D03*
%TD*%
D15*
%TO.P,J2,S1,SHIELD*%
%TO.N,Net-(J2-SHIELD)*%
X139851573Y-103771573D03*
D16*
X135671573Y-103771573D03*
D15*
X139851573Y-112411573D03*
D16*
X135671573Y-112411573D03*
%TD*%
D12*
%TO.P,J5,1,Pin_1*%
%TO.N,HI_HEAT_LED*%
X183400000Y-88200000D03*
D13*
%TO.P,J5,2,Pin_2*%
%TO.N,HI_HEAT_K*%
X183400000Y-90200000D03*
%TO.P,J5,3,Pin_3*%
%TO.N,+9V*%
X183400000Y-92200000D03*
%TO.P,J5,4,Pin_4*%
%TO.N,/Connectors/SSR1_LED_K*%
X183400000Y-94200000D03*
%TD*%
D10*
%TO.P,J8,1,Pin_1*%
%TO.N,+9V*%
X176545000Y-77695000D03*
D11*
%TO.P,J8,2,Pin_2*%
%TO.N,Net-(J8-Pin_2)*%
X171465000Y-77695000D03*
%TD*%
D17*
%TO.P,BZ1,1,+*%
%TO.N,/Microcontroller/BUZZER*%
X161000000Y-92600000D03*
D18*
%TO.P,BZ1,2,-*%
%TO.N,Net-(BZ1--)*%
X161000000Y-85000000D03*
%TD*%
D19*
%TO.P,SW1,*%
%TO.N,*%
X177950000Y-119400000D03*
X170940000Y-119400000D03*
D20*
%TO.P,SW1,1,1*%
%TO.N,GND*%
X176700000Y-121890000D03*
%TO.P,SW1,2,2*%
%TO.N,AVR_RST*%
X172200000Y-121890000D03*
%TD*%
D21*
%TO.P,J6,1,Pin_1*%
%TO.N,TC_DAT*%
X177400000Y-111280000D03*
D22*
%TO.P,J6,2,Pin_2*%
%TO.N,VCC*%
X174860000Y-111280000D03*
%TO.P,J6,3,Pin_3*%
%TO.N,ICSP_13*%
X177400000Y-108740000D03*
%TO.P,J6,4,Pin_4*%
%TO.N,TC_CS*%
X174860000Y-108740000D03*
%TO.P,J6,5,Pin_5*%
%TO.N,AVR_RST*%
X177400000Y-106200000D03*
%TO.P,J6,6,Pin_6*%
%TO.N,GND*%
X174860000Y-106200000D03*
%TD*%
D23*
%TO.P,J3,1,Pin_1*%
%TO.N,GND*%
X155000000Y-75896573D03*
D24*
%TO.P,J3,2,Pin_2*%
%TO.N,VCC*%
X157500000Y-75896573D03*
%TO.P,J3,3,Pin_3*%
%TO.N,TC_CLK*%
X160000000Y-75896573D03*
%TO.P,J3,4,Pin_4*%
%TO.N,TC_CS*%
X162500000Y-75896573D03*
%TO.P,J3,5,Pin_5*%
%TO.N,TC_DAT*%
X165000000Y-75896573D03*
%TD*%
D23*
%TO.P,J4,1,Pin_1*%
%TO.N,VCC*%
X148600000Y-120200000D03*
D24*
%TO.P,J4,2,Pin_2*%
%TO.N,GND*%
X151100000Y-120200000D03*
%TO.P,J4,3,Pin_3*%
%TO.N,LCD_CS*%
X153600000Y-120200000D03*
%TO.P,J4,4,Pin_4*%
%TO.N,LCD_RST*%
X156100000Y-120200000D03*
%TO.P,J4,5,Pin_5*%
%TO.N,LCD_DC*%
X158600000Y-120200000D03*
%TO.P,J4,6,Pin_6*%
%TO.N,LCD_DIN*%
X161100000Y-120200000D03*
%TO.P,J4,7,Pin_7*%
%TO.N,LCD_CLK*%
X163600000Y-120200000D03*
%TO.P,J4,8,Pin_8*%
%TO.N,/Connectors/LCD_BL*%
X166100000Y-120200000D03*
%TD*%
D14*
%TO.P,H4,1,1*%
%TO.N,GND*%
X182600000Y-121200000D03*
%TD*%
%TO.P,H1,1,1*%
%TO.N,GND*%
X137400000Y-76000000D03*
%TD*%
%TO.P,H2,1,1*%
%TO.N,GND*%
X137400000Y-121200000D03*
%TD*%
D25*
%TO.N,GND*%
X154000000Y-103000000D03*
X155000000Y-93000000D03*
X156000000Y-93000000D03*
X154000000Y-93000000D03*
X157000000Y-92000000D03*
X157000000Y-93000000D03*
X155000000Y-92000000D03*
X156000000Y-92000000D03*
X154000000Y-92000000D03*
X155000000Y-91000000D03*
X155000000Y-90000000D03*
X156000000Y-90000000D03*
X157000000Y-91000000D03*
X154000000Y-90000000D03*
X157000000Y-89000000D03*
X157000000Y-90000000D03*
X155000000Y-89000000D03*
X154000000Y-91000000D03*
X156000000Y-89000000D03*
X156000000Y-91000000D03*
X154000000Y-89000000D03*
X157000000Y-88000000D03*
X156000000Y-88000000D03*
X155000000Y-88000000D03*
X154000000Y-88000000D03*
X157000000Y-87000000D03*
X156000000Y-87000000D03*
X155000000Y-87000000D03*
X154000000Y-87000000D03*
X157000000Y-86000000D03*
X156000000Y-86000000D03*
X155000000Y-86000000D03*
X154000000Y-86000000D03*
X154500000Y-83000000D03*
%TO.N,TC_CLK*%
X169500000Y-101000000D03*
%TO.N,TC_CS*%
X171000000Y-99000000D03*
%TO.N,TC_DAT*%
X171000000Y-98000000D03*
%TO.N,Net-(J8-Pin_2)*%
X174000000Y-86000000D03*
X175500000Y-91500000D03*
%TO.N,GND*%
X175000000Y-87500000D03*
%TO.N,AVR_RST*%
X166500000Y-97500000D03*
%TO.N,IDE_A3*%
X168000000Y-96500000D03*
X172150000Y-104750000D03*
%TO.N,GND*%
X172500000Y-116000000D03*
X168500000Y-113500000D03*
%TO.N,AVR_SSR1*%
X170500000Y-100500000D03*
X172000000Y-90500000D03*
%TO.N,GND*%
X173000000Y-90500000D03*
X177000000Y-90000000D03*
X155500000Y-96500000D03*
%TO.N,VCC*%
X171980655Y-98092982D03*
X166000000Y-100500000D03*
%TO.N,GND*%
X170500000Y-96500000D03*
X167000000Y-101500000D03*
X163500000Y-104000000D03*
X167500000Y-107500000D03*
%TO.N,Net-(U5-PD3)*%
X156573370Y-114573370D03*
X159000000Y-112500000D03*
%TO.N,/Microcontroller/BUZZER*%
X162000000Y-97500000D03*
%TO.N,/Microcontroller/AVR_TX*%
X155650000Y-106290380D03*
X157000000Y-106500000D03*
%TO.N,AVR_RST*%
X175000000Y-115000000D03*
%TO.N,ICSP_13*%
X179000000Y-102500000D03*
X179350000Y-105000000D03*
%TO.N,GND*%
X142600000Y-112600000D03*
X141600000Y-104200000D03*
X150440380Y-115240380D03*
X136000000Y-98200000D03*
X145800000Y-89200000D03*
X143600000Y-105800000D03*
X152000000Y-110600000D03*
X154247972Y-106056694D03*
X156400000Y-110600000D03*
X142200000Y-114200000D03*
X155200000Y-114000000D03*
X151800000Y-106200000D03*
X136000000Y-101000000D03*
X143800000Y-109200000D03*
X144800000Y-103400000D03*
%TO.N,VCC*%
X151000000Y-95800000D03*
X149000000Y-94621573D03*
X146000000Y-98200000D03*
%TO.N,/Microcontroller/TXL_K*%
X155200000Y-110400000D03*
X145800000Y-120000000D03*
%TO.N,/Microcontroller/RXL_K*%
X154200000Y-110400000D03*
X145800000Y-116400000D03*
%TD*%
D26*
%TO.N,TC_CLK*%
X160000000Y-79000000D02*
X165500000Y-84500000D01*
X169000000Y-95500000D02*
X169000000Y-100500000D01*
X160000000Y-75896573D02*
X160000000Y-79000000D01*
X169000000Y-100500000D02*
X169500000Y-101000000D01*
X165500000Y-84500000D02*
X169000000Y-88000000D01*
X169000000Y-88000000D02*
X169000000Y-95500000D01*
%TO.N,TC_CS*%
X169850000Y-97850000D02*
X171000000Y-99000000D01*
X170000000Y-89000000D02*
X169850000Y-89150000D01*
X162500000Y-80500000D02*
X167000000Y-85000000D01*
X167000000Y-85000000D02*
X170000000Y-88000000D01*
X162500000Y-75896573D02*
X162500000Y-80500000D01*
X169850000Y-89150000D02*
X169850000Y-97850000D01*
X170000000Y-88000000D02*
X170000000Y-89000000D01*
%TO.N,TC_DAT*%
X171500000Y-94500000D02*
X171500000Y-97000000D01*
X170500000Y-87500000D02*
X170500000Y-93500000D01*
X165000000Y-82000000D02*
X167000000Y-84000000D01*
X165000000Y-75896573D02*
X165000000Y-82000000D01*
X170500000Y-93500000D02*
X171500000Y-94500000D01*
X167000000Y-84000000D02*
X170500000Y-87500000D01*
X171500000Y-97000000D02*
X171000000Y-97500000D01*
X171000000Y-97500000D02*
X171000000Y-98000000D01*
%TO.N,IDE_A3*%
X168000000Y-100850000D02*
X171900000Y-104750000D01*
X168000000Y-96500000D02*
X168000000Y-100850000D01*
X171900000Y-104750000D02*
X172150000Y-104750000D01*
%TO.N,Net-(J8-Pin_2)*%
X174000000Y-90000000D02*
X174000000Y-86000000D01*
X175500000Y-91500000D02*
X174000000Y-90000000D01*
%TO.N,+9V*%
X183400000Y-92200000D02*
X182200000Y-92200000D01*
X176545000Y-78045000D02*
X176545000Y-77695000D01*
X181000000Y-91000000D02*
X181000000Y-82500000D01*
X182200000Y-92200000D02*
X181000000Y-91000000D01*
X181000000Y-82500000D02*
X176545000Y-78045000D01*
D27*
X176545000Y-77695000D02*
X172850000Y-74000000D01*
X172850000Y-74000000D02*
X146000000Y-74000000D01*
X146000000Y-74000000D02*
X143400000Y-76600000D01*
X143400000Y-76600000D02*
X143400000Y-77695000D01*
D26*
%TO.N,AVR_RST*%
X177400000Y-106200000D02*
X176200000Y-107400000D01*
X176200000Y-107400000D02*
X173842893Y-107400000D01*
X173842893Y-107400000D02*
X166500000Y-100057107D01*
X166500000Y-100057107D02*
X166500000Y-97500000D01*
%TO.N,AVR_SSR1*%
X172630655Y-91630655D02*
X172630655Y-98369345D01*
X172000000Y-91000000D02*
X172630655Y-91630655D01*
X172000000Y-90500000D02*
X172000000Y-91000000D01*
X172630655Y-98369345D02*
X170500000Y-100500000D01*
%TO.N,Net-(U5-PD3)*%
X156926630Y-114573370D02*
X156573370Y-114573370D01*
X159000000Y-112500000D02*
X156926630Y-114573370D01*
%TO.N,/Microcontroller/BUZZER*%
X162000000Y-97500000D02*
X161000000Y-96500000D01*
X161000000Y-96500000D02*
X161000000Y-92600000D01*
%TO.N,/Microcontroller/AVR_TX*%
X155650000Y-106290380D02*
X155859620Y-106500000D01*
X155859620Y-106500000D02*
X157000000Y-106500000D01*
%TO.N,AVR_RST*%
X177500000Y-115000000D02*
X175000000Y-115000000D01*
X179500000Y-113000000D02*
X177500000Y-115000000D01*
X178700000Y-106200000D02*
X179500000Y-107000000D01*
X177400000Y-106200000D02*
X178700000Y-106200000D01*
X179500000Y-107000000D02*
X179500000Y-113000000D01*
%TO.N,ICSP_13*%
X179350000Y-102850000D02*
X179000000Y-102500000D01*
X179350000Y-105000000D02*
X179350000Y-102850000D01*
%TO.N,/Microcontroller/TXL_K*%
X149000000Y-117600000D02*
X147800000Y-117600000D01*
X145800000Y-119600000D02*
X145800000Y-120000000D01*
X155200000Y-111400000D02*
X149000000Y-117600000D01*
X147800000Y-117600000D02*
X145800000Y-119600000D01*
X155200000Y-110400000D02*
X155200000Y-111400000D01*
%TO.N,/Microcontroller/RXL_K*%
X153600000Y-110400000D02*
X147600000Y-116400000D01*
X154200000Y-110400000D02*
X153600000Y-110400000D01*
X147600000Y-116400000D02*
X145800000Y-116400000D01*
%TD*%
M02*
