%TF.GenerationSoftware,KiCad,Pcbnew,8.0.8-8.0.8-0~ubuntu24.04.1*%
%TF.CreationDate,2025-02-01T12:16:16-07:00*%
%TF.ProjectId,Control Board,436f6e74-726f-46c2-9042-6f6172642e6b,rev?*%
%TF.SameCoordinates,Original*%
%TF.FileFunction,Copper,L1,Top*%
%TF.FilePolarity,Positive*%
%FSLAX46Y46*%
G04 Gerber Fmt 4.6, Leading zero omitted, Abs format (unit mm)*
G04 Created by KiCad (PCBNEW 8.0.8-8.0.8-0~ubuntu24.04.1) date 2025-02-01 12:16:16*
%MOMM*%
%LPD*%
G01*
G04 APERTURE LIST*
G04 Aperture macros list*
%AMRoundRect*
0 Rectangle with rounded corners*
0 $1 Rounding radius*
0 $2 $3 $4 $5 $6 $7 $8 $9 X,Y pos of 4 corners*
0 Add a 4 corners polygon primitive as box body*
4,1,4,$2,$3,$4,$5,$6,$7,$8,$9,$2,$3,0*
0 Add four circle primitives for the rounded corners*
1,1,$1+$1,$2,$3*
1,1,$1+$1,$4,$5*
1,1,$1+$1,$6,$7*
1,1,$1+$1,$8,$9*
0 Add four rect primitives between the rounded corners*
20,1,$1+$1,$2,$3,$4,$5,0*
20,1,$1+$1,$4,$5,$6,$7,0*
20,1,$1+$1,$6,$7,$8,$9,0*
20,1,$1+$1,$8,$9,$2,$3,0*%
%AMRotRect*
0 Rectangle, with rotation*
0 The origin of the aperture is its center*
0 $1 length*
0 $2 width*
0 $3 Rotation angle, in degrees counterclockwise*
0 Add horizontal line*
21,1,$1,$2,0,0,$3*%
G04 Aperture macros list end*
%TA.AperFunction,EtchedComponent*%
%ADD10C,0.000000*%
%TD*%
%TA.AperFunction,SMDPad,CuDef*%
%ADD11RoundRect,0.135000X0.135000X0.185000X-0.135000X0.185000X-0.135000X-0.185000X0.135000X-0.185000X0*%
%TD*%
%TA.AperFunction,ComponentPad*%
%ADD12R,2.600000X2.600000*%
%TD*%
%TA.AperFunction,ComponentPad*%
%ADD13C,2.600000*%
%TD*%
%TA.AperFunction,ComponentPad*%
%ADD14RoundRect,0.250000X-0.625000X0.350000X-0.625000X-0.350000X0.625000X-0.350000X0.625000X0.350000X0*%
%TD*%
%TA.AperFunction,ComponentPad*%
%ADD15O,1.750000X1.200000*%
%TD*%
%TA.AperFunction,ComponentPad*%
%ADD16C,4.400000*%
%TD*%
%TA.AperFunction,SMDPad,CuDef*%
%ADD17RoundRect,0.140000X-0.170000X0.140000X-0.170000X-0.140000X0.170000X-0.140000X0.170000X0.140000X0*%
%TD*%
%TA.AperFunction,SMDPad,CuDef*%
%ADD18RoundRect,0.150000X0.150000X-0.587500X0.150000X0.587500X-0.150000X0.587500X-0.150000X-0.587500X0*%
%TD*%
%TA.AperFunction,SMDPad,CuDef*%
%ADD19RoundRect,0.135000X-0.135000X-0.185000X0.135000X-0.185000X0.135000X0.185000X-0.135000X0.185000X0*%
%TD*%
%TA.AperFunction,SMDPad,CuDef*%
%ADD20RoundRect,0.140000X-0.140000X-0.170000X0.140000X-0.170000X0.140000X0.170000X-0.140000X0.170000X0*%
%TD*%
%TA.AperFunction,SMDPad,CuDef*%
%ADD21R,1.450000X0.600000*%
%TD*%
%TA.AperFunction,SMDPad,CuDef*%
%ADD22R,1.450000X0.300000*%
%TD*%
%TA.AperFunction,HeatsinkPad*%
%ADD23O,2.100000X1.000000*%
%TD*%
%TA.AperFunction,HeatsinkPad*%
%ADD24O,1.600000X1.000000*%
%TD*%
%TA.AperFunction,SMDPad,CuDef*%
%ADD25RoundRect,0.250000X-0.850000X-0.350000X0.850000X-0.350000X0.850000X0.350000X-0.850000X0.350000X0*%
%TD*%
%TA.AperFunction,SMDPad,CuDef*%
%ADD26RoundRect,0.250000X-1.275000X-1.125000X1.275000X-1.125000X1.275000X1.125000X-1.275000X1.125000X0*%
%TD*%
%TA.AperFunction,SMDPad,CuDef*%
%ADD27RoundRect,0.249997X-2.950003X-2.650003X2.950003X-2.650003X2.950003X2.650003X-2.950003X2.650003X0*%
%TD*%
%TA.AperFunction,SMDPad,CuDef*%
%ADD28RoundRect,0.250000X1.050000X0.550000X-1.050000X0.550000X-1.050000X-0.550000X1.050000X-0.550000X0*%
%TD*%
%TA.AperFunction,SMDPad,CuDef*%
%ADD29RoundRect,0.135000X0.185000X-0.135000X0.185000X0.135000X-0.185000X0.135000X-0.185000X-0.135000X0*%
%TD*%
%TA.AperFunction,ComponentPad*%
%ADD30R,2.000000X2.000000*%
%TD*%
%TA.AperFunction,ComponentPad*%
%ADD31C,2.000000*%
%TD*%
%TA.AperFunction,SMDPad,CuDef*%
%ADD32R,0.450000X1.750000*%
%TD*%
%TA.AperFunction,SMDPad,CuDef*%
%ADD33RoundRect,0.135000X-0.185000X0.135000X-0.185000X-0.135000X0.185000X-0.135000X0.185000X0.135000X0*%
%TD*%
%TA.AperFunction,SMDPad,CuDef*%
%ADD34RoundRect,0.218750X0.218750X0.256250X-0.218750X0.256250X-0.218750X-0.256250X0.218750X-0.256250X0*%
%TD*%
%TA.AperFunction,SMDPad,CuDef*%
%ADD35RoundRect,0.237500X-0.287500X-0.237500X0.287500X-0.237500X0.287500X0.237500X-0.287500X0.237500X0*%
%TD*%
%TA.AperFunction,ComponentPad*%
%ADD36C,2.100000*%
%TD*%
%TA.AperFunction,ComponentPad*%
%ADD37C,1.750000*%
%TD*%
%TA.AperFunction,SMDPad,CuDef*%
%ADD38RoundRect,0.140000X0.219203X0.021213X0.021213X0.219203X-0.219203X-0.021213X-0.021213X-0.219203X0*%
%TD*%
%TA.AperFunction,ComponentPad*%
%ADD39R,1.700000X1.700000*%
%TD*%
%TA.AperFunction,ComponentPad*%
%ADD40O,1.700000X1.700000*%
%TD*%
%TA.AperFunction,ComponentPad*%
%ADD41RoundRect,0.250000X-0.600000X-0.725000X0.600000X-0.725000X0.600000X0.725000X-0.600000X0.725000X0*%
%TD*%
%TA.AperFunction,ComponentPad*%
%ADD42O,1.700000X1.950000*%
%TD*%
%TA.AperFunction,SMDPad,CuDef*%
%ADD43RoundRect,0.140000X-0.219203X-0.021213X-0.021213X-0.219203X0.219203X0.021213X0.021213X0.219203X0*%
%TD*%
%TA.AperFunction,SMDPad,CuDef*%
%ADD44RotRect,1.600000X0.550000X45.000000*%
%TD*%
%TA.AperFunction,SMDPad,CuDef*%
%ADD45RotRect,1.600000X0.550000X135.000000*%
%TD*%
%TA.AperFunction,SMDPad,CuDef*%
%ADD46RoundRect,0.140000X0.170000X-0.140000X0.170000X0.140000X-0.170000X0.140000X-0.170000X-0.140000X0*%
%TD*%
%TA.AperFunction,SMDPad,CuDef*%
%ADD47RoundRect,0.150000X-0.512500X-0.150000X0.512500X-0.150000X0.512500X0.150000X-0.512500X0.150000X0*%
%TD*%
%TA.AperFunction,SMDPad,CuDef*%
%ADD48RoundRect,0.147500X0.172500X-0.147500X0.172500X0.147500X-0.172500X0.147500X-0.172500X-0.147500X0*%
%TD*%
%TA.AperFunction,SMDPad,CuDef*%
%ADD49RoundRect,0.150000X-0.587500X-0.150000X0.587500X-0.150000X0.587500X0.150000X-0.587500X0.150000X0*%
%TD*%
%TA.AperFunction,SMDPad,CuDef*%
%ADD50RotRect,1.400000X1.200000X135.000000*%
%TD*%
%TA.AperFunction,SMDPad,CuDef*%
%ADD51RoundRect,0.225000X-0.375000X0.225000X-0.375000X-0.225000X0.375000X-0.225000X0.375000X0.225000X0*%
%TD*%
%TA.AperFunction,SMDPad,CuDef*%
%ADD52RoundRect,0.140000X0.140000X0.170000X-0.140000X0.170000X-0.140000X-0.170000X0.140000X-0.170000X0*%
%TD*%
%TA.AperFunction,SMDPad,CuDef*%
%ADD53RoundRect,0.225000X-0.225000X-0.250000X0.225000X-0.250000X0.225000X0.250000X-0.225000X0.250000X0*%
%TD*%
%TA.AperFunction,SMDPad,CuDef*%
%ADD54RoundRect,0.225000X0.225000X0.375000X-0.225000X0.375000X-0.225000X-0.375000X0.225000X-0.375000X0*%
%TD*%
%TA.AperFunction,ViaPad*%
%ADD55C,0.600000*%
%TD*%
%TA.AperFunction,Conductor*%
%ADD56C,0.300000*%
%TD*%
%TA.AperFunction,Conductor*%
%ADD57C,0.500000*%
%TD*%
G04 APERTURE END LIST*
D10*
%TA.AperFunction,EtchedComponent*%
%TO.C,G\u002A\u002A\u002A*%
G36*
X79905154Y-105033199D02*
G01*
X79958711Y-105034352D01*
X80251202Y-105041084D01*
X80299294Y-105310290D01*
X80320508Y-105419530D01*
X80341522Y-105511350D01*
X80359744Y-105575328D01*
X80371415Y-105600319D01*
X80410827Y-105623178D01*
X80478836Y-105652854D01*
X80561908Y-105684552D01*
X80646511Y-105713482D01*
X80719110Y-105734849D01*
X80766173Y-105743862D01*
X80774499Y-105743070D01*
X80805525Y-105725342D01*
X80866515Y-105686420D01*
X80947937Y-105632495D01*
X81019323Y-105584119D01*
X81234687Y-105436774D01*
X81433846Y-105634898D01*
X81512061Y-105714296D01*
X81575840Y-105782063D01*
X81618401Y-105830784D01*
X81633004Y-105852681D01*
X81620185Y-105879241D01*
X81585361Y-105936572D01*
X81533986Y-106016000D01*
X81477037Y-106100773D01*
X81321069Y-106329205D01*
X81377635Y-106442099D01*
X81417517Y-106528066D01*
X81452376Y-106613721D01*
X81462909Y-106643691D01*
X81473332Y-106676617D01*
X81484637Y-106701201D01*
X81503775Y-106720155D01*
X81537698Y-106736188D01*
X81593356Y-106752013D01*
X81677701Y-106770339D01*
X81797683Y-106793878D01*
X81897337Y-106813116D01*
X82053534Y-106843355D01*
X82053534Y-107130670D01*
X82053534Y-107417985D01*
X81800164Y-107468621D01*
X81672627Y-107495004D01*
X81585146Y-107516092D01*
X81530407Y-107534724D01*
X81501099Y-107553737D01*
X81489909Y-107575972D01*
X81488823Y-107589500D01*
X81479466Y-107626926D01*
X81454727Y-107694436D01*
X81419603Y-107778589D01*
X81412888Y-107793740D01*
X81336954Y-107963564D01*
X81484979Y-108177170D01*
X81545316Y-108265969D01*
X81593793Y-108340610D01*
X81624721Y-108392120D01*
X81633004Y-108410595D01*
X81616911Y-108434404D01*
X81573162Y-108484281D01*
X81508554Y-108552784D01*
X81434673Y-108627715D01*
X81236342Y-108825016D01*
X81012924Y-108677057D01*
X80789506Y-108529097D01*
X80679683Y-108582453D01*
X80614814Y-108610488D01*
X80569045Y-108623820D01*
X80556780Y-108622728D01*
X80544135Y-108597458D01*
X80516410Y-108534497D01*
X80476523Y-108440720D01*
X80427389Y-108323000D01*
X80371925Y-108188211D01*
X80359068Y-108156716D01*
X80174436Y-107703785D01*
X80306017Y-107587776D01*
X80422539Y-107464758D01*
X80494509Y-107338030D01*
X80525347Y-107200954D01*
X80527084Y-107158536D01*
X80510050Y-106993110D01*
X80455233Y-106851900D01*
X80389005Y-106758238D01*
X80263943Y-106645416D01*
X80121614Y-106576580D01*
X79966204Y-106552997D01*
X79801894Y-106575938D01*
X79794581Y-106578019D01*
X79644122Y-106645065D01*
X79523022Y-106746671D01*
X79435823Y-106876239D01*
X79387068Y-107027170D01*
X79380134Y-107179994D01*
X79397922Y-107298416D01*
X79434633Y-107399248D01*
X79496770Y-107493088D01*
X79590839Y-107590535D01*
X79678351Y-107665898D01*
X79730226Y-107708445D01*
X79539436Y-108163759D01*
X79481657Y-108301107D01*
X79430092Y-108422659D01*
X79387625Y-108521698D01*
X79357143Y-108591507D01*
X79341529Y-108625370D01*
X79340278Y-108627441D01*
X79315921Y-108622672D01*
X79262724Y-108601331D01*
X79221965Y-108582394D01*
X79112020Y-108528979D01*
X78948719Y-108637222D01*
X78863052Y-108693906D01*
X78785438Y-108745090D01*
X78730565Y-108781089D01*
X78724314Y-108785159D01*
X78697261Y-108801108D01*
X78673142Y-108805568D01*
X78644442Y-108793927D01*
X78603648Y-108761572D01*
X78543243Y-108703892D01*
X78465988Y-108626601D01*
X78388384Y-108547067D01*
X78325150Y-108479359D01*
X78283043Y-108430914D01*
X78268766Y-108409562D01*
X78281689Y-108383261D01*
X78316667Y-108326634D01*
X78368019Y-108248605D01*
X78416832Y-108177112D01*
X78564897Y-107963447D01*
X78502614Y-107823931D01*
X78466527Y-107738406D01*
X78437225Y-107660624D01*
X78423977Y-107618104D01*
X78403335Y-107563910D01*
X78381300Y-107535525D01*
X78347986Y-107524345D01*
X78278486Y-107506834D01*
X78183829Y-107485631D01*
X78101607Y-107468621D01*
X77848236Y-107417985D01*
X77848236Y-107130670D01*
X77848236Y-106843355D01*
X78004433Y-106813116D01*
X78151117Y-106784771D01*
X78257676Y-106763389D01*
X78331060Y-106746259D01*
X78378221Y-106730670D01*
X78406110Y-106713912D01*
X78421677Y-106693274D01*
X78431874Y-106666044D01*
X78438861Y-106643691D01*
X78467416Y-106567999D01*
X78506669Y-106478433D01*
X78525353Y-106439695D01*
X78583137Y-106324399D01*
X78425952Y-106098948D01*
X78363522Y-106007732D01*
X78312836Y-105930486D01*
X78279444Y-105875888D01*
X78268766Y-105853260D01*
X78284867Y-105829315D01*
X78328661Y-105779278D01*
X78393384Y-105710561D01*
X78469113Y-105633716D01*
X78669460Y-105434410D01*
X78900552Y-105592194D01*
X78993094Y-105654310D01*
X79071440Y-105704899D01*
X79126999Y-105738546D01*
X79150773Y-105749889D01*
X79192381Y-105740413D01*
X79260629Y-105716061D01*
X79342291Y-105682622D01*
X79424143Y-105645883D01*
X79492959Y-105611630D01*
X79535515Y-105585650D01*
X79542425Y-105578508D01*
X79554283Y-105541298D01*
X79571586Y-105469469D01*
X79591380Y-105375724D01*
X79600373Y-105329448D01*
X79619932Y-105228453D01*
X79637506Y-105142068D01*
X79650333Y-105083691D01*
X79653743Y-105070397D01*
X79663353Y-105052418D01*
X79685134Y-105040673D01*
X79727250Y-105034198D01*
X79797868Y-105032029D01*
X79905154Y-105033199D01*
G37*
%TD.AperFunction*%
%TA.AperFunction,EtchedComponent*%
%TO.C,REF\u002A\u002A*%
G36*
X138828696Y-91887890D02*
G01*
X138944269Y-91915779D01*
X139056524Y-91942887D01*
X139164846Y-91969064D01*
X139268622Y-91994162D01*
X139367238Y-92018031D01*
X139460079Y-92040523D01*
X139546533Y-92061488D01*
X139625985Y-92080776D01*
X139697821Y-92098240D01*
X139761428Y-92113730D01*
X139816191Y-92127097D01*
X139861497Y-92138191D01*
X139896731Y-92146864D01*
X139921281Y-92152966D01*
X139934532Y-92156349D01*
X139936802Y-92157010D01*
X139937335Y-92163624D01*
X139937931Y-92181520D01*
X139938568Y-92209354D01*
X139939222Y-92245780D01*
X139939871Y-92289453D01*
X139940489Y-92339029D01*
X139941056Y-92393163D01*
X139941255Y-92414914D01*
X139943500Y-92670470D01*
X139836167Y-92685754D01*
X139728834Y-92701039D01*
X138968034Y-92555316D01*
X138871473Y-92536823D01*
X138778075Y-92518939D01*
X138688621Y-92501815D01*
X138603894Y-92485600D01*
X138524673Y-92470442D01*
X138451741Y-92456492D01*
X138385878Y-92443899D01*
X138327866Y-92432811D01*
X138278487Y-92423380D01*
X138238521Y-92415753D01*
X138208750Y-92410080D01*
X138189955Y-92406512D01*
X138183267Y-92405257D01*
X138159300Y-92400921D01*
X138163767Y-93767588D01*
X138168235Y-95134254D01*
X138128406Y-95138417D01*
X138114483Y-95139230D01*
X138089995Y-95139952D01*
X138056230Y-95140585D01*
X138014476Y-95141127D01*
X137966022Y-95141578D01*
X137912155Y-95141939D01*
X137854164Y-95142210D01*
X137793337Y-95142390D01*
X137730962Y-95142480D01*
X137668327Y-95142480D01*
X137606720Y-95142390D01*
X137547431Y-95142209D01*
X137491745Y-95141937D01*
X137440953Y-95141576D01*
X137396342Y-95141124D01*
X137359200Y-95140582D01*
X137330816Y-95139950D01*
X137312477Y-95139227D01*
X137305471Y-95138414D01*
X137305468Y-95138411D01*
X137305089Y-95131791D01*
X137304757Y-95113121D01*
X137304472Y-95082977D01*
X137304234Y-95041938D01*
X137304043Y-94990580D01*
X137303899Y-94929480D01*
X137303803Y-94859215D01*
X137303753Y-94780363D01*
X137303751Y-94693501D01*
X137303796Y-94599205D01*
X137303888Y-94498054D01*
X137304027Y-94390623D01*
X137304213Y-94277490D01*
X137304446Y-94159233D01*
X137304727Y-94036428D01*
X137305054Y-93909653D01*
X137305429Y-93779484D01*
X137305461Y-93768775D01*
X137309624Y-92403308D01*
X137284901Y-92408813D01*
X137259010Y-92414443D01*
X137223156Y-92422034D01*
X137178276Y-92431399D01*
X137125305Y-92442349D01*
X137065180Y-92454697D01*
X136998837Y-92468256D01*
X136927211Y-92482838D01*
X136851238Y-92498255D01*
X136771855Y-92514319D01*
X136689996Y-92530842D01*
X136606598Y-92547638D01*
X136522597Y-92564518D01*
X136438929Y-92581295D01*
X136356530Y-92597780D01*
X136276335Y-92613787D01*
X136199280Y-92629127D01*
X136126301Y-92643613D01*
X136058335Y-92657058D01*
X135996317Y-92669273D01*
X135941182Y-92680070D01*
X135893868Y-92689263D01*
X135855309Y-92696663D01*
X135826441Y-92702083D01*
X135808202Y-92705336D01*
X135801715Y-92706255D01*
X135785407Y-92705329D01*
X135761440Y-92702858D01*
X135732400Y-92699232D01*
X135700873Y-92694839D01*
X135669443Y-92690069D01*
X135640695Y-92685311D01*
X135617216Y-92680955D01*
X135601591Y-92677390D01*
X135596462Y-92675345D01*
X135595581Y-92667969D01*
X135595012Y-92649650D01*
X135594727Y-92622037D01*
X135594702Y-92586779D01*
X135594911Y-92545525D01*
X135595327Y-92499923D01*
X135595925Y-92451623D01*
X135596679Y-92402274D01*
X135597563Y-92353524D01*
X135598551Y-92307022D01*
X135599617Y-92264418D01*
X135600736Y-92227359D01*
X135601881Y-92197495D01*
X135603027Y-92176475D01*
X135604148Y-92165948D01*
X135604470Y-92165088D01*
X135611002Y-92163041D01*
X135629145Y-92158042D01*
X135658272Y-92150256D01*
X135697755Y-92139843D01*
X135746967Y-92126965D01*
X135805281Y-92111786D01*
X135872070Y-92094466D01*
X135946707Y-92075168D01*
X136028565Y-92054054D01*
X136117016Y-92031286D01*
X136211433Y-92007026D01*
X136311190Y-91981437D01*
X136415660Y-91954680D01*
X136524214Y-91926917D01*
X136636226Y-91898311D01*
X136666030Y-91890707D01*
X137722797Y-91621118D01*
X138828696Y-91887890D01*
G37*
%TD.AperFunction*%
%TA.AperFunction,EtchedComponent*%
G36*
X139088477Y-92758890D02*
G01*
X139195439Y-92777612D01*
X139290708Y-92794297D01*
X139375018Y-92809132D01*
X139449108Y-92822300D01*
X139513712Y-92833988D01*
X139569568Y-92844380D01*
X139617411Y-92853662D01*
X139657979Y-92862020D01*
X139692007Y-92869638D01*
X139720232Y-92876702D01*
X139743391Y-92883396D01*
X139762218Y-92889907D01*
X139777452Y-92896420D01*
X139789828Y-92903119D01*
X139800082Y-92910191D01*
X139808952Y-92917819D01*
X139817173Y-92926191D01*
X139825482Y-92935490D01*
X139834614Y-92945902D01*
X139835433Y-92946822D01*
X139874860Y-93000063D01*
X139907277Y-93062982D01*
X139932246Y-93134476D01*
X139949327Y-93213441D01*
X139953549Y-93244237D01*
X139956998Y-93285286D01*
X139958739Y-93332397D01*
X139958877Y-93382803D01*
X139957515Y-93433739D01*
X139954757Y-93482439D01*
X139950708Y-93526137D01*
X139945469Y-93562066D01*
X139940874Y-93582078D01*
X139919394Y-93641620D01*
X139892589Y-93692134D01*
X139861094Y-93732842D01*
X139825545Y-93762965D01*
X139786577Y-93781727D01*
X139775272Y-93784807D01*
X139760097Y-93787338D01*
X139734948Y-93790478D01*
X139702447Y-93793945D01*
X139665215Y-93797458D01*
X139630972Y-93800335D01*
X139514169Y-93809569D01*
X139233209Y-93782499D01*
X139175073Y-93776929D01*
X139120926Y-93771800D01*
X139072037Y-93767228D01*
X139029675Y-93763330D01*
X138995108Y-93760221D01*
X138969603Y-93758017D01*
X138954429Y-93756834D01*
X138950585Y-93756689D01*
X138950408Y-93763042D01*
X138950373Y-93781128D01*
X138950472Y-93810052D01*
X138950698Y-93848920D01*
X138951043Y-93896839D01*
X138951500Y-93952914D01*
X138952062Y-94016251D01*
X138952722Y-94085957D01*
X138953471Y-94161137D01*
X138954304Y-94240897D01*
X138955213Y-94324343D01*
X138955226Y-94325569D01*
X138956176Y-94412230D01*
X138957084Y-94497477D01*
X138957940Y-94580161D01*
X138958734Y-94659134D01*
X138959454Y-94733249D01*
X138960089Y-94801357D01*
X138960630Y-94862311D01*
X138961065Y-94914963D01*
X138961383Y-94958165D01*
X138961574Y-94990768D01*
X138961627Y-95007875D01*
X138961720Y-95122561D01*
X138915946Y-95126026D01*
X138898413Y-95126897D01*
X138869991Y-95127757D01*
X138832418Y-95128591D01*
X138787433Y-95129384D01*
X138736774Y-95130118D01*
X138682179Y-95130780D01*
X138625386Y-95131352D01*
X138568134Y-95131820D01*
X138512162Y-95132167D01*
X138459207Y-95132379D01*
X138411007Y-95132438D01*
X138369302Y-95132330D01*
X138335830Y-95132039D01*
X138312328Y-95131550D01*
X138310570Y-95131488D01*
X138256064Y-95129482D01*
X138252286Y-94862964D01*
X138251830Y-94825063D01*
X138251367Y-94775501D01*
X138250900Y-94715245D01*
X138250435Y-94645261D01*
X138249974Y-94566515D01*
X138249524Y-94479974D01*
X138249087Y-94386605D01*
X138248668Y-94287373D01*
X138248272Y-94183245D01*
X138247903Y-94075189D01*
X138247565Y-93964169D01*
X138247263Y-93851153D01*
X138247000Y-93737107D01*
X138246811Y-93639920D01*
X138246032Y-93200584D01*
X138943743Y-93200584D01*
X138943794Y-93239786D01*
X138944102Y-93279653D01*
X138944654Y-93318193D01*
X138945437Y-93353413D01*
X138946440Y-93383321D01*
X138947650Y-93405922D01*
X138949054Y-93419225D01*
X138949890Y-93421842D01*
X138956943Y-93423591D01*
X138974631Y-93426486D01*
X139001036Y-93430295D01*
X139034242Y-93434783D01*
X139072331Y-93439715D01*
X139113386Y-93444858D01*
X139155491Y-93449978D01*
X139196728Y-93454840D01*
X139235181Y-93459211D01*
X139268931Y-93462856D01*
X139296063Y-93465540D01*
X139314659Y-93467031D01*
X139321601Y-93467238D01*
X139335031Y-93465476D01*
X139344418Y-93459655D01*
X139353180Y-93446839D01*
X139359483Y-93434725D01*
X139366984Y-93418118D01*
X139371643Y-93402279D01*
X139374079Y-93383420D01*
X139374907Y-93357753D01*
X139374905Y-93340019D01*
X139373991Y-93305631D01*
X139371287Y-93279516D01*
X139366156Y-93257376D01*
X139360169Y-93240375D01*
X139341581Y-93202125D01*
X139319067Y-93170217D01*
X139294592Y-93147215D01*
X139283719Y-93140582D01*
X139273204Y-93137403D01*
X139252332Y-93132764D01*
X139223239Y-93127024D01*
X139188065Y-93120540D01*
X139148946Y-93113671D01*
X139108020Y-93106775D01*
X139067426Y-93100209D01*
X139029302Y-93094332D01*
X138995785Y-93089502D01*
X138969013Y-93086078D01*
X138951125Y-93084416D01*
X138947775Y-93084315D01*
X138946356Y-93090294D01*
X138945255Y-93106904D01*
X138944461Y-93132150D01*
X138943961Y-93164042D01*
X138943743Y-93200584D01*
X138246032Y-93200584D01*
X138245116Y-92683395D01*
X138349774Y-92665616D01*
X138454433Y-92647836D01*
X139088477Y-92758890D01*
G37*
%TD.AperFunction*%
%TA.AperFunction,EtchedComponent*%
G36*
X137131206Y-92667861D02*
G01*
X137166732Y-92673730D01*
X137197872Y-92679384D01*
X137222492Y-92684395D01*
X137238461Y-92688334D01*
X137243575Y-92690428D01*
X137244000Y-92697156D01*
X137244372Y-92715761D01*
X137244692Y-92745502D01*
X137244961Y-92785633D01*
X137245183Y-92835412D01*
X137245357Y-92894094D01*
X137245487Y-92960935D01*
X137245573Y-93035192D01*
X137245617Y-93116121D01*
X137245621Y-93202978D01*
X137245587Y-93295019D01*
X137245516Y-93391501D01*
X137245410Y-93491680D01*
X137245271Y-93594811D01*
X137245100Y-93700151D01*
X137244899Y-93806956D01*
X137244669Y-93914483D01*
X137244413Y-94021988D01*
X137244132Y-94128726D01*
X137243828Y-94233954D01*
X137243502Y-94336929D01*
X137243155Y-94436906D01*
X137242791Y-94533141D01*
X137242410Y-94624892D01*
X137242014Y-94711413D01*
X137241605Y-94791961D01*
X137241184Y-94865793D01*
X137240753Y-94932164D01*
X137240314Y-94990331D01*
X137239869Y-95039550D01*
X137239418Y-95079077D01*
X137238965Y-95108168D01*
X137238509Y-95126080D01*
X137238078Y-95132063D01*
X137230458Y-95133518D01*
X137211645Y-95134788D01*
X137183072Y-95135856D01*
X137146173Y-95136710D01*
X137102379Y-95137334D01*
X137053126Y-95137715D01*
X136999845Y-95137838D01*
X136943969Y-95137689D01*
X136886933Y-95137254D01*
X136830169Y-95136518D01*
X136815064Y-95136266D01*
X136635123Y-95133109D01*
X136636678Y-94678523D01*
X136637020Y-94590647D01*
X136637465Y-94496350D01*
X136637995Y-94398032D01*
X136638595Y-94298088D01*
X136639250Y-94198918D01*
X136639943Y-94102919D01*
X136640658Y-94012490D01*
X136641381Y-93930027D01*
X136642055Y-93861681D01*
X136645878Y-93499425D01*
X136581773Y-93552310D01*
X136555372Y-93573892D01*
X136530237Y-93594090D01*
X136509129Y-93610706D01*
X136494813Y-93621540D01*
X136494317Y-93621896D01*
X136470967Y-93638598D01*
X136360477Y-93627946D01*
X136249988Y-93617295D01*
X136184888Y-93577430D01*
X136159649Y-93562252D01*
X136138592Y-93550118D01*
X136123867Y-93542227D01*
X136117623Y-93539782D01*
X136117584Y-93539811D01*
X136117238Y-93546284D01*
X136116767Y-93564623D01*
X136116183Y-93594068D01*
X136115496Y-93633859D01*
X136114716Y-93683236D01*
X136113855Y-93741439D01*
X136112924Y-93807707D01*
X136111932Y-93881279D01*
X136110891Y-93961397D01*
X136109811Y-94047300D01*
X136108703Y-94138227D01*
X136107578Y-94233418D01*
X136106488Y-94328438D01*
X136105335Y-94427133D01*
X136104153Y-94522371D01*
X136102953Y-94613385D01*
X136101750Y-94699407D01*
X136100555Y-94779670D01*
X136099382Y-94853408D01*
X136098244Y-94919853D01*
X136097155Y-94978238D01*
X136096127Y-95027796D01*
X136095174Y-95067760D01*
X136094308Y-95097363D01*
X136093543Y-95115837D01*
X136092920Y-95122386D01*
X136088413Y-95124361D01*
X136077003Y-95125996D01*
X136057864Y-95127314D01*
X136030167Y-95128337D01*
X135993085Y-95129089D01*
X135945792Y-95129594D01*
X135887459Y-95129873D01*
X135823441Y-95129952D01*
X135558638Y-95129952D01*
X135558775Y-95005257D01*
X135558899Y-94977599D01*
X135559214Y-94939589D01*
X135559706Y-94892027D01*
X135560363Y-94835713D01*
X135561172Y-94771448D01*
X135562119Y-94700033D01*
X135563192Y-94622268D01*
X135564378Y-94538953D01*
X135565663Y-94450890D01*
X135567035Y-94358879D01*
X135568481Y-94263720D01*
X135569988Y-94166215D01*
X135571542Y-94067163D01*
X135573131Y-93967365D01*
X135574742Y-93867622D01*
X135576362Y-93768734D01*
X135577977Y-93671503D01*
X135579575Y-93576728D01*
X135581143Y-93485210D01*
X135582668Y-93397750D01*
X135584136Y-93315148D01*
X135585535Y-93238205D01*
X135586852Y-93167721D01*
X135588074Y-93104498D01*
X135589188Y-93049335D01*
X135590180Y-93003033D01*
X135591039Y-92966393D01*
X135591750Y-92940215D01*
X135592301Y-92925300D01*
X135592585Y-92921989D01*
X135599447Y-92919955D01*
X135616986Y-92915979D01*
X135643465Y-92910420D01*
X135677144Y-92903637D01*
X135716285Y-92895989D01*
X135746134Y-92890288D01*
X135896421Y-92861848D01*
X136006910Y-92875792D01*
X136117400Y-92889736D01*
X136220322Y-92946404D01*
X136253073Y-92964183D01*
X136282107Y-92979460D01*
X136305597Y-92991315D01*
X136321718Y-92998827D01*
X136328634Y-93001076D01*
X136334531Y-92996583D01*
X136348761Y-92984762D01*
X136370163Y-92966607D01*
X136397574Y-92943112D01*
X136429830Y-92915274D01*
X136465771Y-92884086D01*
X136489588Y-92863335D01*
X136527519Y-92830372D01*
X136562763Y-92799999D01*
X136594107Y-92773242D01*
X136620339Y-92751127D01*
X136640246Y-92734680D01*
X136652614Y-92724926D01*
X136655922Y-92722708D01*
X136664724Y-92720320D01*
X136684267Y-92715987D01*
X136712873Y-92710050D01*
X136748863Y-92702849D01*
X136790560Y-92694724D01*
X136836284Y-92686015D01*
X136845107Y-92684357D01*
X137023523Y-92650888D01*
X137131206Y-92667861D01*
G37*
%TD.AperFunction*%
%TD*%
D11*
%TO.P,R5,1*%
%TO.N,/Microcontroller/RXL_A*%
X141510000Y-116800000D03*
%TO.P,R5,2*%
%TO.N,VBUS*%
X140490000Y-116800000D03*
%TD*%
D12*
%TO.P,J1,1,Pin_1*%
%TO.N,GND*%
X148480000Y-77695000D03*
D13*
%TO.P,J1,2,Pin_2*%
%TO.N,+9V*%
X143400000Y-77695000D03*
%TD*%
D14*
%TO.P,J7,1,Pin_1*%
%TO.N,BTN2*%
X183400000Y-103600000D03*
D15*
%TO.P,J7,2,Pin_2*%
%TO.N,GND*%
X183400000Y-105600000D03*
%TO.P,J7,3,Pin_3*%
%TO.N,BTN1*%
X183400000Y-107600000D03*
%TO.P,J7,4,Pin_4*%
%TO.N,GND*%
X183400000Y-109600000D03*
%TD*%
D16*
%TO.P,H3,1,1*%
%TO.N,GND*%
X182600000Y-76000000D03*
%TD*%
D17*
%TO.P,C15,1*%
%TO.N,GND*%
X141521573Y-89941573D03*
%TO.P,C15,2*%
%TO.N,+5V*%
X141521573Y-90901573D03*
%TD*%
D18*
%TO.P,Q4,1,D*%
%TO.N,Net-(Q4-D)*%
X168250000Y-115537500D03*
%TO.P,Q4,2,G*%
%TO.N,IDE_A3*%
X170150000Y-115537500D03*
%TO.P,Q4,3,S*%
%TO.N,GND*%
X169200000Y-113662500D03*
%TD*%
D19*
%TO.P,R16,1*%
%TO.N,AVR_SSR1*%
X171952500Y-89600000D03*
%TO.P,R16,2*%
%TO.N,GND*%
X172972500Y-89600000D03*
%TD*%
D20*
%TO.P,C1,1*%
%TO.N,GND*%
X155120000Y-103000000D03*
%TO.P,C1,2*%
%TO.N,VBUS*%
X156080000Y-103000000D03*
%TD*%
D21*
%TO.P,J2,A1,GND*%
%TO.N,GND*%
X140766573Y-104841573D03*
%TO.P,J2,A4,VBUS*%
%TO.N,/Power Supply and USB/VBUS_IN*%
X140766573Y-105641573D03*
D22*
%TO.P,J2,A5,CC1*%
%TO.N,/Power Supply and USB/CC1*%
X140766573Y-106841573D03*
%TO.P,J2,A6,D+*%
%TO.N,/Power Supply and USB/D+_IN*%
X140766573Y-107841573D03*
%TO.P,J2,A7,D-*%
%TO.N,/Power Supply and USB/D-_IN*%
X140766573Y-108341573D03*
%TO.P,J2,A8*%
%TO.N,N/C*%
X140766573Y-109341573D03*
D21*
%TO.P,J2,A9,VBUS*%
%TO.N,/Power Supply and USB/VBUS_IN*%
X140766573Y-110541573D03*
%TO.P,J2,A12,GND*%
%TO.N,GND*%
X140766573Y-111341573D03*
%TO.P,J2,B1,GND*%
X140766573Y-111341573D03*
%TO.P,J2,B4,VBUS*%
%TO.N,/Power Supply and USB/VBUS_IN*%
X140766573Y-110541573D03*
D22*
%TO.P,J2,B5,CC2*%
%TO.N,/Power Supply and USB/CC2*%
X140766573Y-109841573D03*
%TO.P,J2,B6,D+*%
%TO.N,/Power Supply and USB/D+_IN*%
X140766573Y-108841573D03*
%TO.P,J2,B7,D-*%
%TO.N,/Power Supply and USB/D-_IN*%
X140766573Y-107341573D03*
%TO.P,J2,B8*%
%TO.N,N/C*%
X140766573Y-106341573D03*
D21*
%TO.P,J2,B9,VBUS*%
%TO.N,/Power Supply and USB/VBUS_IN*%
X140766573Y-105641573D03*
%TO.P,J2,B12,GND*%
%TO.N,GND*%
X140766573Y-104841573D03*
D23*
%TO.P,J2,S1,SHIELD*%
%TO.N,Net-(J2-SHIELD)*%
X139851573Y-103771573D03*
D24*
X135671573Y-103771573D03*
D23*
X139851573Y-112411573D03*
D24*
X135671573Y-112411573D03*
%TD*%
D25*
%TO.P,U1,1,IN*%
%TO.N,+9V*%
X143721573Y-86941573D03*
%TO.P,U1,2,GND*%
%TO.N,GND*%
X143721573Y-89221573D03*
D26*
X148346573Y-87696573D03*
X148346573Y-90746573D03*
D27*
X150021573Y-89221573D03*
D26*
X151696573Y-87696573D03*
X151696573Y-90746573D03*
D25*
%TO.P,U1,3,OUT*%
%TO.N,+5V*%
X143721573Y-91501573D03*
%TD*%
D14*
%TO.P,J5,1,Pin_1*%
%TO.N,HI_HEAT_LED*%
X183400000Y-88200000D03*
D15*
%TO.P,J5,2,Pin_2*%
%TO.N,HI_HEAT_K*%
X183400000Y-90200000D03*
%TO.P,J5,3,Pin_3*%
%TO.N,+9V*%
X183400000Y-92200000D03*
%TO.P,J5,4,Pin_4*%
%TO.N,/Connectors/SSR1_LED_K*%
X183400000Y-94200000D03*
%TD*%
D12*
%TO.P,J8,1,Pin_1*%
%TO.N,+9V*%
X176545000Y-77695000D03*
D13*
%TO.P,J8,2,Pin_2*%
%TO.N,Net-(J8-Pin_2)*%
X171465000Y-77695000D03*
%TD*%
D11*
%TO.P,R13,1*%
%TO.N,HI_HEAT_K*%
X179000000Y-90200000D03*
%TO.P,R13,2*%
%TO.N,GND*%
X177980000Y-90200000D03*
%TD*%
D28*
%TO.P,C13,1*%
%TO.N,Net-(C13-Pad1)*%
X139600000Y-99621573D03*
%TO.P,C13,2*%
%TO.N,GND*%
X136000000Y-99621573D03*
%TD*%
D29*
%TO.P,R1,1*%
%TO.N,GND*%
X142721573Y-111841573D03*
%TO.P,R1,2*%
%TO.N,/Power Supply and USB/CC2*%
X142721573Y-110821573D03*
%TD*%
D30*
%TO.P,BZ1,1,+*%
%TO.N,/Microcontroller/BUZZER*%
X161000000Y-92600000D03*
D31*
%TO.P,BZ1,2,-*%
%TO.N,Net-(BZ1--)*%
X161000000Y-85000000D03*
%TD*%
D32*
%TO.P,U3,1,TXD*%
%TO.N,/Microcontroller/AVR_RX*%
X158250000Y-104800000D03*
%TO.P,U3,2,DTR*%
%TO.N,AVR_RST*%
X157600000Y-104800000D03*
%TO.P,U3,3,RTS*%
%TO.N,unconnected-(U3-RTS-Pad3)*%
X156950000Y-104800000D03*
%TO.P,U3,4,VCCIO*%
%TO.N,VBUS*%
X156300000Y-104800000D03*
%TO.P,U3,5,RXD*%
%TO.N,/Microcontroller/AVR_TX*%
X155650000Y-104800000D03*
%TO.P,U3,6,RI*%
%TO.N,unconnected-(U3-RI-Pad6)*%
X155000000Y-104800000D03*
%TO.P,U3,7,GND*%
%TO.N,GND*%
X154350000Y-104800000D03*
%TO.P,U3,8*%
%TO.N,N/C*%
X153700000Y-104800000D03*
%TO.P,U3,9,DCR*%
%TO.N,unconnected-(U3-DCR-Pad9)*%
X153050000Y-104800000D03*
%TO.P,U3,10,DCD*%
%TO.N,unconnected-(U3-DCD-Pad10)*%
X152400000Y-104800000D03*
%TO.P,U3,11,CTS*%
%TO.N,GND*%
X151750000Y-104800000D03*
%TO.P,U3,12,CBUS4*%
%TO.N,unconnected-(U3-CBUS4-Pad12)*%
X151100000Y-104800000D03*
%TO.P,U3,13,CBUS2*%
%TO.N,unconnected-(U3-CBUS2-Pad13)*%
X150450000Y-104800000D03*
%TO.P,U3,14,CBUS3*%
%TO.N,unconnected-(U3-CBUS3-Pad14)*%
X149800000Y-104800000D03*
%TO.P,U3,15,USBD+*%
%TO.N,USB_DP*%
X149800000Y-112000000D03*
%TO.P,U3,16,USBD-*%
%TO.N,USB_DM*%
X150450000Y-112000000D03*
%TO.P,U3,17,3V3OUT*%
%TO.N,+3V3*%
X151100000Y-112000000D03*
%TO.P,U3,18,GND*%
%TO.N,GND*%
X151750000Y-112000000D03*
%TO.P,U3,19,~{RESET}*%
%TO.N,unconnected-(U3-~{RESET}-Pad19)*%
X152400000Y-112000000D03*
%TO.P,U3,20,VCC*%
%TO.N,VBUS*%
X153050000Y-112000000D03*
%TO.P,U3,21,GND*%
%TO.N,GND*%
X153700000Y-112000000D03*
%TO.P,U3,22,CBUS1*%
%TO.N,/Microcontroller/RXL_K*%
X154350000Y-112000000D03*
%TO.P,U3,23,CBUS0*%
%TO.N,/Microcontroller/TXL_K*%
X155000000Y-112000000D03*
%TO.P,U3,24*%
%TO.N,N/C*%
X155650000Y-112000000D03*
%TO.P,U3,25,AGND*%
%TO.N,GND*%
X156300000Y-112000000D03*
%TO.P,U3,26,TEST*%
X156950000Y-112000000D03*
%TO.P,U3,27,OSCI*%
%TO.N,unconnected-(U3-OSCI-Pad27)*%
X157600000Y-112000000D03*
%TO.P,U3,28,OSCO*%
%TO.N,unconnected-(U3-OSCO-Pad28)*%
X158250000Y-112000000D03*
%TD*%
D33*
%TO.P,R21,1*%
%TO.N,Net-(U5-PD6)*%
X161050000Y-115427500D03*
%TO.P,R21,2*%
%TO.N,LCD_DIN*%
X161050000Y-116447500D03*
%TD*%
D17*
%TO.P,C4,1*%
%TO.N,GND*%
X144121573Y-103341573D03*
%TO.P,C4,2*%
%TO.N,/Power Supply and USB/VBUS_IN*%
X144121573Y-104301573D03*
%TD*%
D34*
%TO.P,D8,1,K*%
%TO.N,Net-(D8-K)*%
X152509073Y-94621573D03*
%TO.P,D8,2,A*%
%TO.N,VCC*%
X150934073Y-94621573D03*
%TD*%
D33*
%TO.P,R19,1*%
%TO.N,Net-(U5-PD4)*%
X154800000Y-115427500D03*
%TO.P,R19,2*%
%TO.N,LCD_CS*%
X154800000Y-116447500D03*
%TD*%
D34*
%TO.P,D2,1,K*%
%TO.N,/Microcontroller/TXL_K*%
X144587500Y-120200000D03*
%TO.P,D2,2,A*%
%TO.N,/Microcontroller/TXL_A*%
X143012500Y-120200000D03*
%TD*%
D35*
%TO.P,F2,1*%
%TO.N,Net-(C13-Pad1)*%
X142125000Y-100221573D03*
%TO.P,F2,2*%
%TO.N,VBUS*%
X143875000Y-100221573D03*
%TD*%
D36*
%TO.P,SW1,*%
%TO.N,*%
X177950000Y-119400000D03*
X170940000Y-119400000D03*
D37*
%TO.P,SW1,1,1*%
%TO.N,GND*%
X176700000Y-121890000D03*
%TO.P,SW1,2,2*%
%TO.N,AVR_RST*%
X172200000Y-121890000D03*
%TD*%
D38*
%TO.P,C9,1*%
%TO.N,GND*%
X167339411Y-106339411D03*
%TO.P,C9,2*%
%TO.N,/Microcontroller/XTAL2*%
X166660589Y-105660589D03*
%TD*%
D39*
%TO.P,J6,1,Pin_1*%
%TO.N,TC_DAT*%
X177400000Y-111280000D03*
D40*
%TO.P,J6,2,Pin_2*%
%TO.N,VCC*%
X174860000Y-111280000D03*
%TO.P,J6,3,Pin_3*%
%TO.N,ICSP_13*%
X177400000Y-108740000D03*
%TO.P,J6,4,Pin_4*%
%TO.N,TC_CS*%
X174860000Y-108740000D03*
%TO.P,J6,5,Pin_5*%
%TO.N,AVR_RST*%
X177400000Y-106200000D03*
%TO.P,J6,6,Pin_6*%
%TO.N,GND*%
X174860000Y-106200000D03*
%TD*%
D41*
%TO.P,J3,1,Pin_1*%
%TO.N,GND*%
X155000000Y-75896573D03*
D42*
%TO.P,J3,2,Pin_2*%
%TO.N,VCC*%
X157500000Y-75896573D03*
%TO.P,J3,3,Pin_3*%
%TO.N,TC_CLK*%
X160000000Y-75896573D03*
%TO.P,J3,4,Pin_4*%
%TO.N,TC_CS*%
X162500000Y-75896573D03*
%TO.P,J3,5,Pin_5*%
%TO.N,TC_DAT*%
X165000000Y-75896573D03*
%TD*%
D43*
%TO.P,C7,1*%
%TO.N,GND*%
X173060589Y-94860589D03*
%TO.P,C7,2*%
%TO.N,VCC*%
X173739411Y-95539411D03*
%TD*%
D41*
%TO.P,J4,1,Pin_1*%
%TO.N,VCC*%
X148600000Y-120200000D03*
D42*
%TO.P,J4,2,Pin_2*%
%TO.N,GND*%
X151100000Y-120200000D03*
%TO.P,J4,3,Pin_3*%
%TO.N,LCD_CS*%
X153600000Y-120200000D03*
%TO.P,J4,4,Pin_4*%
%TO.N,LCD_RST*%
X156100000Y-120200000D03*
%TO.P,J4,5,Pin_5*%
%TO.N,LCD_DC*%
X158600000Y-120200000D03*
%TO.P,J4,6,Pin_6*%
%TO.N,LCD_DIN*%
X161100000Y-120200000D03*
%TO.P,J4,7,Pin_7*%
%TO.N,LCD_CLK*%
X163600000Y-120200000D03*
%TO.P,J4,8,Pin_8*%
%TO.N,/Connectors/LCD_BL*%
X166100000Y-120200000D03*
%TD*%
D44*
%TO.P,U5,1,PD3*%
%TO.N,Net-(U5-PD3)*%
X163614897Y-100025305D03*
%TO.P,U5,2,PD4*%
%TO.N,Net-(U5-PD4)*%
X164180583Y-100590990D03*
%TO.P,U5,3,PE0*%
%TO.N,unconnected-(U5-PE0-Pad3)*%
X164746268Y-101156676D03*
%TO.P,U5,4,VCC*%
%TO.N,VCC*%
X165311953Y-101722361D03*
%TO.P,U5,5,GND*%
%TO.N,GND*%
X165877639Y-102288047D03*
%TO.P,U5,6,PE1*%
%TO.N,unconnected-(U5-PE1-Pad6)*%
X166443324Y-102853732D03*
%TO.P,U5,7,XTAL1/PB6*%
%TO.N,/Microcontroller/XTAL1*%
X167009010Y-103419417D03*
%TO.P,U5,8,XTAL2/PB7*%
%TO.N,/Microcontroller/XTAL2*%
X167574695Y-103985103D03*
D45*
%TO.P,U5,9,PD5*%
%TO.N,Net-(U5-PD5)*%
X169625305Y-103985103D03*
%TO.P,U5,10,PD6*%
%TO.N,Net-(U5-PD6)*%
X170190990Y-103419417D03*
%TO.P,U5,11,PD7*%
%TO.N,Net-(U5-PD7)*%
X170756676Y-102853732D03*
%TO.P,U5,12,PB0*%
%TO.N,TC_CLK*%
X171322361Y-102288047D03*
%TO.P,U5,13,PB1*%
%TO.N,AVR_SSR1*%
X171888047Y-101722361D03*
%TO.P,U5,14,PB2*%
%TO.N,unconnected-(U5-PB2-Pad14)*%
X172453732Y-101156676D03*
%TO.P,U5,15,PB3*%
%TO.N,TC_CS*%
X173019417Y-100590990D03*
%TO.P,U5,16,PB4*%
%TO.N,TC_DAT*%
X173585103Y-100025305D03*
D44*
%TO.P,U5,17,PB5*%
%TO.N,ICSP_13*%
X173585103Y-97974695D03*
%TO.P,U5,18,AVCC*%
%TO.N,VCC*%
X173019417Y-97409010D03*
%TO.P,U5,19,PE2*%
%TO.N,unconnected-(U5-PE2-Pad19)*%
X172453732Y-96843324D03*
%TO.P,U5,20,AREF*%
%TO.N,unconnected-(U5-AREF-Pad20)*%
X171888047Y-96277639D03*
%TO.P,U5,21,GND*%
%TO.N,GND*%
X171322361Y-95711953D03*
%TO.P,U5,22,PE3*%
%TO.N,unconnected-(U5-PE3-Pad22)*%
X170756676Y-95146268D03*
%TO.P,U5,23,PC0*%
%TO.N,BTN1*%
X170190990Y-94580583D03*
%TO.P,U5,24,PC1*%
%TO.N,BTN2*%
X169625305Y-94014897D03*
D45*
%TO.P,U5,25,PC2*%
%TO.N,HI_HEAT_LED*%
X167574695Y-94014897D03*
%TO.P,U5,26,PC3*%
%TO.N,IDE_A3*%
X167009010Y-94580583D03*
%TO.P,U5,27,PC4*%
%TO.N,unconnected-(U5-PC4-Pad27)*%
X166443324Y-95146268D03*
%TO.P,U5,28,PC5*%
%TO.N,unconnected-(U5-PC5-Pad28)*%
X165877639Y-95711953D03*
%TO.P,U5,29,~{RESET}/PC6*%
%TO.N,AVR_RST*%
X165311953Y-96277639D03*
%TO.P,U5,30,PD0*%
%TO.N,/Microcontroller/AVR_RX*%
X164746268Y-96843324D03*
%TO.P,U5,31,PD1*%
%TO.N,/Microcontroller/AVR_TX*%
X164180583Y-97409010D03*
%TO.P,U5,32,PD2*%
%TO.N,/Microcontroller/BUZZER*%
X163614897Y-97974695D03*
%TD*%
D46*
%TO.P,C16,1*%
%TO.N,GND*%
X141521573Y-88501573D03*
%TO.P,C16,2*%
%TO.N,+9V*%
X141521573Y-87541573D03*
%TD*%
D29*
%TO.P,R7,1*%
%TO.N,/Connectors/LCD_BL*%
X166650000Y-116447500D03*
%TO.P,R7,2*%
%TO.N,Net-(Q4-D)*%
X166650000Y-115427500D03*
%TD*%
%TO.P,R14,1*%
%TO.N,AVR_RST*%
X174000000Y-114710000D03*
%TO.P,R14,2*%
%TO.N,VCC*%
X174000000Y-113690000D03*
%TD*%
D33*
%TO.P,R20,1*%
%TO.N,Net-(U5-PD5)*%
X158650000Y-115427500D03*
%TO.P,R20,2*%
%TO.N,LCD_DC*%
X158650000Y-116447500D03*
%TD*%
D47*
%TO.P,U2,1,I/O1*%
%TO.N,/Power Supply and USB/D-_IN*%
X144984073Y-108471573D03*
%TO.P,U2,2,GND*%
%TO.N,GND*%
X144984073Y-109421573D03*
%TO.P,U2,3,I/O2*%
%TO.N,/Power Supply and USB/D+_IN*%
X144984073Y-110371573D03*
%TO.P,U2,4,I/O2*%
%TO.N,USB_DP*%
X147259073Y-110371573D03*
%TO.P,U2,5,VBUS*%
%TO.N,/Power Supply and USB/VBUS_IN*%
X147259073Y-109421573D03*
%TO.P,U2,6,I/O1*%
%TO.N,USB_DM*%
X147259073Y-108471573D03*
%TD*%
D33*
%TO.P,R18,1*%
%TO.N,Net-(U5-PD3)*%
X156250000Y-115427500D03*
%TO.P,R18,2*%
%TO.N,LCD_RST*%
X156250000Y-116447500D03*
%TD*%
D34*
%TO.P,D3,1,K*%
%TO.N,/Microcontroller/RXL_K*%
X144587500Y-116400000D03*
%TO.P,D3,2,A*%
%TO.N,/Microcontroller/RXL_A*%
X143012500Y-116400000D03*
%TD*%
D16*
%TO.P,H4,1,1*%
%TO.N,GND*%
X182600000Y-121200000D03*
%TD*%
D29*
%TO.P,R4,1*%
%TO.N,/Microcontroller/TXL_A*%
X141400000Y-119510000D03*
%TO.P,R4,2*%
%TO.N,VBUS*%
X141400000Y-118490000D03*
%TD*%
D33*
%TO.P,R9,1*%
%TO.N,Net-(D8-K)*%
X154521573Y-94711573D03*
%TO.P,R9,2*%
%TO.N,GND*%
X154521573Y-95731573D03*
%TD*%
D48*
%TO.P,FB2,1*%
%TO.N,/Power Supply and USB/VBUS_IN*%
X142921573Y-104306573D03*
%TO.P,FB2,2*%
%TO.N,Net-(C13-Pad1)*%
X142921573Y-103336573D03*
%TD*%
D49*
%TO.P,Q3,1,D*%
%TO.N,Net-(J8-Pin_2)*%
X171462500Y-86300000D03*
%TO.P,Q3,2,G*%
%TO.N,AVR_SSR1*%
X171462500Y-88200000D03*
%TO.P,Q3,3,S*%
%TO.N,GND*%
X173337500Y-87250000D03*
%TD*%
D50*
%TO.P,Y2,1,1*%
%TO.N,/Microcontroller/XTAL2*%
X165778858Y-106976777D03*
%TO.P,Y2,2,2*%
%TO.N,/Microcontroller/XTAL1*%
X164223223Y-105421142D03*
%TO.P,Y2,3*%
%TO.N,N/C*%
X163021142Y-106623223D03*
%TO.P,Y2,4*%
X164576777Y-108178858D03*
%TD*%
D51*
%TO.P,D6,1,K*%
%TO.N,VCC*%
X146000000Y-96950000D03*
%TO.P,D6,2,A*%
%TO.N,VBUS*%
X146000000Y-100250000D03*
%TD*%
D52*
%TO.P,C2,1*%
%TO.N,GND*%
X154280000Y-114000000D03*
%TO.P,C2,2*%
%TO.N,VBUS*%
X153320000Y-114000000D03*
%TD*%
D53*
%TO.P,C12,1*%
%TO.N,+3V3*%
X150225000Y-114200000D03*
%TO.P,C12,2*%
%TO.N,GND*%
X151775000Y-114200000D03*
%TD*%
D52*
%TO.P,C5,1*%
%TO.N,GND*%
X143680000Y-102021573D03*
%TO.P,C5,2*%
%TO.N,Net-(C13-Pad1)*%
X142720000Y-102021573D03*
%TD*%
D16*
%TO.P,H1,1,1*%
%TO.N,GND*%
X137400000Y-76000000D03*
%TD*%
D11*
%TO.P,R17,1*%
%TO.N,/Connectors/SSR1_LED_K*%
X179000000Y-94200000D03*
%TO.P,R17,2*%
%TO.N,Net-(J8-Pin_2)*%
X177980000Y-94200000D03*
%TD*%
D43*
%TO.P,C8,1*%
%TO.N,GND*%
X164860589Y-103860589D03*
%TO.P,C8,2*%
%TO.N,/Microcontroller/XTAL1*%
X165539411Y-104539411D03*
%TD*%
D33*
%TO.P,R2,1*%
%TO.N,GND*%
X142921573Y-105711573D03*
%TO.P,R2,2*%
%TO.N,/Power Supply and USB/CC1*%
X142921573Y-106731573D03*
%TD*%
D16*
%TO.P,H2,1,1*%
%TO.N,GND*%
X137400000Y-121200000D03*
%TD*%
D33*
%TO.P,R6,1*%
%TO.N,IDE_A3*%
X171600000Y-114990000D03*
%TO.P,R6,2*%
%TO.N,GND*%
X171600000Y-116010000D03*
%TD*%
D19*
%TO.P,R15,1*%
%TO.N,GND*%
X154290000Y-84000000D03*
%TO.P,R15,2*%
%TO.N,Net-(BZ1--)*%
X155310000Y-84000000D03*
%TD*%
%TO.P,R8,1*%
%TO.N,Net-(J2-SHIELD)*%
X140290000Y-114200000D03*
%TO.P,R8,2*%
%TO.N,GND*%
X141310000Y-114200000D03*
%TD*%
D38*
%TO.P,C6,1*%
%TO.N,GND*%
X164139411Y-103139411D03*
%TO.P,C6,2*%
%TO.N,VCC*%
X163460589Y-102460589D03*
%TD*%
D33*
%TO.P,R22,1*%
%TO.N,Net-(U5-PD7)*%
X163650000Y-115427500D03*
%TO.P,R22,2*%
%TO.N,LCD_CLK*%
X163650000Y-116447500D03*
%TD*%
D54*
%TO.P,D7,1,K*%
%TO.N,VCC*%
X146971573Y-94621573D03*
%TO.P,D7,2,A*%
%TO.N,+5V*%
X143671573Y-94621573D03*
%TD*%
D55*
%TO.N,GND*%
X154000000Y-103000000D03*
X155000000Y-93000000D03*
X156000000Y-93000000D03*
X154000000Y-93000000D03*
X157000000Y-92000000D03*
X157000000Y-93000000D03*
X155000000Y-92000000D03*
X156000000Y-92000000D03*
X154000000Y-92000000D03*
X155000000Y-91000000D03*
X155000000Y-90000000D03*
X156000000Y-90000000D03*
X157000000Y-91000000D03*
X154000000Y-90000000D03*
X157000000Y-89000000D03*
X157000000Y-90000000D03*
X155000000Y-89000000D03*
X154000000Y-91000000D03*
X156000000Y-89000000D03*
X156000000Y-91000000D03*
X154000000Y-89000000D03*
X157000000Y-88000000D03*
X156000000Y-88000000D03*
X155000000Y-88000000D03*
X154000000Y-88000000D03*
X157000000Y-87000000D03*
X156000000Y-87000000D03*
X155000000Y-87000000D03*
X154000000Y-87000000D03*
X157000000Y-86000000D03*
X156000000Y-86000000D03*
X155000000Y-86000000D03*
X154000000Y-86000000D03*
X154500000Y-83000000D03*
%TO.N,TC_CLK*%
X169500000Y-101000000D03*
%TO.N,TC_CS*%
X171000000Y-99000000D03*
%TO.N,TC_DAT*%
X171000000Y-98000000D03*
%TO.N,Net-(J8-Pin_2)*%
X174000000Y-86000000D03*
X175500000Y-91500000D03*
%TO.N,GND*%
X175000000Y-87500000D03*
%TO.N,AVR_RST*%
X166500000Y-97500000D03*
%TO.N,IDE_A3*%
X168000000Y-96500000D03*
X172150000Y-104750000D03*
%TO.N,GND*%
X172500000Y-116000000D03*
X168500000Y-113500000D03*
%TO.N,AVR_SSR1*%
X170500000Y-100500000D03*
X172000000Y-90500000D03*
%TO.N,GND*%
X173000000Y-90500000D03*
X177000000Y-90000000D03*
X155500000Y-96500000D03*
%TO.N,VCC*%
X171980655Y-98092982D03*
X166000000Y-100500000D03*
%TO.N,GND*%
X170500000Y-96500000D03*
X167000000Y-101500000D03*
X163500000Y-104000000D03*
X167500000Y-107500000D03*
%TO.N,Net-(U5-PD3)*%
X156573370Y-114573370D03*
X159000000Y-112500000D03*
%TO.N,/Microcontroller/BUZZER*%
X162000000Y-97500000D03*
%TO.N,/Microcontroller/AVR_TX*%
X155650000Y-106290380D03*
X157000000Y-106500000D03*
%TO.N,AVR_RST*%
X175000000Y-115000000D03*
%TO.N,ICSP_13*%
X179000000Y-102500000D03*
X179350000Y-105000000D03*
%TO.N,GND*%
X142600000Y-112600000D03*
X141600000Y-104200000D03*
X150440380Y-115240380D03*
X136000000Y-98200000D03*
X145800000Y-89200000D03*
X143600000Y-105800000D03*
X152000000Y-110600000D03*
X154247972Y-106056694D03*
X156400000Y-110600000D03*
X142200000Y-114200000D03*
X155200000Y-114000000D03*
X151800000Y-106200000D03*
X136000000Y-101000000D03*
X143800000Y-109200000D03*
X144800000Y-103400000D03*
%TO.N,VCC*%
X151000000Y-95800000D03*
X149000000Y-94621573D03*
X146000000Y-98200000D03*
%TO.N,/Microcontroller/TXL_K*%
X155200000Y-110400000D03*
X145800000Y-120000000D03*
%TO.N,/Microcontroller/RXL_K*%
X154200000Y-110400000D03*
X145800000Y-116400000D03*
%TD*%
D56*
%TO.N,GND*%
X154350000Y-104800000D02*
X154350000Y-103350000D01*
X154350000Y-103350000D02*
X154000000Y-103000000D01*
X155120000Y-103000000D02*
X154000000Y-103000000D01*
%TO.N,IDE_A3*%
X171600000Y-114990000D02*
X170697500Y-114990000D01*
X170697500Y-114990000D02*
X170150000Y-115537500D01*
%TO.N,GND*%
X154290000Y-83210000D02*
X154500000Y-83000000D01*
X154290000Y-84000000D02*
X154290000Y-83210000D01*
%TO.N,TC_CLK*%
X169500000Y-101000000D02*
X170034314Y-101000000D01*
X170034314Y-101000000D02*
X171322361Y-102288047D01*
%TO.N,TC_CS*%
X171000000Y-99000000D02*
X171500000Y-99500000D01*
X171500000Y-99500000D02*
X171928427Y-99500000D01*
X171928427Y-99500000D02*
X173019417Y-100590990D01*
%TO.N,TC_DAT*%
X171000000Y-98000000D02*
X171330655Y-98330655D01*
X171330655Y-98330655D02*
X171330655Y-98362221D01*
X171330655Y-98362221D02*
X171968434Y-99000000D01*
X171968434Y-99000000D02*
X172559798Y-99000000D01*
X172559798Y-99000000D02*
X173585103Y-100025305D01*
%TO.N,IDE_A3*%
X168000000Y-96500000D02*
X168000000Y-95571573D01*
X168000000Y-95571573D02*
X167009010Y-94580583D01*
%TO.N,Net-(J8-Pin_2)*%
X177980000Y-94200000D02*
X177980000Y-93980000D01*
X177980000Y-93980000D02*
X175500000Y-91500000D01*
X174000000Y-86000000D02*
X171762500Y-86000000D01*
X171762500Y-86000000D02*
X171462500Y-86300000D01*
D57*
%TO.N,GND*%
X174750000Y-87250000D02*
X175000000Y-87500000D01*
X173337500Y-87250000D02*
X174750000Y-87250000D01*
%TO.N,Net-(J8-Pin_2)*%
X171465000Y-77695000D02*
X171465000Y-86297500D01*
X171465000Y-86297500D02*
X171462500Y-86300000D01*
D56*
%TO.N,IDE_A3*%
X172150000Y-104750000D02*
X172150000Y-114440000D01*
X172150000Y-114440000D02*
X171600000Y-114990000D01*
%TO.N,AVR_RST*%
X166500000Y-97500000D02*
X166500000Y-97465686D01*
X166500000Y-97465686D02*
X165311953Y-96277639D01*
%TO.N,GND*%
X172490000Y-116010000D02*
X172500000Y-116000000D01*
X171600000Y-116010000D02*
X172490000Y-116010000D01*
X168662500Y-113662500D02*
X168500000Y-113500000D01*
X169200000Y-113662500D02*
X168662500Y-113662500D01*
%TO.N,AVR_SSR1*%
X170500000Y-100500000D02*
X170665686Y-100500000D01*
X171952500Y-89600000D02*
X171952500Y-90452500D01*
X171952500Y-90452500D02*
X172000000Y-90500000D01*
X170665686Y-100500000D02*
X171888047Y-101722361D01*
X171462500Y-88200000D02*
X171462500Y-89110000D01*
X171462500Y-89110000D02*
X171952500Y-89600000D01*
%TO.N,GND*%
X172972500Y-90472500D02*
X173000000Y-90500000D01*
X172972500Y-89600000D02*
X172972500Y-90472500D01*
X177200000Y-90200000D02*
X177000000Y-90000000D01*
X177980000Y-90200000D02*
X177200000Y-90200000D01*
%TO.N,HI_HEAT_LED*%
X183400000Y-88200000D02*
X177300000Y-88200000D01*
X177300000Y-88200000D02*
X173500000Y-92000000D01*
X169500000Y-92000000D02*
X167574695Y-93925305D01*
X173500000Y-92000000D02*
X169500000Y-92000000D01*
X167574695Y-93925305D02*
X167574695Y-94014897D01*
%TO.N,HI_HEAT_K*%
X183400000Y-90200000D02*
X179000000Y-90200000D01*
%TO.N,/Connectors/SSR1_LED_K*%
X183400000Y-94200000D02*
X179000000Y-94200000D01*
%TO.N,Net-(BZ1--)*%
X155310000Y-84000000D02*
X160000000Y-84000000D01*
X160000000Y-84000000D02*
X161000000Y-85000000D01*
%TO.N,GND*%
X154731573Y-95731573D02*
X155500000Y-96500000D01*
X154521573Y-95731573D02*
X154731573Y-95731573D01*
%TO.N,Net-(D8-K)*%
X152509073Y-94621573D02*
X154431573Y-94621573D01*
X154431573Y-94621573D02*
X154521573Y-94711573D01*
%TO.N,VBUS*%
X156080000Y-103000000D02*
X156080000Y-101580000D01*
X156080000Y-101580000D02*
X154750000Y-100250000D01*
X154750000Y-100250000D02*
X146000000Y-100250000D01*
%TO.N,BTN1*%
X183400000Y-107600000D02*
X181500000Y-105700000D01*
X181500000Y-105700000D02*
X181500000Y-101207106D01*
X181500000Y-101207106D02*
X173292894Y-93000000D01*
X173292894Y-93000000D02*
X171771573Y-93000000D01*
X171771573Y-93000000D02*
X170190990Y-94580583D01*
%TO.N,BTN2*%
X183400000Y-103600000D02*
X183400000Y-102400000D01*
X183400000Y-102400000D02*
X173500000Y-92500000D01*
X171140202Y-92500000D02*
X169625305Y-94014897D01*
X173500000Y-92500000D02*
X171140202Y-92500000D01*
%TO.N,Net-(U5-PD7)*%
X163650000Y-115427500D02*
X163650000Y-112850000D01*
X167000000Y-111500000D02*
X171500000Y-107000000D01*
X163650000Y-112850000D02*
X165000000Y-111500000D01*
X165000000Y-111500000D02*
X167000000Y-111500000D01*
X171500000Y-107000000D02*
X171500000Y-103597056D01*
X171500000Y-103597056D02*
X170756676Y-102853732D01*
%TO.N,Net-(U5-PD6)*%
X161050000Y-115427500D02*
X161050000Y-113450000D01*
X161050000Y-113450000D02*
X163500000Y-111000000D01*
X163500000Y-111000000D02*
X166500000Y-111000000D01*
X166500000Y-111000000D02*
X171000000Y-106500000D01*
X171000000Y-106500000D02*
X171000000Y-104228427D01*
X171000000Y-104228427D02*
X170190990Y-103419417D01*
%TO.N,Net-(U5-PD5)*%
X158650000Y-115427500D02*
X158650000Y-114850000D01*
X158650000Y-114850000D02*
X163000000Y-110500000D01*
X163000000Y-110500000D02*
X166000000Y-110500000D01*
X166000000Y-110500000D02*
X170500000Y-106000000D01*
X170500000Y-106000000D02*
X170500000Y-104859798D01*
X170500000Y-104859798D02*
X169625305Y-103985103D01*
%TO.N,VCC*%
X172335445Y-98092982D02*
X171980655Y-98092982D01*
X173019417Y-97409010D02*
X172335445Y-98092982D01*
X166000000Y-100500000D02*
X166000000Y-101034314D01*
X166000000Y-101034314D02*
X165311953Y-101722361D01*
%TO.N,GND*%
X171288047Y-95711953D02*
X170500000Y-96500000D01*
X171322361Y-95711953D02*
X171288047Y-95711953D01*
X166665686Y-101500000D02*
X167000000Y-101500000D01*
X165877639Y-102288047D02*
X166665686Y-101500000D01*
X164139411Y-103360589D02*
X163500000Y-104000000D01*
X164139411Y-103139411D02*
X164139411Y-103360589D01*
X167339411Y-107339411D02*
X167500000Y-107500000D01*
X167339411Y-106339411D02*
X167339411Y-107339411D01*
%TO.N,/Microcontroller/XTAL1*%
X165539411Y-104539411D02*
X165104954Y-104539411D01*
X165104954Y-104539411D02*
X164223223Y-105421142D01*
%TO.N,/Microcontroller/XTAL2*%
X166660589Y-105660589D02*
X166660589Y-106095046D01*
X166660589Y-106095046D02*
X165778858Y-106976777D01*
X166660589Y-105660589D02*
X166660589Y-104899209D01*
X166660589Y-104899209D02*
X167574695Y-103985103D01*
%TO.N,/Microcontroller/XTAL1*%
X165539411Y-104539411D02*
X165889016Y-104539411D01*
X165889016Y-104539411D02*
X167009010Y-103419417D01*
%TO.N,GND*%
X164860589Y-103860589D02*
X164860589Y-103305097D01*
X164860589Y-103305097D02*
X165877639Y-102288047D01*
%TO.N,VCC*%
X173739411Y-95539411D02*
X173739411Y-96689016D01*
X173739411Y-96689016D02*
X173019417Y-97409010D01*
%TO.N,GND*%
X173060589Y-94860589D02*
X172173725Y-94860589D01*
X172173725Y-94860589D02*
X171322361Y-95711953D01*
X164139411Y-103139411D02*
X165026275Y-103139411D01*
X165026275Y-103139411D02*
X165877639Y-102288047D01*
%TO.N,VCC*%
X163460589Y-102460589D02*
X163493714Y-102427464D01*
X163493714Y-102427464D02*
X164606850Y-102427464D01*
X164606850Y-102427464D02*
X165311953Y-101722361D01*
%TO.N,Net-(U5-PD3)*%
X163614897Y-100025305D02*
X159500000Y-104140202D01*
X159500000Y-104140202D02*
X159500000Y-112000000D01*
X156573370Y-114573370D02*
X156573370Y-115104130D01*
X159500000Y-112000000D02*
X159000000Y-112500000D01*
X156573370Y-115104130D02*
X156250000Y-115427500D01*
%TO.N,Net-(U5-PD4)*%
X154800000Y-115427500D02*
X156727500Y-113500000D01*
X159000000Y-113500000D02*
X160000000Y-112500000D01*
X156727500Y-113500000D02*
X159000000Y-113500000D01*
X160000000Y-112500000D02*
X160000000Y-104771573D01*
X160000000Y-104771573D02*
X164180583Y-100590990D01*
%TO.N,/Microcontroller/BUZZER*%
X162474695Y-97974695D02*
X162000000Y-97500000D01*
X163614897Y-97974695D02*
X162474695Y-97974695D01*
%TO.N,/Microcontroller/AVR_TX*%
X155650000Y-106290380D02*
X155650000Y-104800000D01*
X155650000Y-106290380D02*
X155596140Y-106290380D01*
%TO.N,VBUS*%
X156300000Y-104800000D02*
X156300000Y-106700000D01*
X156300000Y-106700000D02*
X155000000Y-108000000D01*
X155000000Y-108000000D02*
X154275000Y-108000000D01*
X154275000Y-108000000D02*
X153050000Y-109225000D01*
X153050000Y-109225000D02*
X153050000Y-112000000D01*
%TO.N,/Microcontroller/AVR_TX*%
X164180583Y-97409010D02*
X164180583Y-97180583D01*
X164180583Y-97180583D02*
X163733184Y-96733184D01*
X163733184Y-96733184D02*
X160681028Y-96733184D01*
X160681028Y-96733184D02*
X159000000Y-98414212D01*
X159000000Y-98414212D02*
X159000000Y-105850000D01*
X159000000Y-105850000D02*
X158350000Y-106500000D01*
X158350000Y-106500000D02*
X157000000Y-106500000D01*
%TO.N,/Microcontroller/AVR_RX*%
X158250000Y-104800000D02*
X158250000Y-98457106D01*
X158250000Y-98457106D02*
X160473922Y-96233184D01*
X160473922Y-96233184D02*
X164136128Y-96233184D01*
X164136128Y-96233184D02*
X164746268Y-96843324D01*
%TO.N,AVR_RST*%
X157600000Y-104800000D02*
X157600000Y-98400000D01*
X157600000Y-98400000D02*
X160266816Y-95733184D01*
X160266816Y-95733184D02*
X164767498Y-95733184D01*
X164767498Y-95733184D02*
X165311953Y-96277639D01*
%TO.N,TC_CS*%
X174860000Y-108740000D02*
X176060000Y-107540000D01*
X176060000Y-107540000D02*
X176060000Y-103631573D01*
X176060000Y-103631573D02*
X173019417Y-100590990D01*
%TO.N,AVR_RST*%
X175000000Y-115000000D02*
X174290000Y-115000000D01*
X174290000Y-115000000D02*
X174000000Y-114710000D01*
%TO.N,ICSP_13*%
X179000000Y-102500000D02*
X174474695Y-97974695D01*
X177400000Y-108740000D02*
X179350000Y-106790000D01*
X174474695Y-97974695D02*
X173585103Y-97974695D01*
X179350000Y-106790000D02*
X179350000Y-105000000D01*
%TO.N,TC_DAT*%
X177400000Y-111280000D02*
X180000000Y-108680000D01*
X180000000Y-108680000D02*
X180000000Y-104500000D01*
X180000000Y-104500000D02*
X177000000Y-101500000D01*
X175000000Y-101500000D02*
X173585103Y-100085103D01*
X177000000Y-101500000D02*
X175000000Y-101500000D01*
X173585103Y-100085103D02*
X173585103Y-100025305D01*
%TO.N,GND*%
X143680000Y-102021573D02*
X143680000Y-102900000D01*
X144021573Y-109421573D02*
X143800000Y-109200000D01*
X151750000Y-106150000D02*
X151800000Y-106200000D01*
X154350000Y-105954666D02*
X154247972Y-106056694D01*
X153700000Y-113373154D02*
X154280000Y-113953154D01*
X156300000Y-110700000D02*
X156400000Y-110600000D01*
X136000000Y-99621573D02*
X136000000Y-98200000D01*
X150734620Y-115240380D02*
X151775000Y-114200000D01*
X140766573Y-104841573D02*
X140958427Y-104841573D01*
X141341573Y-111341573D02*
X142600000Y-112600000D01*
X150440380Y-115240380D02*
X150734620Y-115240380D01*
X142241573Y-89221573D02*
X141521573Y-89941573D01*
X144121573Y-103341573D02*
X144741573Y-103341573D01*
X154280000Y-114000000D02*
X155200000Y-114000000D01*
X143680000Y-102900000D02*
X144121573Y-103341573D01*
X141521573Y-88501573D02*
X142241573Y-89221573D01*
X142721573Y-111841573D02*
X142721573Y-112478427D01*
X140958427Y-104841573D02*
X141600000Y-104200000D01*
X143511573Y-105711573D02*
X143600000Y-105800000D01*
X151750000Y-114175000D02*
X151775000Y-114200000D01*
X142241573Y-89221573D02*
X143721573Y-89221573D01*
X142921573Y-105711573D02*
X143511573Y-105711573D01*
X151750000Y-104800000D02*
X151750000Y-106150000D01*
X154280000Y-113953154D02*
X154280000Y-114000000D01*
X151750000Y-112000000D02*
X151750000Y-114175000D01*
X141310000Y-114200000D02*
X142200000Y-114200000D01*
X144741573Y-103341573D02*
X144800000Y-103400000D01*
X151750000Y-112000000D02*
X151750000Y-110850000D01*
X143721573Y-89221573D02*
X145778427Y-89221573D01*
X140766573Y-111341573D02*
X141341573Y-111341573D01*
X154350000Y-104800000D02*
X154350000Y-105954666D01*
X156950000Y-112000000D02*
X156300000Y-112000000D01*
X145778427Y-89221573D02*
X145800000Y-89200000D01*
X142721573Y-112478427D02*
X142600000Y-112600000D01*
X136000000Y-99621573D02*
X136000000Y-101000000D01*
X151750000Y-110850000D02*
X152000000Y-110600000D01*
X144984073Y-109421573D02*
X144021573Y-109421573D01*
X156300000Y-112000000D02*
X156300000Y-110700000D01*
X153700000Y-112000000D02*
X153700000Y-113373154D01*
%TO.N,+3V3*%
X151100000Y-113325000D02*
X150225000Y-114200000D01*
X151100000Y-112000000D02*
X151100000Y-113325000D01*
D57*
%TO.N,+9V*%
X143400000Y-77695000D02*
X143400000Y-86620000D01*
X141521573Y-87541573D02*
X143121573Y-87541573D01*
X143400000Y-86620000D02*
X143721573Y-86941573D01*
X143121573Y-87541573D02*
X143721573Y-86941573D01*
%TO.N,+5V*%
X143671573Y-94621573D02*
X143671573Y-91551573D01*
X143121573Y-90901573D02*
X143721573Y-91501573D01*
X143671573Y-91551573D02*
X143721573Y-91501573D01*
X141521573Y-90901573D02*
X143121573Y-90901573D01*
D56*
%TO.N,VBUS*%
X153320000Y-114000000D02*
X148830000Y-118490000D01*
X156080000Y-103000000D02*
X156300000Y-103220000D01*
X153050000Y-112000000D02*
X153050000Y-113730000D01*
X153050000Y-113730000D02*
X153320000Y-114000000D01*
D57*
X143875000Y-100221573D02*
X145971573Y-100221573D01*
D56*
X140490000Y-116800000D02*
X140490000Y-117580000D01*
X140490000Y-117580000D02*
X141400000Y-118490000D01*
X156300000Y-103220000D02*
X156300000Y-104800000D01*
D57*
X145971573Y-100221573D02*
X146000000Y-100250000D01*
D56*
X148830000Y-118490000D02*
X141400000Y-118490000D01*
D57*
%TO.N,VCC*%
X146000000Y-96950000D02*
X146000000Y-98200000D01*
X146971573Y-94621573D02*
X150934073Y-94621573D01*
X146000000Y-95593146D02*
X146971573Y-94621573D01*
D56*
X174860000Y-111280000D02*
X174860000Y-112830000D01*
X174860000Y-112830000D02*
X174000000Y-113690000D01*
D57*
X146000000Y-96950000D02*
X146000000Y-95593146D01*
X150934073Y-95734073D02*
X151000000Y-95800000D01*
X150934073Y-94621573D02*
X150934073Y-95734073D01*
D56*
%TO.N,/Microcontroller/TXL_K*%
X155000000Y-112000000D02*
X155000000Y-110600000D01*
X155000000Y-110600000D02*
X155200000Y-110400000D01*
X145800000Y-120000000D02*
X144787500Y-120000000D01*
X144787500Y-120000000D02*
X144587500Y-120200000D01*
%TO.N,/Microcontroller/TXL_A*%
X142322500Y-119510000D02*
X143012500Y-120200000D01*
X141400000Y-119510000D02*
X142322500Y-119510000D01*
%TO.N,/Microcontroller/RXL_K*%
X145800000Y-116400000D02*
X144587500Y-116400000D01*
X154350000Y-110550000D02*
X154200000Y-110400000D01*
X154350000Y-112000000D02*
X154350000Y-110550000D01*
%TO.N,/Microcontroller/RXL_A*%
X141910000Y-116400000D02*
X141510000Y-116800000D01*
X143012500Y-116400000D02*
X141910000Y-116400000D01*
D57*
%TO.N,/Power Supply and USB/VBUS_IN*%
X141941573Y-105591573D02*
X141941573Y-105286573D01*
X142921573Y-104306573D02*
X144116573Y-104306573D01*
X147259073Y-109421573D02*
X146596574Y-109421573D01*
D56*
X139191573Y-106356878D02*
X139906878Y-105641573D01*
X139941573Y-110541573D02*
X139191573Y-109791573D01*
D57*
X146096573Y-106276573D02*
X144121573Y-104301573D01*
X141941573Y-105286573D02*
X142921573Y-104306573D01*
X141891573Y-105641573D02*
X141941573Y-105591573D01*
X144116573Y-104306573D02*
X144121573Y-104301573D01*
X146096573Y-108921572D02*
X146096573Y-106276573D01*
X140766573Y-105641573D02*
X141891573Y-105641573D01*
X146596574Y-109421573D02*
X146096573Y-108921572D01*
D56*
X140766573Y-110541573D02*
X139941573Y-110541573D01*
X139906878Y-105641573D02*
X140766573Y-105641573D01*
X139191573Y-109791573D02*
X139191573Y-106356878D01*
%TO.N,/Power Supply and USB/CC2*%
X142241573Y-109841573D02*
X142721573Y-110321573D01*
X140766573Y-109841573D02*
X142241573Y-109841573D01*
X142721573Y-110321573D02*
X142721573Y-110821573D01*
%TO.N,/Power Supply and USB/CC1*%
X142811573Y-106841573D02*
X142921573Y-106731573D01*
X140766573Y-106841573D02*
X142811573Y-106841573D01*
%TO.N,Net-(J2-SHIELD)*%
X135671573Y-103771573D02*
X135671573Y-112411573D01*
X140290000Y-112850000D02*
X139851573Y-112411573D01*
X135671573Y-112411573D02*
X139851573Y-112411573D01*
X139851573Y-103771573D02*
X135671573Y-103771573D01*
X140290000Y-114200000D02*
X140290000Y-112850000D01*
%TO.N,/Power Supply and USB/D+_IN*%
X141841573Y-107841573D02*
X141841573Y-108400000D01*
X141841573Y-108841573D02*
X140766573Y-108841573D01*
X141841573Y-108400000D02*
X141841573Y-108841573D01*
X140766573Y-107841573D02*
X141841573Y-107841573D01*
X143813146Y-110371573D02*
X144984073Y-110371573D01*
X141841573Y-108400000D02*
X143813146Y-110371573D01*
%TO.N,/Power Supply and USB/D-_IN*%
X142521939Y-107341573D02*
X143651939Y-108471573D01*
X140766573Y-107341573D02*
X139691573Y-107341573D01*
X143651939Y-108471573D02*
X144984073Y-108471573D01*
X139691573Y-107341573D02*
X139691573Y-108291573D01*
X140766573Y-107341573D02*
X142521939Y-107341573D01*
X139741573Y-108341573D02*
X140766573Y-108341573D01*
X139691573Y-108291573D02*
X139741573Y-108341573D01*
%TO.N,LCD_RST*%
X156250000Y-120050000D02*
X156100000Y-120200000D01*
X156250000Y-116447500D02*
X156250000Y-120050000D01*
%TO.N,LCD_CS*%
X153740000Y-120060000D02*
X153600000Y-120200000D01*
X153740000Y-117507500D02*
X153740000Y-120060000D01*
X154800000Y-116447500D02*
X153740000Y-117507500D01*
%TO.N,/Connectors/LCD_BL*%
X166650000Y-116447500D02*
X166650000Y-119650000D01*
X166650000Y-119650000D02*
X166100000Y-120200000D01*
%TO.N,LCD_DC*%
X158650000Y-120150000D02*
X158600000Y-120200000D01*
X158650000Y-116447500D02*
X158650000Y-120150000D01*
%TO.N,LCD_DIN*%
X161050000Y-120150000D02*
X161100000Y-120200000D01*
X161050000Y-116447500D02*
X161050000Y-120150000D01*
%TO.N,LCD_CLK*%
X163650000Y-120150000D02*
X163600000Y-120200000D01*
X163650000Y-116447500D02*
X163650000Y-120150000D01*
%TO.N,AVR_RST*%
X174000000Y-120090000D02*
X172200000Y-121890000D01*
X174000000Y-114710000D02*
X174000000Y-120090000D01*
%TO.N,USB_DM*%
X150450000Y-110542894D02*
X150450000Y-112000000D01*
X148378679Y-108471573D02*
X150450000Y-110542894D01*
X147259073Y-108471573D02*
X148378679Y-108471573D01*
%TO.N,USB_DP*%
X149800000Y-110800000D02*
X149800000Y-112000000D01*
X147921572Y-110371573D02*
X148400000Y-109893145D01*
X147259073Y-110371573D02*
X147921572Y-110371573D01*
X148400000Y-109893145D02*
X148400000Y-109400000D01*
X148400000Y-109400000D02*
X149800000Y-110800000D01*
%TO.N,Net-(Q4-D)*%
X168140000Y-115427500D02*
X168250000Y-115537500D01*
X166650000Y-115427500D02*
X168140000Y-115427500D01*
D57*
%TO.N,Net-(C13-Pad1)*%
X142720000Y-103135000D02*
X142921573Y-103336573D01*
X142720000Y-102021573D02*
X142720000Y-103135000D01*
X139600000Y-99621573D02*
X141525000Y-99621573D01*
X141525000Y-99621573D02*
X142125000Y-100221573D01*
X142125000Y-101426573D02*
X142720000Y-102021573D01*
X142125000Y-100221573D02*
X142125000Y-101426573D01*
%TD*%
%TA.AperFunction,Conductor*%
%TO.N,GND*%
G36*
X157443039Y-85519685D02*
G01*
X157488794Y-85572489D01*
X157500000Y-85624000D01*
X157500000Y-93376000D01*
X157480315Y-93443039D01*
X157427511Y-93488794D01*
X157376000Y-93500000D01*
X147124000Y-93500000D01*
X147056961Y-93480315D01*
X147011206Y-93427511D01*
X147000000Y-93376000D01*
X147000000Y-85624000D01*
X147019685Y-85556961D01*
X147072489Y-85511206D01*
X147124000Y-85500000D01*
X157376000Y-85500000D01*
X157443039Y-85519685D01*
G37*
%TD.AperFunction*%
%TD*%
M02*
